<svg width="83" height="17" viewBox="0 0 83 17" fill="none" xmlns="http://www.w3.org/2000/svg">
<path d="M21.61 0.0102539H18.3V2.41026H21.61V0.0102539Z" fill="black"/>
<path d="M21.61 3.33008H18.3V16.5801H21.61V3.33008Z" fill="black"/>
<path d="M26.61 7.5302V3.3302H23.35V16.5802H26.61V10.6202C26.86 7.9502 28.65 6.2602 30.97 6.2602C31.43 6.2602 31.76 6.2602 32.17 6.3102V3.2802C31.86 3.2302 31.43 3.2002 31 3.2002C28.2 3.2002 26.9 5.1602 26.62 7.5302H26.61Z" fill="black"/>
<path d="M39.22 13.9502C37.54 13.9502 35.81 12.5202 35.81 9.98018C35.81 7.44018 37.54 5.98018 39.22 5.98018C40.24 5.98018 41.26 6.39017 41.87 7.28017L44.75 6.24017C43.42 4.07017 41.11 3.18018 39.22 3.18018C36.49 3.18018 32.54 5.32018 32.54 9.98018C32.54 14.6402 36.49 16.7602 39.22 16.7602C41.11 16.7602 43.42 15.8702 44.77 13.7002L41.84 12.6602C41.25 13.5502 40.23 13.9602 39.22 13.9602V13.9502Z" fill="black"/>
<path d="M54.73 5.11041C54.58 4.32041 53.15 3.17041 51.06 3.17041C48.26 3.17041 44.84 5.41041 44.84 9.95041C44.84 14.4904 48.28 16.7504 51.06 16.7504C53.15 16.7504 54.58 15.3704 54.73 14.6104V16.5704H57.99V3.32041H54.73V5.10041V5.11041ZM51.57 13.9504C49.86 13.9504 48.1 12.5204 48.1 9.95041C48.1 7.38041 49.86 5.98042 51.57 5.98042C53.28 5.98042 54.88 7.05041 54.88 9.95041C54.88 12.8504 53.22 13.9504 51.57 13.9504Z" fill="black"/>
<path d="M62.78 7.5302V3.3302H59.52V16.5802H62.78V10.6202C63.03 7.9502 64.82 6.2602 67.14 6.2602C67.6 6.2602 67.93 6.2602 68.34 6.3102V3.2802C68.03 3.2302 67.6 3.2002 67.17 3.2002C64.37 3.2002 63.07 5.1602 62.79 7.5302H62.78Z" fill="black"/>
<path d="M78.81 0.0100021V5.11C78.63 4.32 77.23 3.17 75.14 3.17C72.34 3.17 68.92 5.41 68.92 9.95C68.92 14.49 72.33 16.75 75.14 16.75C77.23 16.75 78.63 15.37 78.81 14.61V16.57H82.07V0H78.81V0.0100021ZM75.65 13.95C73.94 13.95 72.18 12.52 72.18 9.95C72.18 7.38 73.94 5.98 75.65 5.98C77.36 5.98 78.96 7.05 78.96 9.95C78.96 12.85 77.3 13.95 75.65 13.95Z" fill="black"/>
<path d="M13.26 4.21031C12.28 3.65031 11.15 3.32031 9.94001 3.32031V6.63031C11.77 6.63031 13.25 8.11032 13.25 9.94032C13.25 11.7703 11.77 13.2503 9.94001 13.2503C8.11001 13.2503 6.63001 11.7703 6.63001 9.94032H3.32001C3.32001 13.6003 6.29001 16.5703 9.95001 16.5703C11.16 16.5703 12.29 16.2503 13.27 15.6803V16.5703H16.58V3.34032H13.27V4.21031H13.26Z" fill="black"/>
<path d="M6.63 9.95013H9.94001V6.64014C8.11001 6.64014 6.63 8.12013 6.63 9.95013Z" fill="black"/>
<path d="M9.94 3.32025V0.0102539C4.45 0.0102539 0 4.46025 0 9.95025H3.31C3.31 6.29025 6.28 3.32025 9.94 3.32025Z" fill="black"/>
</svg>
