<?xml version="1.0" encoding="UTF-8" standalone="no"?>
<svg
   id="Layer_1"
   viewBox="0 0 240.94 155.91"
   version="1.1"
   sodipodi:docname="002-01front.svg"
   inkscape:version="1.3.2 (091e20e, 2023-11-25, custom)"
   xmlns:inkscape="http://www.inkscape.org/namespaces/inkscape"
   xmlns:sodipodi="http://sodipodi.sourceforge.net/DTD/sodipodi-0.dtd"
   xmlns="http://www.w3.org/2000/svg"
   xmlns:svg="http://www.w3.org/2000/svg">
  <sodipodi:namedview
     id="namedview181"
     pagecolor="#505050"
     bordercolor="#ffffff"
     borderopacity="1"
     inkscape:showpageshadow="0"
     inkscape:pageopacity="0"
     inkscape:pagecheckerboard="1"
     inkscape:deskcolor="#505050"
     inkscape:zoom="2.3200797"
     inkscape:cx="120.47"
     inkscape:cy="77.799053"
     inkscape:window-width="1366"
     inkscape:window-height="697"
     inkscape:window-x="-8"
     inkscape:window-y="-8"
     inkscape:window-maximized="1"
     inkscape:current-layer="Layer_1" />
  <defs
     id="defs1">
    <style
       id="style1">.cls-1{stroke-width:0px;}</style>
  </defs>
  <rect
     class="cls-1"
     x="22.039616"
     y="69.010941"
     width="3.5350089"
     height="2.5631466"
     id="rect1" />
  <rect
     class="cls-1"
     x="22.039616"
     y="72.556656"
     width="3.5350089"
     height="14.15072"
     id="rect2" />
  <path
     class="cls-1"
     d="m 30.914533,77.04199 v -4.485485 h -3.481574 v 14.150721 h 3.481574 v -6.365161 c 0.267038,-2.851499 2.178696,-4.656398 4.65641,-4.656398 0.491257,0 0.843719,0 1.281612,0.05316 v -3.235944 c -0.331099,-0.05317 -0.790355,-0.08572 -1.24954,-0.08572 -2.990355,0 -4.378728,2.093234 -4.677766,4.624339 z"
     id="path2" />
  <path
     class="cls-1"
     d="m 44.381767,83.898433 c -1.794176,0 -3.641817,-1.527189 -3.641817,-4.239851 0,-2.712693 1.847641,-4.271946 3.641817,-4.271946 1.089391,0 2.178699,0.437866 2.830169,1.388374 l 3.075773,-1.1107 c -1.420407,-2.317522 -3.887439,-3.268003 -5.905942,-3.268003 -2.915557,0 -7.134113,2.285489 -7.134113,7.262275 0,4.976787 4.218556,7.240876 7.134113,7.240876 2.018503,0 4.485535,-0.950477 5.9273,-3.268003 l -3.129198,-1.110702 c -0.630078,0.950514 -1.719437,1.388374 -2.798102,1.388374 z"
     id="path3" />
  <path
     class="cls-1"
     d="m 60.946173,74.457492 c -0.160203,-0.84373 -1.687405,-2.0719 -3.91953,-2.0719 -2.990323,0 -6.642782,2.392272 -6.642782,7.240907 0,4.848634 3.673817,7.262281 6.642782,7.262281 2.232125,0 3.759327,-1.473808 3.91953,-2.285495 v 2.093259 h 3.481614 V 72.545811 h -3.481614 v 1.901006 z m -3.374831,9.440941 c -1.826238,0 -3.705884,-1.527189 -3.705884,-4.271934 0,-2.744689 1.879646,-4.239863 3.705884,-4.239863 1.826221,0 3.535023,1.14275 3.535023,4.239863 0,3.09718 -1.772875,4.271934 -3.535023,4.271934 z"
     id="path4" />
  <path
     class="cls-1"
     d="m 69.543407,77.04199 v -4.485485 h -3.481613 v 14.150721 h 3.481613 v -6.365161 c 0.266987,-2.851499 2.178655,-4.656398 4.65637,-4.656398 0.491303,0 0.843719,0 1.281601,0.05316 v -3.235944 c -0.331088,-0.05317 -0.790298,-0.08572 -1.249528,-0.08572 -2.990355,0 -4.378729,2.093234 -4.677767,4.624339 z"
     id="path5" />
  <path
     class="cls-1"
     d="m 86.663133,69.0108 v 5.446692 c -0.192231,-0.84373 -1.687421,-2.0719 -3.919474,-2.0719 -2.990355,0 -6.642855,2.392272 -6.642855,7.240907 0,4.848634 3.641806,7.262281 6.642855,7.262281 2.232053,0 3.727243,-1.473808 3.919474,-2.285495 v 2.093259 h 3.481586 v -17.69643 h -3.481586 z m -3.374818,14.887633 c -1.826273,0 -3.70589,-1.527189 -3.70589,-4.271934 0,-2.744689 1.879617,-4.239863 3.70589,-4.239863 1.826259,0 3.53501,1.14275 3.53501,4.239863 0,3.09718 -1.772863,4.271934 -3.53501,4.271934 z"
     id="path6" />
  <path
     class="cls-1"
     d="m 16.65703,73.496325 c -1.046593,-0.598078 -2.253411,-0.950514 -3.545665,-0.950514 v 3.535022 c 1.95438,0 3.53499,1.58061 3.53499,3.535023 0,1.954396 -1.58061,3.53499 -3.53499,3.53499 -1.954464,0 -3.5350224,-1.580594 -3.5350224,-3.53499 H 6.0413058 c 0,3.908764 3.1718618,7.080688 7.0807012,7.080688 1.292254,0 2.499073,-0.341754 3.545705,-0.950514 v 0.950514 h 3.534983 V 72.56718 h -3.534983 v 0.929145 z"
     id="path7" />
  <path
     class="cls-1"
     d="m 9.5763426,79.626499 h 3.5350224 v -3.535023 c -1.954464,0 -3.5350224,1.580642 -3.5350224,3.535023 z"
     id="path8" />
  <path
     class="cls-1"
     d="M 13.111365,72.545811 V 69.0108 c -5.8632278,0 -10.6157704,4.752523 -10.6157704,10.615699 h 3.5350195 c 0,-3.908796 3.1719095,-7.080688 7.0807509,-7.080688 z"
     id="path9" />
  <path
     class="cls-1"
     d="m 178.84066,20.834223 h -17.23718 v -0.106799 c 0,-4.75255 3.86594,-8.6186 8.61824,-8.6186 4.75284,0 8.61894,3.86605 8.61894,8.6186 z m -17.0236,-0.213605 h 16.81003 c -0.0514,-4.581676 -3.8022,-8.298205 -8.40537,-8.298205 -4.60307,0 -8.35159,3.716529 -8.40466,8.298205 z"
     id="path10" />
  <path
     class="cls-1"
     d="m 170.22172,11.3719 c -4.7523,0 -8.61824,-3.8660971 -8.61824,-8.6186022 V 2.6465027 h 17.23718 v 0.1067951 c 0,4.7525051 -3.8661,8.6186022 -8.61894,8.6186022 z m -8.40466,-8.5117999 c 0.051,4.5816268 3.80159,8.2982099 8.40466,8.2982099 4.60317,0 8.35202,-3.7165831 8.40537,-8.2982099 z"
     id="path11" />
  <path
     class="cls-1"
     d="m 178.84066,77.586682 h -17.23718 v -0.1068 c 0,-4.75251 3.86594,-8.618598 8.61824,-8.618598 4.75284,0 8.61894,3.866088 8.61894,8.618598 z m -17.0236,-0.213594 h 16.81003 c -0.0514,-4.581624 -3.8022,-8.298203 -8.40537,-8.298203 -4.60307,0 -8.35159,3.716579 -8.40466,8.298203 z"
     id="path12" />
  <path
     class="cls-1"
     d="m 170.22172,68.124372 c -4.7523,0 -8.61824,-3.866081 -8.61824,-8.618604 v -0.106795 h 17.23718 v 0.106795 c 0,4.752523 -3.8661,8.618604 -8.61894,8.618604 z m -8.40466,-8.511809 c 0.051,4.581655 3.80159,8.29822 8.40466,8.29822 4.60317,0 8.35202,-3.716565 8.40537,-8.29822 z"
     id="path13" />
  <path
     class="cls-1"
     d="M 178.84066,58.672764 H 161.60348 V 58.56597 c 0,-4.752555 3.86594,-8.618603 8.61824,-8.618603 4.75284,0 8.61894,3.866048 8.61894,8.618603 z m -17.0236,-0.224304 h 16.81003 c -0.0514,-4.581615 -3.8022,-8.298215 -8.40537,-8.298215 -4.60307,0 -8.35159,3.7166 -8.40466,8.298215 z"
     id="path14" />
  <path
     class="cls-1"
     d="m 170.22172,49.210459 c -4.7523,0 -8.61824,-3.866138 -8.61824,-8.618604 v -0.106806 h 17.23718 v 0.106806 c 0,4.752466 -3.8661,8.618604 -8.61894,8.618604 z m -8.40466,-8.511809 c 0.051,4.581602 3.80159,8.298203 8.40466,8.298203 4.60317,0 8.35202,-3.716601 8.40537,-8.298203 z"
     id="path15" />
  <path
     class="cls-1"
     d="m 161.22945,39.278243 h -0.10643 V 22.041036 h 0.10643 c 4.75285,0 8.61896,3.866048 8.61896,8.618604 0,4.752471 -3.86611,8.618603 -8.61896,8.618603 z m 0.10715,-17.034328 v 16.810012 c 4.58152,-0.05316 8.29823,-3.801969 8.29823,-8.405003 0,-4.602972 -3.71671,-8.351583 -8.29823,-8.405009 z"
     id="path16" />
  <path
     class="cls-1"
     d="m 179.31057,39.278243 h -0.10716 c -4.75223,0 -8.61817,-3.866132 -8.61817,-8.618603 0,-4.752556 3.86594,-8.618604 8.61817,-8.618604 h 0.10716 z m -0.21353,-17.034328 c -4.58212,0.05319 -8.29827,3.802037 -8.29827,8.405009 0,4.603034 3.71615,8.351645 8.29827,8.405003 z"
     id="path17" />
  <path
     class="cls-1"
     d="m 178.84066,96.500607 h -17.23718 v -0.106794 c 0,-4.752515 3.86594,-8.618604 8.61824,-8.618604 4.75284,0 8.61894,3.866089 8.61894,8.618604 z m -17.0236,-0.213601 h 16.81003 c -0.0514,-4.581625 -3.8022,-8.298208 -8.40537,-8.298208 -4.60307,0 -8.35159,3.716583 -8.40466,8.298208 z"
     id="path18" />
  <path
     class="cls-1"
     d="m 170.22172,87.048967 c -4.7523,0 -8.61824,-3.866088 -8.61824,-8.618571 v -0.106827 h 17.23718 v 0.106827 c 0,4.752483 -3.8661,8.618571 -8.61894,8.618571 z m -8.40466,-8.511777 c 0.051,4.58162 3.80159,8.298188 8.40466,8.298188 4.60317,0 8.35202,-3.716568 8.40537,-8.298188 z"
     id="path19" />
  <path
     class="cls-1"
     d="m 178.84066,153.2635 h -17.23718 v -0.10655 c 0,-4.75244 3.86594,-8.61894 8.61824,-8.61894 4.75284,0 8.61894,3.8665 8.61894,8.61894 z m -17.0236,-0.2137 h 16.81003 c -0.0514,-4.58152 -3.8022,-8.29822 -8.40537,-8.29822 -4.60307,0 -8.35159,3.7167 -8.40466,8.29822 z"
     id="path20" />
  <path
     class="cls-1"
     d="m 170.22172,143.80117 c -4.7523,0 -8.61824,-3.86595 -8.61824,-8.61823 v -0.1071 h 17.23718 v 0.1071 c 0,4.75228 -3.8661,8.61823 -8.61894,8.61823 z m -8.40466,-8.5118 c 0.051,4.58212 3.80159,8.29823 8.40466,8.29823 4.60317,0 8.35202,-3.71611 8.40537,-8.29823 z"
     id="path21" />
  <path
     class="cls-1"
     d="m 178.84066,134.3389 h -17.23718 v -0.10632 c 0,-4.75289 3.86594,-8.61902 8.61824,-8.61902 4.75284,0 8.61894,3.86613 8.61894,8.61902 z m -17.0236,-0.21359 h 16.81003 c -0.0514,-4.5814 -3.8022,-8.29811 -8.40537,-8.29811 -4.60307,0 -8.35159,3.71671 -8.40466,8.29811 z"
     id="path22" />
  <path
     class="cls-1"
     d="m 170.22172,124.88778 c -4.7523,0 -8.61824,-3.86605 -8.61824,-8.61907 v -0.10642 h 17.23718 v 0.10642 c 0,4.75302 -3.8661,8.61907 -8.61894,8.61907 z m -8.40466,-8.52291 c 0.051,4.58152 3.80159,8.29823 8.40466,8.29823 4.60317,0 8.35202,-3.71671 8.40537,-8.29823 z"
     id="path23" />
  <path
     class="cls-1"
     d="m 161.22945,114.95538 h -0.10643 V 97.718107 h 0.10643 c 4.75285,0 8.61896,3.866333 8.61896,8.618363 0,4.75297 -3.86611,8.61891 -8.61896,8.61891 z m 0.10715,-17.034367 v 16.809807 c 4.58152,-0.0513 8.29823,-3.80172 8.29823,-8.40465 0,-4.60291 -3.71671,-8.351752 -8.29823,-8.405157 z"
     id="path24" />
  <path
     class="cls-1"
     d="m 179.31057,114.95538 h -0.10716 c -4.75223,0 -8.61817,-3.86594 -8.61817,-8.61891 0,-4.75203 3.86594,-8.618363 8.61817,-8.618363 h 0.10716 z m -0.21353,-17.034367 c -4.58212,0.05323 -8.29827,3.802247 -8.29827,8.405157 0,4.60293 3.71615,8.35145 8.29827,8.40465 z"
     id="path25" />
  <path
     class="cls-1"
     d="m 199.21733,20.353603 h -0.10643 c -4.75288,0 -8.61906,-3.866053 -8.61906,-8.618604 0,-4.7524921 3.86618,-8.6185837 8.61906,-8.6185837 h 0.10643 z M 199.00375,3.3300125 c -4.58151,0.053396 -8.29816,3.8020131 -8.29816,8.4049865 0,4.603046 3.71665,8.351658 8.29816,8.40501 z"
     id="path26" />
  <path
     class="cls-1"
     d="m 181.13678,20.353603 h -0.10715 V 3.1164153 h 0.10715 c 4.75228,0 8.61834,3.8660916 8.61834,8.6185837 0,4.752551 -3.86606,8.618604 -8.61834,8.618604 z M 181.2432,3.3300125 V 20.140009 c 4.58163,-0.05315 8.29822,-3.801964 8.29822,-8.40501 0,-4.6029734 -3.71659,-8.3515901 -8.29822,-8.4049865 z"
     id="path27" />
  <path
     class="cls-1"
     d="m 199.21733,77.116757 h -0.10643 c -4.75288,0 -8.61906,-3.866093 -8.61906,-8.618571 0,-4.752556 3.86618,-8.618604 8.61906,-8.618604 h 0.10643 z m -0.21358,-17.034302 c -4.58151,0.05318 -8.29816,3.802043 -8.29816,8.405015 0,4.603013 3.71665,8.351625 8.29816,8.405009 z"
     id="path28" />
  <path
     class="cls-1"
     d="m 181.13678,77.116757 h -0.10715 V 59.879582 h 0.10715 c 4.75228,0 8.61834,3.866048 8.61834,8.618604 0,4.752478 -3.86606,8.618571 -8.61834,8.618571 z m 0.10642,-17.034302 v 16.810024 c 4.58163,-0.05318 8.29822,-3.801996 8.29822,-8.405009 0,-4.602972 -3.71659,-8.351584 -8.29822,-8.405015 z"
     id="path29" />
  <path
     class="cls-1"
     d="m 190.11844,49.210459 c -4.75268,0 -8.61874,-3.866138 -8.61874,-8.618604 v -0.106806 h 17.23729 v 0.106806 c 0,4.752466 -3.8661,8.618604 -8.61855,8.618604 z m -8.40506,-8.511809 c 0.051,4.581602 3.80173,8.298203 8.40506,8.298203 4.6031,0 8.35163,-3.716601 8.40497,-8.298203 z"
     id="path30" />
  <path
     class="cls-1"
     d="M 198.73699,58.672764 H 181.4997 V 58.56597 c 0,-4.752555 3.86606,-8.618603 8.61874,-8.618603 4.75245,0 8.61855,3.866048 8.61855,8.618603 z M 181.71338,58.44846 h 16.81003 c -0.051,-4.581615 -3.80187,-8.298215 -8.40497,-8.298215 -4.60333,0 -8.35198,3.7166 -8.40506,8.298215 z"
     id="path31" />
  <path
     class="cls-1"
     d="m 199.21733,39.278243 h -0.10643 c -4.75288,0 -8.61906,-3.866132 -8.61906,-8.618603 0,-4.752556 3.86618,-8.618604 8.61906,-8.618604 h 0.10643 z m -0.21358,-17.034328 c -4.58151,0.05319 -8.29816,3.802037 -8.29816,8.405009 0,4.603034 3.71665,8.351645 8.29816,8.405003 z"
     id="path32" />
  <path
     class="cls-1"
     d="m 181.13678,39.278243 h -0.10715 V 22.041036 h 0.10715 c 4.75228,0 8.61834,3.866048 8.61834,8.618604 0,4.752471 -3.86606,8.618603 -8.61834,8.618603 z m 0.10642,-17.034328 v 16.810012 c 4.58163,-0.05316 8.29822,-3.801969 8.29822,-8.405003 0,-4.602972 -3.71659,-8.351583 -8.29822,-8.405009 z"
     id="path33" />
  <path
     class="cls-1"
     d="m 199.21733,96.030702 h -0.10643 c -4.75288,0 -8.61906,-3.866081 -8.61906,-8.618604 0,-4.752515 3.86618,-8.618603 8.61906,-8.618603 h 0.10643 z m -0.21358,-17.023606 c -4.58151,0.05318 -8.29816,3.802009 -8.29816,8.405002 0,4.602973 3.71665,8.351584 8.29816,8.405015 z"
     id="path34" />
  <path
     class="cls-1"
     d="m 181.13678,96.030702 h -0.10715 V 78.793495 h 0.10715 c 4.75228,0 8.61834,3.866088 8.61834,8.618603 0,4.752523 -3.86606,8.618604 -8.61834,8.618604 z m 0.10642,-17.023606 v 16.810017 c 4.58163,-0.05324 8.29822,-3.802042 8.29822,-8.405015 0,-4.602993 -3.71659,-8.351594 -8.29822,-8.405002 z"
     id="path35" />
  <path
     class="cls-1"
     d="m 199.21733,152.79403 h -0.10643 c -4.75288,0 -8.61906,-3.86594 -8.61906,-8.61895 0,-4.75213 3.86618,-8.61818 8.61906,-8.61818 h 0.10643 z m -0.21358,-17.0347 c -4.58151,0.0516 -8.29816,3.80259 -8.29816,8.40537 0,4.603 3.71665,8.35158 8.29816,8.40465 z"
     id="path36" />
  <path
     class="cls-1"
     d="m 181.13678,152.79403 h -0.10715 V 135.5569 h 0.10715 c 4.75228,0 8.61834,3.86605 8.61834,8.61818 0,4.75301 -3.86606,8.61895 -8.61834,8.61895 z m 0.10642,-17.0347 v 16.81002 c 4.58163,-0.051 8.29822,-3.80165 8.29822,-8.40465 0,-4.60278 -3.71659,-8.35203 -8.29822,-8.40537 z"
     id="path37" />
  <path
     class="cls-1"
     d="m 190.11844,124.88778 c -4.75268,0 -8.61874,-3.86605 -8.61874,-8.61907 v -0.10642 h 17.23729 v 0.10642 c 0,4.75302 -3.8661,8.61907 -8.61855,8.61907 z m -8.40506,-8.52291 c 0.051,4.58152 3.80173,8.29823 8.40506,8.29823 4.6031,0 8.35163,-3.71671 8.40497,-8.29823 z"
     id="path38" />
  <path
     class="cls-1"
     d="M 198.73699,134.3389 H 181.4997 v -0.10632 c 0,-4.75289 3.86606,-8.61902 8.61874,-8.61902 4.75245,0 8.61855,3.86613 8.61855,8.61902 z m -17.02361,-0.21359 h 16.81003 c -0.051,-4.5814 -3.80187,-8.29811 -8.40497,-8.29811 -4.60333,0 -8.35198,3.71671 -8.40506,8.29811 z"
     id="path39" />
  <path
     class="cls-1"
     d="m 199.21733,114.95538 h -0.10643 c -4.75288,0 -8.61906,-3.86594 -8.61906,-8.61891 0,-4.75203 3.86618,-8.618363 8.61906,-8.618363 h 0.10643 z m -0.21358,-17.034367 c -4.58151,0.05323 -8.29816,3.802247 -8.29816,8.405157 0,4.60293 3.71665,8.35145 8.29816,8.40465 z"
     id="path40" />
  <path
     class="cls-1"
     d="m 181.13678,114.95538 h -0.10715 V 97.718107 h 0.10715 c 4.75228,0 8.61834,3.866333 8.61834,8.618363 0,4.75297 -3.86606,8.61891 -8.61834,8.61891 z m 0.10642,-17.034367 v 16.809807 c 4.58163,-0.0513 8.29822,-3.80172 8.29822,-8.40465 0,-4.60291 -3.71659,-8.351752 -8.29822,-8.405157 z"
     id="path41" />
  <path
     class="cls-1"
     d="m 201.03322,77.116757 h -0.10715 V 59.879582 h 0.10715 c 4.7523,0 8.61824,3.866048 8.61824,8.618604 0,4.752478 -3.86594,8.618571 -8.61824,8.618571 z m 0.10643,-17.034302 v 16.810024 c 4.58223,-0.05318 8.29823,-3.801996 8.29823,-8.405009 0,-4.602972 -3.716,-8.351584 -8.29823,-8.405015 z"
     id="path42" />
  <path
     class="cls-1"
     d="m 219.11418,77.116757 h -0.10682 c -4.75262,0 -8.61907,-3.866093 -8.61907,-8.618571 0,-4.752556 3.86645,-8.618604 8.61907,-8.618604 h 0.10682 z m -0.21409,-17.034302 c -4.58151,0.05318 -8.29771,3.802043 -8.29771,8.405015 0,4.603013 3.7162,8.351625 8.29771,8.405009 z"
     id="path43" />
  <path
     class="cls-1"
     d="m 201.03322,58.192156 h -0.10715 V 40.954954 h 0.10715 c 4.7523,0 8.61824,3.866088 8.61824,8.618599 0,4.752522 -3.86594,8.618603 -8.61824,8.618603 z m 0.10643,-17.023613 v 16.810024 c 4.58223,-0.05324 8.29823,-3.802001 8.29823,-8.405014 0,-4.602969 -3.716,-8.351585 -8.29823,-8.40501 z"
     id="path44" />
  <path
     class="cls-1"
     d="m 219.11418,58.192156 h -0.10682 c -4.75262,0 -8.61907,-3.866081 -8.61907,-8.618603 0,-4.752511 3.86645,-8.618599 8.61907,-8.618599 h 0.10682 z m -0.21409,-17.023613 c -4.58151,0.0532 -8.29771,3.802041 -8.29771,8.40501 0,4.603013 3.7162,8.351628 8.29771,8.405014 z"
     id="path45" />
  <path
     class="cls-1"
     d="m 218.64432,39.748137 h -17.23718 v -0.106796 c 0,-4.752515 3.86611,-8.618603 8.61823,-8.618603 4.753,0 8.61895,3.866088 8.61895,8.618603 z m -17.02361,-0.21359 h 16.81003 c -0.051,-4.581615 -3.80249,-8.29822 -8.40537,-8.29822 -4.60279,0 -8.3513,3.716605 -8.40466,8.29822 z"
     id="path46" />
  <path
     class="cls-1"
     d="m 210.02537,30.285814 c -4.75212,0 -8.61823,-3.866048 -8.61823,-8.618604 v -0.106795 h 17.23718 v 0.106795 c 0,4.752556 -3.86595,8.618604 -8.61895,8.618604 z m -8.40466,-8.511804 c 0.0515,4.581687 3.80187,8.298215 8.40466,8.298215 4.60288,0 8.35158,-3.716528 8.40537,-8.298215 z"
     id="path47" />
  <path
     class="cls-1"
     d="m 229.55889,96.030702 h -0.10675 c -4.75264,0 -8.61863,-3.866081 -8.61863,-8.618604 0,-4.752515 3.86599,-8.618603 8.61863,-8.618603 h 0.10675 z m -0.21357,-17.023606 c -4.58147,0.05318 -8.29823,3.802009 -8.29823,8.405002 0,4.602973 3.71676,8.351584 8.29823,8.405015 z"
     id="path48" />
  <path
     class="cls-1"
     d="m 230.40288,96.030702 h -0.10715 V 78.793495 h 0.10715 c 4.75228,0 8.61823,3.866088 8.61823,8.618603 0,4.752523 -3.86595,8.618604 -8.61823,8.618604 z m 0.0937,-17.023606 v 16.810017 c 4.58165,-0.05324 8.29823,-3.802042 8.29823,-8.405015 0,-4.602993 -3.71658,-8.351594 -8.29823,-8.405002 z"
     id="path49" />
  <path
     class="cls-1"
     d="m 201.03322,152.79403 h -0.10715 V 135.5569 h 0.10715 c 4.7523,0 8.61824,3.86605 8.61824,8.61818 0,4.75301 -3.86594,8.61895 -8.61824,8.61895 z m 0.10643,-17.0347 v 16.81002 c 4.58223,-0.051 8.29823,-3.80165 8.29823,-8.40465 0,-4.60278 -3.716,-8.35203 -8.29823,-8.40537 z"
     id="path50" />
  <path
     class="cls-1"
     d="m 219.11418,152.79403 h -0.10682 c -4.75262,0 -8.61907,-3.86594 -8.61907,-8.61895 0,-4.75213 3.86645,-8.61818 8.61907,-8.61818 h 0.10682 z m -0.21409,-17.0347 c -4.58151,0.0516 -8.29771,3.80259 -8.29771,8.40537 0,4.603 3.7162,8.35158 8.29771,8.40465 z"
     id="path51" />
  <path
     class="cls-1"
     d="m 201.03322,133.86894 h -0.10715 v -17.2372 h 0.10715 c 4.7523,0 8.61824,3.86636 8.61824,8.61896 0,4.75212 -3.86594,8.61824 -8.61824,8.61824 z m 0.10643,-17.02321 v 16.80962 c 4.58223,-0.0514 8.29823,-3.80187 8.29823,-8.40465 0,-4.60293 -3.716,-8.35158 -8.29823,-8.40497 z"
     id="path52" />
  <path
     class="cls-1"
     d="m 219.11418,133.86894 h -0.10682 c -4.75262,0 -8.61907,-3.86612 -8.61907,-8.61824 0,-4.7526 3.86645,-8.61896 8.61907,-8.61896 h 0.10682 z m -0.21409,-17.02321 c -4.58151,0.051 -8.29771,3.80204 -8.29771,8.40497 0,4.60278 3.7162,8.3513 8.29771,8.40465 z"
     id="path53" />
  <path
     class="cls-1"
     d="m 218.64432,115.42545 h -17.23718 v -0.10715 c 0,-4.75212 3.86611,-8.61818 8.61823,-8.61818 4.753,0 8.61895,3.86606 8.61895,8.61818 z m -17.02361,-0.21357 h 16.81003 c -0.051,-4.58207 -3.80249,-8.29822 -8.40537,-8.29822 -4.60279,0 -8.3513,3.71615 -8.40466,8.29822 z"
     id="path54" />
  <path
     class="cls-1"
     d="m 210.02537,105.96291 c -4.75212,0 -8.61823,-3.86632 -8.61823,-8.618597 v -0.106794 h 17.23718 v 0.106794 c 0,4.752277 -3.86595,8.618597 -8.61895,8.618597 z m -8.40466,-8.511801 c 0.0515,4.581761 3.80187,8.298281 8.40466,8.298281 4.60288,0 8.35158,-3.71652 8.40537,-8.298281 z"
     id="path55" />
  <path
     class="cls-1"
     d="m 201.51356,20.353603 h -0.10642 V 3.1164153 h 0.10642 c 4.75302,0 8.61896,3.8660916 8.61896,8.6185837 0,4.752551 -3.86594,8.618604 -8.61896,8.618604 z M 201.62071,3.3300125 V 20.140009 c 4.58152,-0.05315 8.29823,-3.801964 8.29823,-8.40501 0,-4.6029734 -3.71671,-8.3515901 -8.29823,-8.4049865 z"
     id="path56" />
  <path
     class="cls-1"
     d="m 219.58368,20.353603 h -0.10637 c -4.75289,0 -8.61896,-3.866053 -8.61896,-8.618604 0,-4.7524921 3.86607,-8.6185837 8.61896,-8.6185837 h 0.10637 z M 219.37016,3.3300125 c -4.5814,0.053396 -8.29823,3.8020131 -8.29823,8.4049865 0,4.603046 3.71683,8.351658 8.29823,8.40501 z"
     id="path57" />
  <path
     class="cls-1"
     d="m 238.54065,77.586682 h -17.23719 v -0.1068 c 0,-4.75251 3.86623,-8.618598 8.61823,-8.618598 4.75301,0 8.61896,3.866088 8.61896,8.618598 z m -17.02354,-0.213594 h 16.80996 c -0.051,-4.581624 -3.80237,-8.298203 -8.40538,-8.298203 -4.60277,0 -8.3513,3.716579 -8.40458,8.298203 z"
     id="path58" />
  <path
     class="cls-1"
     d="m 229.92169,68.124372 c -4.752,0 -8.61823,-3.866081 -8.61823,-8.618604 v -0.106795 h 17.23719 v 0.106795 c 0,4.752523 -3.86595,8.618604 -8.61896,8.618604 z m -8.40458,-8.511809 c 0.051,4.581655 3.80181,8.29822 8.40458,8.29822 4.60301,0 8.35199,-3.716565 8.40538,-8.29822 z"
     id="path59" />
  <path
     class="cls-1"
     d="m 220.94034,58.192156 h -0.10683 V 40.954954 h 0.10683 c 4.7525,0 8.61855,3.866088 8.61855,8.618599 0,4.752522 -3.86605,8.618603 -8.61855,8.618603 z m 0.10675,-17.023613 v 16.810024 c 4.58139,-0.05324 8.29823,-3.802001 8.29823,-8.405014 0,-4.602969 -3.71684,-8.351585 -8.29823,-8.40501 z"
     id="path60" />
  <path
     class="cls-1"
     d="m 239.02111,58.192156 h -0.10675 c -4.75253,0 -8.61863,-3.866081 -8.61863,-8.618603 0,-4.752511 3.8661,-8.618599 8.61863,-8.618599 h 0.10675 z m -0.21358,-17.023613 c -4.58139,0.0532 -8.29823,3.802041 -8.29823,8.40501 0,4.603013 3.71684,8.351628 8.29823,8.405014 z"
     id="path61" />
  <path
     class="cls-1"
     d="m 238.54065,39.748137 h -17.23719 v -0.106796 c 0,-4.752515 3.86623,-8.618603 8.61823,-8.618603 4.75301,0 8.61896,3.866088 8.61896,8.618603 z m -17.02354,-0.21359 h 16.80996 c -0.051,-4.581615 -3.80237,-8.29822 -8.40538,-8.29822 -4.60277,0 -8.3513,3.716605 -8.40458,8.29822 z"
     id="path62" />
  <path
     class="cls-1"
     d="m 229.92169,30.285814 c -4.752,0 -8.61823,-3.866048 -8.61823,-8.618604 v -0.106795 h 17.23719 v 0.106795 c 0,4.752556 -3.86595,8.618604 -8.61896,8.618604 z m -8.40458,-8.511804 c 0.051,4.581687 3.80181,8.298215 8.40458,8.298215 4.60301,0 8.35199,-3.716528 8.40538,-8.298215 z"
     id="path63" />
  <path
     class="cls-1"
     d="m 201.03322,96.030702 h -0.10715 V 78.793495 h 0.10715 c 4.7523,0 8.61824,3.866088 8.61824,8.618603 0,4.752523 -3.86594,8.618604 -8.61824,8.618604 z m 0.10643,-17.023606 v 16.810017 c 4.58223,-0.05324 8.29823,-3.802042 8.29823,-8.405015 0,-4.602993 -3.716,-8.351594 -8.29823,-8.405002 z"
     id="path64" />
  <path
     class="cls-1"
     d="m 219.11418,96.030702 h -0.10682 c -4.75262,0 -8.61907,-3.866081 -8.61907,-8.618604 0,-4.752515 3.86645,-8.618603 8.61907,-8.618603 h 0.10682 z m -0.21409,-17.023606 c -4.58151,0.05318 -8.29771,3.802009 -8.29771,8.405002 0,4.602973 3.7162,8.351584 8.29771,8.405015 z"
     id="path65" />
  <path
     class="cls-1"
     d="m 229.92169,124.88778 c -4.752,0 -8.61823,-3.86605 -8.61823,-8.61907 v -0.10642 h 17.23719 v 0.10642 c 0,4.75302 -3.86595,8.61907 -8.61896,8.61907 z m -8.40458,-8.52291 c 0.051,4.58152 3.80181,8.29823 8.40458,8.29823 4.60301,0 8.35199,-3.71671 8.40538,-8.29823 z"
     id="path66" />
  <path
     class="cls-1"
     d="m 238.54065,134.3389 h -17.23719 v -0.10632 c 0,-4.75289 3.86623,-8.61902 8.61823,-8.61902 4.75301,0 8.61896,3.86613 8.61896,8.61902 z m -17.02354,-0.21359 h 16.80996 c -0.051,-4.5814 -3.80237,-8.29811 -8.40538,-8.29811 -4.60277,0 -8.3513,3.71671 -8.40458,8.29811 z"
     id="path67" />
  <path
     class="cls-1"
     d="m 239.02111,114.95538 h -0.10675 c -4.75253,0 -8.61863,-3.86594 -8.61863,-8.61891 0,-4.75203 3.8661,-8.618363 8.61863,-8.618363 h 0.10675 z m -0.21358,-17.034367 c -4.58139,0.05323 -8.29823,3.802247 -8.29823,8.405157 0,4.60293 3.71684,8.35145 8.29823,8.40465 z"
     id="path68" />
  <path
     class="cls-1"
     d="m 220.94034,114.95538 h -0.10683 V 97.718107 h 0.10683 c 4.7525,0 8.61855,3.866333 8.61855,8.618363 0,4.75297 -3.86605,8.61891 -8.61855,8.61891 z m 0.10675,-17.034367 v 16.809807 c 4.58139,-0.0513 8.29823,-3.80172 8.29823,-8.40465 0,-4.60291 -3.71684,-8.351752 -8.29823,-8.405157 z"
     id="path69" />
  <path
     class="cls-1"
     d="m 99.233071,20.834223 h -17.237 v -0.106799 c 0,-4.75255 3.86607,-8.6186 8.618581,-8.6186 4.752524,0 8.618419,3.86605 8.618419,8.6186 z M 82.209649,20.620618 h 16.809842 c -0.0521,-4.581676 -3.801834,-8.298205 -8.404839,-8.298205 -4.60299,0 -8.351602,3.716529 -8.405003,8.298205 z"
     id="path70" />
  <path
     class="cls-1"
     d="m 90.614652,11.3719 c -4.752511,0 -8.618581,-3.8660971 -8.618581,-8.6186022 V 2.6465027 h 17.237 v 0.1067951 c 0,4.7525051 -3.865895,8.6186022 -8.618419,8.6186022 z M 82.209649,2.8601001 c 0.05327,4.5816268 3.802013,8.2982099 8.405003,8.2982099 4.603005,0 8.351549,-3.7165831 8.404839,-8.2982099 z"
     id="path71" />
  <path
     class="cls-1"
     d="m 99.233071,58.672764 h -17.237 V 58.56597 c 0,-4.752555 3.86607,-8.618603 8.618581,-8.618603 4.752524,0 8.618419,3.866048 8.618419,8.618603 z M 82.209649,58.44846 h 16.809842 c -0.0521,-4.581615 -3.801834,-8.298215 -8.404839,-8.298215 -4.60299,0 -8.351602,3.7166 -8.405003,8.298215 z"
     id="path72" />
  <path
     class="cls-1"
     d="m 90.614652,49.210459 c -4.752511,0 -8.618581,-3.866138 -8.618581,-8.618604 v -0.106806 h 17.237 v 0.106806 c 0,4.752466 -3.865895,8.618604 -8.618419,8.618604 z M 82.209649,40.69865 c 0.05327,4.581602 3.802013,8.298203 8.405003,8.298203 4.603005,0 8.351549,-3.716601 8.404839,-8.298203 z"
     id="path73" />
  <path
     class="cls-1"
     d="M 81.63295,39.278243 H 81.526126 V 22.041036 h 0.106824 c 4.752526,0 8.618603,3.866048 8.618603,8.618604 0,4.752471 -3.866077,8.618603 -8.618603,8.618603 z m 0.106794,-17.034328 v 16.810012 c 4.581615,-0.05316 8.298191,-3.801969 8.298191,-8.405003 0,-4.602972 -3.716576,-8.351583 -8.298191,-8.405009 z"
     id="path74" />
  <path
     class="cls-1"
     d="m 99.714131,39.278243 h -0.10716 c -4.752445,0 -8.618523,-3.866132 -8.618523,-8.618603 0,-4.752556 3.866078,-8.618604 8.618523,-8.618604 h 0.10716 z m -0.2247,-17.034328 c -4.581509,0.05319 -8.298079,3.802037 -8.298079,8.405009 0,4.603034 3.71657,8.351645 8.298079,8.405003 z"
     id="path75" />
  <path
     class="cls-1"
     d="m 99.233071,153.2635 h -17.237 v -0.10655 c 0,-4.75244 3.86607,-8.61894 8.618581,-8.61894 4.752524,0 8.618419,3.8665 8.618419,8.61894 z m -17.023422,-0.2137 h 16.809842 c -0.0521,-4.58152 -3.801834,-8.29822 -8.404839,-8.29822 -4.60299,0 -8.351602,3.7167 -8.405003,8.29822 z"
     id="path76" />
  <path
     class="cls-1"
     d="m 90.614652,143.80117 c -4.752511,0 -8.618581,-3.86595 -8.618581,-8.61823 v -0.1071 h 17.237 v 0.1071 c 0,4.75228 -3.865895,8.61823 -8.618419,8.61823 z m -8.405003,-8.5118 c 0.05327,4.58212 3.802013,8.29823 8.405003,8.29823 4.603005,0 8.351549,-3.71611 8.404839,-8.29823 z"
     id="path77" />
  <path
     class="cls-1"
     d="m 99.233071,134.3389 h -17.237 v -0.10632 c 0,-4.75289 3.86607,-8.61902 8.618581,-8.61902 4.752524,0 8.618419,3.86613 8.618419,8.61902 z m -17.023422,-0.21359 h 16.809842 c -0.0521,-4.5814 -3.801834,-8.29811 -8.404839,-8.29811 -4.60299,0 -8.351602,3.71671 -8.405003,8.29811 z"
     id="path78" />
  <path
     class="cls-1"
     d="m 90.614652,124.88778 c -4.752511,0 -8.618581,-3.86605 -8.618581,-8.61907 v -0.10642 h 17.237 v 0.10642 c 0,4.75302 -3.865895,8.61907 -8.618419,8.61907 z m -8.405003,-8.52291 c 0.05327,4.58152 3.802013,8.29823 8.405003,8.29823 4.603005,0 8.351549,-3.71671 8.404839,-8.29823 z"
     id="path79" />
  <path
     class="cls-1"
     d="M 81.63295,114.95538 H 81.526126 V 97.718107 h 0.106824 c 4.752526,0 8.618603,3.866333 8.618603,8.618363 0,4.75297 -3.866077,8.61891 -8.618603,8.61891 z m 0.106794,-17.034367 v 16.809807 c 4.581615,-0.0513 8.298191,-3.80172 8.298191,-8.40465 0,-4.60291 -3.716576,-8.351752 -8.298191,-8.405157 z"
     id="path80" />
  <path
     class="cls-1"
     d="m 99.714131,114.95538 h -0.10716 c -4.752445,0 -8.618523,-3.86594 -8.618523,-8.61891 0,-4.75203 3.866078,-8.618363 8.618523,-8.618363 h 0.10716 z m -0.2247,-17.034367 c -4.581509,0.05323 -8.298079,3.802247 -8.298079,8.405157 0,4.60293 3.71657,8.35145 8.298079,8.40465 z"
     id="path81" />
  <path
     class="cls-1"
     d="m 119.61046,20.353603 h -0.10726 c -4.752,0 -8.61823,-3.866053 -8.61823,-8.618604 0,-4.7524921 3.86623,-8.6185837 8.61823,-8.6185837 h 0.10726 z M 119.39678,3.3300125 c -4.58173,0.053396 -8.29817,3.8020131 -8.29817,8.4049865 0,4.603046 3.71644,8.351658 8.29817,8.40501 z"
     id="path82" />
  <path
     class="cls-1"
     d="m 101.52924,20.353603 h -0.10643 V 3.1164153 h 0.10643 c 4.75296,0 8.6189,3.8660916 8.6189,8.6185837 0,4.752551 -3.86594,8.618604 -8.6189,8.618604 z m 0.1071,-17.0235905 V 20.140009 c 4.58152,-0.05315 8.29822,-3.801964 8.29822,-8.40501 0,-4.6029734 -3.7167,-8.3515901 -8.29822,-8.4049865 z"
     id="path83" />
  <path
     class="cls-1"
     d="m 119.61046,77.116757 h -0.10726 c -4.752,0 -8.61823,-3.866093 -8.61823,-8.618571 0,-4.752556 3.86623,-8.618604 8.61823,-8.618604 h 0.10726 z m -0.21368,-17.034302 c -4.58173,0.05318 -8.29817,3.802043 -8.29817,8.405015 0,4.603013 3.71644,8.351625 8.29817,8.405009 z"
     id="path84" />
  <path
     class="cls-1"
     d="m 101.52924,77.116757 h -0.10643 V 59.879582 h 0.10643 c 4.75296,0 8.6189,3.866048 8.6189,8.618604 0,4.752478 -3.86594,8.618571 -8.6189,8.618571 z m 0.1071,-17.034302 v 16.810024 c 4.58152,-0.05318 8.29822,-3.801996 8.29822,-8.405009 0,-4.602972 -3.7167,-8.351584 -8.29822,-8.405015 z"
     id="path85" />
  <path
     class="cls-1"
     d="m 110.52144,49.210459 c -4.75212,0 -8.61817,-3.866138 -8.61817,-8.618604 v -0.106806 h 17.23713 v 0.106806 c 0,4.752466 -3.86594,8.618604 -8.61896,8.618604 z m -8.41535,-8.511809 c 0.051,4.581602 3.80219,8.298203 8.40498,8.298203 4.60293,0 8.35145,-3.716601 8.40505,-8.298203 z"
     id="path86" />
  <path
     class="cls-1"
     d="M 119.1404,58.672764 H 101.90327 V 58.56597 c 0,-4.752555 3.86605,-8.618603 8.61817,-8.618603 4.75302,0 8.61896,3.866048 8.61896,8.618603 z M 102.10609,58.44846 h 16.81003 c -0.051,-4.581615 -3.80212,-8.298215 -8.40505,-8.298215 -4.60279,0 -8.35142,3.7166 -8.40498,8.298215 z"
     id="path87" />
  <path
     class="cls-1"
     d="m 119.61046,39.278243 h -0.10726 c -4.752,0 -8.61823,-3.866132 -8.61823,-8.618603 0,-4.752556 3.86623,-8.618604 8.61823,-8.618604 h 0.10726 z m -0.21368,-17.034328 c -4.58173,0.05319 -8.29817,3.802037 -8.29817,8.405009 0,4.603034 3.71644,8.351645 8.29817,8.405003 z"
     id="path88" />
  <path
     class="cls-1"
     d="m 101.52924,39.278243 h -0.10643 V 22.041036 h 0.10643 c 4.75296,0 8.6189,3.866048 8.6189,8.618604 0,4.752471 -3.86594,8.618603 -8.6189,8.618603 z m 0.1071,-17.034328 v 16.810012 c 4.58152,-0.05316 8.29822,-3.801969 8.29822,-8.405003 0,-4.602972 -3.7167,-8.351583 -8.29822,-8.405009 z"
     id="path89" />
  <path
     class="cls-1"
     d="m 119.61046,96.030702 h -0.10726 c -4.752,0 -8.61823,-3.866081 -8.61823,-8.618604 0,-4.752515 3.86623,-8.618603 8.61823,-8.618603 h 0.10726 z m -0.21368,-17.023606 c -4.58173,0.05318 -8.29817,3.802009 -8.29817,8.405002 0,4.602973 3.71644,8.351584 8.29817,8.405015 z"
     id="path90" />
  <path
     class="cls-1"
     d="m 101.52924,96.030702 h -0.10643 V 78.793495 h 0.10643 c 4.75296,0 8.6189,3.866088 8.6189,8.618603 0,4.752523 -3.86594,8.618604 -8.6189,8.618604 z m 0.1071,-17.023606 v 16.810017 c 4.58152,-0.05324 8.29822,-3.802042 8.29822,-8.405015 0,-4.602993 -3.7167,-8.351594 -8.29822,-8.405002 z"
     id="path91" />
  <path
     class="cls-1"
     d="m 119.61046,152.79403 h -0.10726 c -4.752,0 -8.61823,-3.86594 -8.61823,-8.61895 0,-4.75213 3.86623,-8.61818 8.61823,-8.61818 h 0.10726 z m -0.21368,-17.0347 c -4.58173,0.0516 -8.29817,3.80259 -8.29817,8.40537 0,4.603 3.71644,8.35158 8.29817,8.40465 z"
     id="path92" />
  <path
     class="cls-1"
     d="m 101.52924,152.79403 h -0.10643 V 135.5569 h 0.10643 c 4.75296,0 8.6189,3.86605 8.6189,8.61818 0,4.75301 -3.86594,8.61895 -8.6189,8.61895 z m 0.1071,-17.0347 v 16.81002 c 4.58152,-0.051 8.29822,-3.80165 8.29822,-8.40465 0,-4.60278 -3.7167,-8.35203 -8.29822,-8.40537 z"
     id="path93" />
  <path
     class="cls-1"
     d="m 110.52144,124.88778 c -4.75212,0 -8.61817,-3.86605 -8.61817,-8.61907 v -0.10642 h 17.23713 v 0.10642 c 0,4.75302 -3.86594,8.61907 -8.61896,8.61907 z m -8.41535,-8.52291 c 0.051,4.58152 3.80219,8.29823 8.40498,8.29823 4.60293,0 8.35145,-3.71671 8.40505,-8.29823 z"
     id="path94" />
  <path
     class="cls-1"
     d="m 119.1404,134.3389 h -17.23713 v -0.10632 c 0,-4.75289 3.86605,-8.61902 8.61817,-8.61902 4.75302,0 8.61896,3.86613 8.61896,8.61902 z m -17.03431,-0.21359 h 16.81003 c -0.051,-4.5814 -3.80212,-8.29811 -8.40505,-8.29811 -4.60279,0 -8.35142,3.71671 -8.40498,8.29811 z"
     id="path95" />
  <path
     class="cls-1"
     d="m 119.61046,114.95538 h -0.10726 c -4.752,0 -8.61823,-3.86594 -8.61823,-8.61891 0,-4.75203 3.86623,-8.618363 8.61823,-8.618363 h 0.10726 z m -0.21368,-17.034367 c -4.58173,0.05323 -8.29817,3.802247 -8.29817,8.405157 0,4.60293 3.71644,8.35145 8.29817,8.40465 z"
     id="path96" />
  <path
     class="cls-1"
     d="m 101.52924,114.95538 h -0.10643 V 97.718107 h 0.10643 c 4.75296,0 8.6189,3.866333 8.6189,8.618363 0,4.75297 -3.86594,8.61891 -8.6189,8.61891 z m 0.1071,-17.034367 v 16.809807 c 4.58152,-0.0513 8.29822,-3.80172 8.29822,-8.40465 0,-4.60291 -3.7167,-8.351752 -8.29822,-8.405157 z"
     id="path97" />
  <path
     class="cls-1"
     d="m 130.05502,20.353603 h -0.10643 c -4.753,0 -8.61894,-3.866053 -8.61894,-8.618604 0,-4.7524921 3.86594,-8.6185837 8.61894,-8.6185837 h 0.10643 z M 129.84139,3.3300125 c -4.58146,0.053396 -8.29817,3.8020131 -8.29817,8.4049865 0,4.603046 3.71671,8.351658 8.29817,8.40501 z"
     id="path98" />
  <path
     class="cls-1"
     d="m 130.88785,20.353603 h -0.10642 V 3.1164153 h 0.10642 c 4.75301,0 8.61906,3.8660916 8.61906,8.6185837 0,4.752551 -3.86605,8.618604 -8.61906,8.618604 z M 130.995,3.3300125 V 20.140009 c 4.58151,-0.05315 8.29823,-3.801964 8.29823,-8.40501 0,-4.6029734 -3.71672,-8.3515901 -8.29823,-8.4049865 z"
     id="path99" />
  <path
     class="cls-1"
     d="m 121.4368,77.116757 h -0.10715 V 59.879582 h 0.10715 c 4.752,0 8.61822,3.866048 8.61822,8.618604 0,4.752478 -3.86622,8.618571 -8.61822,8.618571 z m 0.0938,-17.034302 v 16.810024 c 4.58141,-0.05318 8.29822,-3.801996 8.29822,-8.405009 0,-4.602972 -3.71681,-8.351584 -8.29822,-8.405015 z"
     id="path100" />
  <path
     class="cls-1"
     d="m 139.50691,77.116757 h -0.10726 c -4.75212,0 -8.61822,-3.866093 -8.61822,-8.618571 0,-4.752556 3.8661,-8.618604 8.61822,-8.618604 h 0.10726 z m -0.21368,-17.034302 c -4.58152,0.05318 -8.29823,3.802043 -8.29823,8.405015 0,4.603013 3.71671,8.351625 8.29823,8.405009 z"
     id="path101" />
  <path
     class="cls-1"
     d="m 121.4368,58.192156 h -0.10715 V 40.954954 h 0.10715 c 4.752,0 8.61822,3.866088 8.61822,8.618599 0,4.752522 -3.86622,8.618603 -8.61822,8.618603 z m 0.0937,-17.023613 v 16.810024 c 4.58141,-0.05324 8.29822,-3.802001 8.29822,-8.405014 0,-4.602969 -3.71681,-8.351585 -8.29822,-8.40501 z"
     id="path102" />
  <path
     class="cls-1"
     d="m 139.50691,58.192156 h -0.10726 c -4.75212,0 -8.61822,-3.866081 -8.61822,-8.618603 0,-4.752511 3.8661,-8.618599 8.61822,-8.618599 h 0.10726 z m -0.21368,-17.023613 c -4.58152,0.0532 -8.29823,3.802041 -8.29823,8.40501 0,4.603013 3.71671,8.351628 8.29823,8.405014 z"
     id="path103" />
  <path
     class="cls-1"
     d="M 139.03673,39.748137 H 121.7996 v -0.106796 c 0,-4.752515 3.86605,-8.618603 8.6189,-8.618603 4.75229,0 8.61823,3.866088 8.61823,8.618603 z m -17.02356,-0.21359 h 16.80998 c -0.051,-4.581615 -3.80171,-8.29822 -8.40465,-8.29822 -4.6035,0 -8.35202,3.716605 -8.40533,8.29822 z"
     id="path104" />
  <path
     class="cls-1"
     d="m 130.4185,30.285814 c -4.75285,0 -8.6189,-3.866048 -8.6189,-8.618604 v -0.106795 h 17.23713 v 0.106795 c 0,4.752556 -3.86594,8.618604 -8.61823,8.618604 z m -8.40533,-8.511804 c 0.0513,4.581687 3.80183,8.298215 8.40533,8.298215 4.60294,0 8.35158,-3.716528 8.40465,-8.298215 z"
     id="path105" />
  <path
     class="cls-1"
     d="m 130.05502,96.030702 h -0.10643 c -4.753,0 -8.61894,-3.866081 -8.61894,-8.618604 0,-4.752515 3.86594,-8.618603 8.61894,-8.618603 h 0.10643 z m -0.21363,-17.023606 c -4.58146,0.05318 -8.29817,3.802009 -8.29817,8.405002 0,4.602973 3.71671,8.351584 8.29817,8.405015 z"
     id="path106" />
  <path
     class="cls-1"
     d="m 130.88785,96.030702 h -0.10642 V 78.793495 h 0.10642 c 4.75301,0 8.61906,3.866088 8.61906,8.618603 0,4.752523 -3.86605,8.618604 -8.61906,8.618604 z M 130.995,79.007096 v 16.810017 c 4.58151,-0.05324 8.29823,-3.802042 8.29823,-8.405015 0,-4.602993 -3.71672,-8.351594 -8.29823,-8.405002 z"
     id="path107" />
  <path
     class="cls-1"
     d="m 121.4368,152.79403 h -0.10715 V 135.5569 h 0.10715 c 4.752,0 8.61822,3.86605 8.61822,8.61818 0,4.75301 -3.86622,8.61895 -8.61822,8.61895 z m 0.0937,-17.0347 v 16.81002 c 4.58141,-0.051 8.29822,-3.80165 8.29822,-8.40465 0,-4.60278 -3.71681,-8.35203 -8.29822,-8.40537 z"
     id="path108" />
  <path
     class="cls-1"
     d="m 139.50691,152.79403 h -0.10726 c -4.75212,0 -8.61822,-3.86594 -8.61822,-8.61895 0,-4.75213 3.8661,-8.61818 8.61822,-8.61818 h 0.10726 z m -0.21368,-17.0347 c -4.58152,0.0516 -8.29823,3.80259 -8.29823,8.40537 0,4.603 3.71671,8.35158 8.29823,8.40465 z"
     id="path109" />
  <path
     class="cls-1"
     d="m 121.4368,133.86894 h -0.10715 v -17.2372 h 0.10715 c 4.752,0 8.61822,3.86636 8.61822,8.61896 0,4.75212 -3.86622,8.61824 -8.61822,8.61824 z m 0.0937,-17.02321 v 16.80962 c 4.58141,-0.0514 8.29822,-3.80187 8.29822,-8.40465 0,-4.60293 -3.71681,-8.35158 -8.29822,-8.40497 z"
     id="path110" />
  <path
     class="cls-1"
     d="m 139.50691,133.86894 h -0.10726 c -4.75212,0 -8.61822,-3.86612 -8.61822,-8.61824 0,-4.7526 3.8661,-8.61896 8.61822,-8.61896 h 0.10726 z m -0.21368,-17.02321 c -4.58152,0.051 -8.29823,3.80204 -8.29823,8.40497 0,4.60278 3.71671,8.3513 8.29823,8.40465 z"
     id="path111" />
  <path
     class="cls-1"
     d="M 139.03673,115.42545 H 121.7996 v -0.10715 c 0,-4.75212 3.86605,-8.61818 8.6189,-8.61818 4.75229,0 8.61823,3.86606 8.61823,8.61818 z m -17.02356,-0.21357 h 16.80998 c -0.051,-4.58207 -3.80171,-8.29822 -8.40465,-8.29822 -4.6035,0 -8.35202,3.71615 -8.40533,8.29822 z"
     id="path112" />
  <path
     class="cls-1"
     d="m 130.4185,105.96291 c -4.75285,0 -8.6189,-3.86632 -8.6189,-8.618597 v -0.106794 h 17.23713 v 0.106794 c 0,4.752277 -3.86594,8.618597 -8.61823,8.618597 z m -8.40533,-8.511801 c 0.0513,4.581761 3.80183,8.298281 8.40533,8.298281 4.60294,0 8.35158,-3.71652 8.40465,-8.298281 z"
     id="path113" />
  <path
     class="cls-1"
     d="m 141.33312,20.353603 h -0.10715 V 3.1164153 h 0.10715 c 4.75213,0 8.61824,3.8660916 8.61824,8.6185837 0,4.752551 -3.86611,8.618604 -8.61824,8.618604 z M 141.43955,3.3300125 V 20.140009 c 4.58212,-0.05315 8.29822,-3.801964 8.29822,-8.40501 0,-4.6029734 -3.7161,-8.3515901 -8.29822,-8.4049865 z"
     id="path114" />
  <path
     class="cls-1"
     d="m 159.41391,20.353603 h -0.10682 c -4.75212,0 -8.6185,-3.866053 -8.6185,-8.618604 0,-4.7524921 3.86638,-8.6185837 8.6185,-8.6185837 h 0.10682 z M 159.20039,3.3300125 c -4.58192,0.053396 -8.29795,3.8020131 -8.29795,8.4049865 0,4.603046 3.71603,8.351658 8.29795,8.40501 z"
     id="path115" />
  <path
     class="cls-1"
     d="m 158.94422,77.586682 h -17.23719 v -0.1068 c 0,-4.75251 3.86595,-8.618598 8.61823,-8.618598 4.75285,0 8.61896,3.866088 8.61896,8.618598 z M 141.9095,77.373088 h 16.80998 c -0.051,-4.581624 -3.80159,-8.298203 -8.40465,-8.298203 -4.60289,0 -8.35162,3.716579 -8.40533,8.298203 z"
     id="path116" />
  <path
     class="cls-1"
     d="m 150.31483,68.124372 c -4.75273,0 -8.61891,-3.866081 -8.61891,-8.618604 v -0.106795 h 17.23713 v 0.106795 c 0,4.752523 -3.86594,8.618604 -8.61822,8.618604 z m -8.40533,-8.511809 c 0.0514,4.581655 3.80244,8.29822 8.40533,8.29822 4.60306,0 8.35158,-3.716565 8.40465,-8.29822 z"
     id="path117" />
  <path
     class="cls-1"
     d="m 141.33312,58.192156 h -0.10715 V 40.954954 h 0.10715 c 4.75213,0 8.61824,3.866088 8.61824,8.618599 0,4.752522 -3.86611,8.618603 -8.61824,8.618603 z m 0.10643,-17.023613 v 16.810024 c 4.58212,-0.05324 8.29822,-3.802001 8.29822,-8.405014 0,-4.602969 -3.7161,-8.351585 -8.29822,-8.40501 z"
     id="path118" />
  <path
     class="cls-1"
     d="m 159.41391,58.192156 h -0.10682 c -4.75212,0 -8.6185,-3.866081 -8.6185,-8.618603 0,-4.752511 3.86638,-8.618599 8.6185,-8.618599 h 0.10682 z m -0.21352,-17.023613 c -4.58192,0.0532 -8.29795,3.802041 -8.29795,8.40501 0,4.603013 3.71603,8.351628 8.29795,8.405014 z"
     id="path119" />
  <path
     class="cls-1"
     d="m 158.94422,39.748137 h -17.23719 v -0.106796 c 0,-4.752515 3.86595,-8.618603 8.61823,-8.618603 4.75285,0 8.61896,3.866088 8.61896,8.618603 z m -17.03472,-0.21359 h 16.80998 c -0.051,-4.581615 -3.80159,-8.29822 -8.40465,-8.29822 -4.60289,0 -8.35162,3.716605 -8.40533,8.29822 z"
     id="path120" />
  <path
     class="cls-1"
     d="m 150.31483,30.285814 c -4.75273,0 -8.61891,-3.866048 -8.61891,-8.618604 v -0.106795 h 17.23713 v 0.106795 c 0,4.752556 -3.86594,8.618604 -8.61822,8.618604 z M 141.9095,21.77401 c 0.0514,4.581687 3.80244,8.298215 8.40533,8.298215 4.60306,0 8.35158,-3.716528 8.40465,-8.298215 z"
     id="path121" />
  <path
     class="cls-1"
     d="m 141.33312,96.030702 h -0.10715 V 78.793495 h 0.10715 c 4.75213,0 8.61824,3.866088 8.61824,8.618603 0,4.752523 -3.86611,8.618604 -8.61824,8.618604 z m 0.10643,-17.023606 v 16.810017 c 4.58212,-0.05324 8.29822,-3.802042 8.29822,-8.405015 0,-4.602993 -3.7161,-8.351594 -8.29822,-8.405002 z"
     id="path122" />
  <path
     class="cls-1"
     d="m 159.41391,96.030702 h -0.10682 c -4.75212,0 -8.6185,-3.866081 -8.6185,-8.618604 0,-4.752515 3.86638,-8.618603 8.6185,-8.618603 h 0.10682 z m -0.21352,-17.023606 c -4.58192,0.05318 -8.29795,3.802009 -8.29795,8.405002 0,4.602973 3.71603,8.351584 8.29795,8.405015 z"
     id="path123" />
  <path
     class="cls-1"
     d="m 158.94422,153.2635 h -17.23719 v -0.10655 c 0,-4.75244 3.86595,-8.61894 8.61823,-8.61894 4.75285,0 8.61896,3.8665 8.61896,8.61894 z m -17.03472,-0.2137 h 16.80998 c -0.051,-4.58152 -3.80159,-8.29822 -8.40465,-8.29822 -4.60289,0 -8.35162,3.7167 -8.40533,8.29822 z"
     id="path124" />
  <path
     class="cls-1"
     d="m 150.31483,143.80117 c -4.75273,0 -8.61891,-3.86595 -8.61891,-8.61823 v -0.1071 h 17.23713 v 0.1071 c 0,4.75228 -3.86594,8.61823 -8.61822,8.61823 z m -8.40533,-8.5118 c 0.0514,4.58212 3.80244,8.29823 8.40533,8.29823 4.60306,0 8.35158,-3.71611 8.40465,-8.29823 z"
     id="path125" />
  <path
     class="cls-1"
     d="m 141.33312,133.86894 h -0.10715 v -17.2372 h 0.10715 c 4.75213,0 8.61824,3.86636 8.61824,8.61896 0,4.75212 -3.86611,8.61824 -8.61824,8.61824 z m 0.10643,-17.02321 v 16.80962 c 4.58212,-0.0514 8.29822,-3.80187 8.29822,-8.40465 0,-4.60293 -3.7161,-8.35158 -8.29822,-8.40497 z"
     id="path126" />
  <path
     class="cls-1"
     d="m 159.41391,133.86894 h -0.10682 c -4.75212,0 -8.6185,-3.86612 -8.6185,-8.61824 0,-4.7526 3.86638,-8.61896 8.6185,-8.61896 h 0.10682 z m -0.21352,-17.02321 c -4.58192,0.051 -8.29795,3.80204 -8.29795,8.40497 0,4.60278 3.71603,8.3513 8.29795,8.40465 z"
     id="path127" />
  <path
     class="cls-1"
     d="m 158.94422,115.42545 h -17.23719 v -0.10715 c 0,-4.75212 3.86595,-8.61818 8.61823,-8.61818 4.75285,0 8.61896,3.86606 8.61896,8.61818 z m -17.03472,-0.21357 h 16.80998 c -0.051,-4.58207 -3.80159,-8.29822 -8.40465,-8.29822 -4.60289,0 -8.35162,3.71615 -8.40533,8.29822 z"
     id="path128" />
  <path
     class="cls-1"
     d="m 150.31483,105.96291 c -4.75273,0 -8.61891,-3.86632 -8.61891,-8.618597 v -0.106794 h 17.23713 v 0.106794 c 0,4.752277 -3.86594,8.618597 -8.61822,8.618597 z m -8.40533,-8.511801 c 0.0514,4.581761 3.80244,8.298281 8.40533,8.298281 4.60306,0 8.35158,-3.71652 8.40465,-8.298281 z"
     id="path129" />
  <path
     class="cls-1"
     d="M 19.625995,58.672764 H 2.3888073 V 58.56597 c 0,-4.752555 3.8660917,-8.618603 8.6185847,-8.618603 4.75255,0 8.618603,3.866048 8.618603,8.618603 z M 2.6023989,58.44846 H 19.412401 c -0.0532,-4.581615 -3.801964,-8.298215 -8.405009,-8.298215 -4.6029743,0 -8.351584,3.7166 -8.4049931,8.298215 z"
     id="path130" />
  <path
     class="cls-1"
     d="m 11.007392,49.210459 c -4.752493,0 -8.6185847,-3.866138 -8.6185847,-8.618604 V 40.485049 H 19.625995 v 0.106806 c 0,4.752466 -3.866053,8.618604 -8.618603,8.618604 z M 2.6023989,40.69865 c 0.053316,4.581602 3.8020188,8.298203 8.4049931,8.298203 4.603045,0 8.351657,-3.716601 8.405009,-8.298203 z"
     id="path131" />
  <path
     class="cls-1"
     d="M 19.625995,134.3389 H 2.3888073 v -0.10632 c 0,-4.75289 3.8660917,-8.61902 8.6185847,-8.61902 4.75255,0 8.618603,3.86613 8.618603,8.61902 z M 2.6023989,134.12531 H 19.412401 c -0.0532,-4.5814 -3.801964,-8.29811 -8.405009,-8.29811 -4.6029743,0 -8.351584,3.71671 -8.4049931,8.29811 z"
     id="path132" />
  <path
     class="cls-1"
     d="m 11.007392,124.88778 c -4.752493,0 -8.6185847,-3.86605 -8.6185847,-8.61907 v -0.10642 H 19.625995 v 0.10642 c 0,4.75302 -3.866053,8.61907 -8.618603,8.61907 z m -8.4049931,-8.52291 c 0.053316,4.58152 3.8020188,8.29823 8.4049931,8.29823 4.603045,0 8.351657,-3.71671 8.405009,-8.29823 z"
     id="path133" />
  <path
     class="cls-1"
     d="M 2.0256899,114.95538 H 1.9188948 V 97.718107 h 0.1067951 c 4.752482,0 8.6186031,3.866333 8.6186031,8.618363 0,4.75297 -3.8661211,8.61891 -8.6186031,8.61891 z M 2.1324922,97.921013 v 16.809807 c 4.581604,-0.0513 8.2982118,-3.80172 8.2982118,-8.40465 0,-4.60291 -3.7166078,-8.351752 -8.2982118,-8.405157 z"
     id="path134" />
  <path
     class="cls-1"
     d="m 20.106615,114.95538 h -0.106799 c -4.75255,0 -8.618598,-3.86594 -8.618598,-8.61891 0,-4.75203 3.866048,-8.618363 8.618598,-8.618363 h 0.106799 z M 19.89301,97.921013 c -4.581676,0.05323 -8.298204,3.802247 -8.298204,8.405157 0,4.60293 3.716528,8.35145 8.298204,8.40465 z"
     id="path135" />
  <path
     class="cls-1"
     d="m 40.003082,20.353603 h -0.10684 c -4.752477,0 -8.618598,-3.866053 -8.618598,-8.618604 0,-4.7524921 3.866121,-8.6185837 8.618598,-8.6185837 h 0.10684 z M 39.789442,3.3300125 c -4.581598,0.053396 -8.298169,3.8020131 -8.298169,8.4049865 0,4.603046 3.716571,8.351658 8.298169,8.40501 z"
     id="path136" />
  <path
     class="cls-1"
     d="M 21.922188,20.353603 H 21.815394 V 3.1164153 h 0.106794 c 4.752484,0 8.618604,3.8660916 8.618604,8.6185837 0,4.752551 -3.86612,8.618604 -8.618604,8.618604 z M 22.028983,3.3300125 V 20.140009 c 4.581615,-0.05315 8.298188,-3.801964 8.298188,-8.40501 0,-4.6029734 -3.716573,-8.3515901 -8.298188,-8.4049865 z"
     id="path137" />
  <path
     class="cls-1"
     d="m 30.914533,49.210459 c -4.752471,0 -8.618603,-3.866138 -8.618603,-8.618604 v -0.106806 h 17.237207 v 0.106806 c 0,4.752466 -3.866042,8.618604 -8.618604,8.618604 z M 22.50953,40.69865 c 0.05323,4.581602 3.802043,8.298203 8.405003,8.298203 4.603046,0 8.351657,-3.716601 8.40501,-8.298203 z"
     id="path138" />
  <path
     class="cls-1"
     d="M 39.533137,58.672764 H 22.29593 V 58.56597 c 0,-4.752555 3.866132,-8.618603 8.618603,-8.618603 4.752562,0 8.618604,3.866048 8.618604,8.618603 z M 22.50953,58.44846 h 16.810013 c -0.0532,-4.581615 -3.801964,-8.298215 -8.40501,-8.298215 -4.60296,0 -8.351561,3.7166 -8.405003,8.298215 z"
     id="path139" />
  <path
     class="cls-1"
     d="m 40.003082,39.278243 h -0.10684 c -4.752477,0 -8.618598,-3.866132 -8.618598,-8.618603 0,-4.752556 3.866121,-8.618604 8.618598,-8.618604 h 0.10684 z m -0.21364,-17.034328 c -4.581598,0.05319 -8.298169,3.802037 -8.298169,8.405009 0,4.603034 3.716571,8.351645 8.298169,8.405003 z"
     id="path140" />
  <path
     class="cls-1"
     d="M 21.922188,39.278243 H 21.815394 V 22.041036 h 0.106794 c 4.752484,0 8.618604,3.866048 8.618604,8.618604 0,4.752471 -3.86612,8.618603 -8.618604,8.618603 z m 0.106795,-17.034328 v 16.810012 c 4.581615,-0.05316 8.298188,-3.801969 8.298188,-8.405003 0,-4.602972 -3.716573,-8.351583 -8.298188,-8.405009 z"
     id="path141" />
  <path
     class="cls-1"
     d="m 40.003082,152.79403 h -0.10684 c -4.752477,0 -8.618598,-3.86594 -8.618598,-8.61895 0,-4.75213 3.866121,-8.61818 8.618598,-8.61818 h 0.10684 z m -0.21364,-17.0347 c -4.581598,0.0516 -8.298169,3.80259 -8.298169,8.40537 0,4.603 3.716571,8.35158 8.298169,8.40465 z"
     id="path142" />
  <path
     class="cls-1"
     d="M 21.922188,152.79403 H 21.815394 V 135.5569 h 0.106794 c 4.752484,0 8.618604,3.86605 8.618604,8.61818 0,4.75301 -3.86612,8.61895 -8.618604,8.61895 z m 0.106795,-17.0347 v 16.81002 c 4.581615,-0.051 8.298188,-3.80165 8.298188,-8.40465 0,-4.60278 -3.716573,-8.35203 -8.298188,-8.40537 z"
     id="path143" />
  <path
     class="cls-1"
     d="m 30.914533,124.88778 c -4.752471,0 -8.618603,-3.86605 -8.618603,-8.61907 v -0.10642 h 17.237207 v 0.10642 c 0,4.75302 -3.866042,8.61907 -8.618604,8.61907 z m -8.405003,-8.52291 c 0.05323,4.58152 3.802043,8.29823 8.405003,8.29823 4.603046,0 8.351657,-3.71671 8.40501,-8.29823 z"
     id="path144" />
  <path
     class="cls-1"
     d="M 39.533137,134.3389 H 22.29593 v -0.10632 c 0,-4.75289 3.866132,-8.61902 8.618603,-8.61902 4.752562,0 8.618604,3.86613 8.618604,8.61902 z M 22.50953,134.12531 h 16.810013 c -0.0532,-4.5814 -3.801964,-8.29811 -8.40501,-8.29811 -4.60296,0 -8.351561,3.71671 -8.405003,8.29811 z"
     id="path145" />
  <path
     class="cls-1"
     d="m 40.003082,114.95538 h -0.10684 c -4.752477,0 -8.618598,-3.86594 -8.618598,-8.61891 0,-4.75203 3.866121,-8.618363 8.618598,-8.618363 h 0.10684 z m -0.21364,-17.034367 c -4.581598,0.05323 -8.298169,3.802247 -8.298169,8.405157 0,4.60293 3.716571,8.35145 8.298169,8.40465 z"
     id="path146" />
  <path
     class="cls-1"
     d="M 21.922188,114.95538 H 21.815394 V 97.718107 h 0.106794 c 4.752484,0 8.618604,3.866333 8.618604,8.618363 0,4.75297 -3.86612,8.61891 -8.618604,8.61891 z m 0.106795,-17.034367 v 16.809807 c 4.581615,-0.0513 8.298188,-3.80172 8.298188,-8.40465 0,-4.60291 -3.716573,-8.351752 -8.298188,-8.405157 z"
     id="path147" />
  <path
     class="cls-1"
     d="M 50.447944,20.353603 H 50.34115 c -4.752566,0 -8.618603,-3.866053 -8.618603,-8.618604 0,-4.7524921 3.866037,-8.6185837 8.618603,-8.6185837 h 0.106794 z M 50.234323,3.3300125 c -4.581655,0.053396 -8.298187,3.8020131 -8.298187,8.4049865 0,4.603046 3.716532,8.351658 8.298187,8.40501 z"
     id="path148" />
  <path
     class="cls-1"
     d="M 51.280949,20.353603 H 51.174155 V 3.1164153 h 0.106794 c 4.752518,0 8.618603,3.8660916 8.618603,8.6185837 0,4.752551 -3.866085,8.618604 -8.618603,8.618604 z M 51.387743,3.3300125 V 20.140009 c 4.581644,-0.05315 8.298216,-3.801964 8.298216,-8.40501 0,-4.6029734 -3.716572,-8.3515901 -8.298216,-8.4049865 z"
     id="path149" />
  <path
     class="cls-1"
     d="m 10.644293,20.353603 h -0.106795 c -4.752503,0 -8.6186032,-3.866053 -8.6186032,-8.618604 0,-4.7524921 3.8661002,-8.6185837 8.6186032,-8.6185837 h 0.106795 z M 10.430704,3.3300125 c -4.5816321,0.053394 -8.2982118,3.8020131 -8.2982118,8.4049865 0,4.603046 3.7165797,8.351658 8.2982118,8.40501 z"
     id="path150" />
  <path
     class="cls-1"
     d="M 11.488012,20.353603 H 11.381218 V 3.1164153 h 0.106794 c 4.752478,0 8.618603,3.8660916 8.618603,8.6185837 0,4.752551 -3.866125,8.618604 -8.618603,8.618604 z M 11.594806,3.3300125 V 20.140009 c 4.581603,-0.05315 8.298204,-3.801964 8.298204,-8.40501 0,-4.6029734 -3.716601,-8.3515901 -8.298204,-8.4049865 z"
     id="path151" />
  <path
     class="cls-1"
     d="M 41.829341,58.192156 H 41.722547 V 40.954954 h 0.106794 c 4.752483,0 8.618603,3.866088 8.618603,8.618599 0,4.752522 -3.86612,8.618603 -8.618603,8.618603 z m 0.106795,-17.023613 v 16.810024 c 4.581603,-0.05324 8.298187,-3.802001 8.298187,-8.405014 0,-4.602969 -3.716584,-8.351585 -8.298187,-8.40501 z"
     id="path152" />
  <path
     class="cls-1"
     d="m 59.91023,58.192156 h -0.106795 c -4.752517,0 -8.618598,-3.866081 -8.618598,-8.618603 0,-4.752511 3.866081,-8.618599 8.618598,-8.618599 H 59.91023 Z M 59.696641,41.168543 c -4.581656,0.0532 -8.298215,3.802041 -8.298215,8.40501 0,4.603013 3.716559,8.351628 8.298215,8.405014 z"
     id="path153" />
  <path
     class="cls-1"
     d="M 59.429647,39.748137 H 42.19244 v -0.106796 c 0,-4.752515 3.86609,-8.618603 8.618604,-8.618603 4.752477,0 8.618603,3.866088 8.618603,8.618603 z m -17.023606,-0.21359 h 16.810012 c -0.05324,-4.581615 -3.802037,-8.29822 -8.405009,-8.29822 -4.602994,0 -8.351605,3.716605 -8.405003,8.29822 z"
     id="path154" />
  <path
     class="cls-1"
     d="m 50.811044,30.285814 c -4.752514,0 -8.618604,-3.866048 -8.618604,-8.618604 v -0.106795 h 17.237207 v 0.106795 c 0,4.752556 -3.866126,8.618604 -8.618603,8.618604 z M 42.406041,21.77401 c 0.05322,4.581687 3.802009,8.298215 8.405003,8.298215 4.602972,0 8.351572,-3.716528 8.405009,-8.298215 z"
     id="path155" />
  <path
     class="cls-1"
     d="M 19.625995,39.748137 H 2.3888073 v -0.106796 c 0,-4.752515 3.8660917,-8.618603 8.6185847,-8.618603 4.75255,0 8.618603,3.866088 8.618603,8.618603 z M 2.6023989,39.534547 H 19.412401 c -0.0532,-4.581615 -3.801964,-8.29822 -8.405009,-8.29822 -4.6029743,0 -8.351584,3.716605 -8.4049931,8.29822 z"
     id="path156" />
  <path
     class="cls-1"
     d="m 11.007392,30.285814 c -4.752493,0 -8.6185847,-3.866048 -8.6185847,-8.618604 V 21.560415 H 19.625995 v 0.106795 c 0,4.752556 -3.866053,8.618604 -8.618603,8.618604 z M 2.6023989,21.77401 c 0.053316,4.581687 3.8020188,8.298215 8.4049931,8.298215 4.603045,0 8.351657,-3.716528 8.405009,-8.298215 z"
     id="path157" />
  <path
     class="cls-1"
     d="M 41.829341,152.79403 H 41.722547 V 135.5569 h 0.106794 c 4.752483,0 8.618603,3.86605 8.618603,8.61818 0,4.75301 -3.86612,8.61895 -8.618603,8.61895 z m 0.106795,-17.0347 v 16.81002 c 4.581603,-0.051 8.298187,-3.80165 8.298187,-8.40465 0,-4.60278 -3.716584,-8.35203 -8.298187,-8.40537 z"
     id="path158" />
  <path
     class="cls-1"
     d="m 59.91023,152.79403 h -0.106795 c -4.752517,0 -8.618598,-3.86594 -8.618598,-8.61895 0,-4.75213 3.866081,-8.61818 8.618598,-8.61818 h 0.106795 z m -0.213589,-17.0347 c -4.581656,0.0516 -8.298215,3.80259 -8.298215,8.40537 0,4.603 3.716559,8.35158 8.298215,8.40465 z"
     id="path159" />
  <path
     class="cls-1"
     d="m 41.829341,133.86894 h -0.106794 v -17.2372 h 0.106794 c 4.752483,0 8.618603,3.86636 8.618603,8.61896 0,4.75212 -3.86612,8.61824 -8.618603,8.61824 z m 0.106795,-17.02321 v 16.80962 c 4.581603,-0.0514 8.298187,-3.80187 8.298187,-8.40465 0,-4.60293 -3.716584,-8.35158 -8.298187,-8.40497 z"
     id="path160" />
  <path
     class="cls-1"
     d="m 59.91023,133.86894 h -0.106795 c -4.752517,0 -8.618598,-3.86612 -8.618598,-8.61824 0,-4.7526 3.866081,-8.61896 8.618598,-8.61896 h 0.106795 z m -0.213589,-17.02321 c -4.581656,0.051 -8.298215,3.80204 -8.298215,8.40497 0,4.60278 3.716559,8.3513 8.298215,8.40465 z"
     id="path161" />
  <path
     class="cls-1"
     d="M 59.429647,115.42545 H 42.19244 v -0.10715 c 0,-4.75212 3.86609,-8.61818 8.618604,-8.61818 4.752477,0 8.618603,3.86606 8.618603,8.61818 z m -17.023606,-0.21357 h 16.810012 c -0.05324,-4.58207 -3.802037,-8.29822 -8.405009,-8.29822 -4.602994,0 -8.351605,3.71615 -8.405003,8.29822 z"
     id="path162" />
  <path
     class="cls-1"
     d="m 50.811044,105.96291 c -4.752514,0 -8.618604,-3.86632 -8.618604,-8.618597 v -0.106794 h 17.237207 v 0.106794 c 0,4.752277 -3.866126,8.618597 -8.618603,8.618597 z m -8.405003,-8.511801 c 0.05322,4.581761 3.802009,8.298281 8.405003,8.298281 4.602972,0 8.351572,-3.71652 8.405009,-8.298281 z"
     id="path163" />
  <path
     class="cls-1"
     d="M 61.725767,20.353603 H 61.618973 V 3.1164153 h 0.106794 c 4.752556,0 8.618605,3.8660916 8.618605,8.6185837 0,4.752551 -3.866049,8.618604 -8.618605,8.618604 z M 61.832562,3.3300125 V 20.140009 c 4.581656,-0.05315 8.29822,-3.801964 8.29822,-8.40501 0,-4.6029734 -3.716564,-8.3515901 -8.29822,-8.4049865 z"
     id="path164" />
  <path
     class="cls-1"
     d="m 79.806693,20.353603 h -0.106799 c -4.75251,0 -8.618598,-3.866053 -8.618598,-8.618604 0,-4.7524921 3.866088,-8.6185837 8.618598,-8.6185837 h 0.106799 z M 79.5931,3.3300125 c -4.581648,0.053396 -8.298215,3.8020131 -8.298215,8.4049865 0,4.603046 3.716567,8.351658 8.298215,8.40501 z"
     id="path165" />
  <path
     class="cls-1"
     d="M 61.725767,58.192156 H 61.618973 V 40.954954 h 0.106794 c 4.752556,0 8.618605,3.866088 8.618605,8.618599 0,4.752522 -3.866049,8.618603 -8.618605,8.618603 z m 0.106795,-17.023613 v 16.810024 c 4.581656,-0.05324 8.29822,-3.802001 8.29822,-8.405014 0,-4.602969 -3.716564,-8.351585 -8.29822,-8.40501 z"
     id="path166" />
  <path
     class="cls-1"
     d="m 79.806693,58.192156 h -0.106799 c -4.75251,0 -8.618598,-3.866081 -8.618598,-8.618603 0,-4.752511 3.866088,-8.618599 8.618598,-8.618599 h 0.106799 z M 79.5931,41.168543 c -4.581648,0.0532 -8.298215,3.802041 -8.298215,8.40501 0,4.603013 3.716567,8.351628 8.298215,8.405014 z"
     id="path167" />
  <path
     class="cls-1"
     d="M 79.336786,39.748137 H 62.099581 v -0.106796 c 0,-4.752515 3.866101,-8.618603 8.618604,-8.618603 4.752477,0 8.618601,3.866088 8.618601,8.618603 z m -17.023604,-0.21359 h 16.810012 c -0.05322,-4.581615 -3.802036,-8.29822 -8.405009,-8.29822 -4.602993,0 -8.351604,3.716605 -8.405003,8.29822 z"
     id="path168" />
  <path
     class="cls-1"
     d="m 70.718185,30.285814 c -4.752503,0 -8.618604,-3.866048 -8.618604,-8.618604 v -0.106795 h 17.237205 v 0.106795 c 0,4.752556 -3.866124,8.618604 -8.618601,8.618604 z M 62.313182,21.77401 c 0.05318,4.581687 3.80201,8.298215 8.405003,8.298215 4.602973,0 8.351584,-3.716528 8.405009,-8.298215 z"
     id="path169" />
  <path
     class="cls-1"
     d="M 79.336786,153.2635 H 62.099581 v -0.10655 c 0,-4.75244 3.866101,-8.61894 8.618604,-8.61894 4.752477,0 8.618601,3.8665 8.618601,8.61894 z m -17.023604,-0.2137 h 16.810012 c -0.05322,-4.58152 -3.802036,-8.29822 -8.405009,-8.29822 -4.602993,0 -8.351604,3.7167 -8.405003,8.29822 z"
     id="path170" />
  <path
     class="cls-1"
     d="m 70.718185,143.80117 c -4.752503,0 -8.618604,-3.86595 -8.618604,-8.61823 v -0.1071 h 17.237205 v 0.1071 c 0,4.75228 -3.866124,8.61823 -8.618601,8.61823 z m -8.405003,-8.5118 c 0.05318,4.58212 3.80201,8.29823 8.405003,8.29823 4.602973,0 8.351584,-3.71611 8.405009,-8.29823 z"
     id="path171" />
  <path
     class="cls-1"
     d="m 61.725767,133.86894 h -0.106794 v -17.2372 h 0.106794 c 4.752556,0 8.618605,3.86636 8.618605,8.61896 0,4.75212 -3.866049,8.61824 -8.618605,8.61824 z m 0.106795,-17.02321 v 16.80962 c 4.581656,-0.0514 8.29822,-3.80187 8.29822,-8.40465 0,-4.60293 -3.716564,-8.35158 -8.29822,-8.40497 z"
     id="path172" />
  <path
     class="cls-1"
     d="m 79.806693,133.86894 h -0.106799 c -4.75251,0 -8.618598,-3.86612 -8.618598,-8.61824 0,-4.7526 3.866088,-8.61896 8.618598,-8.61896 h 0.106799 z M 79.5931,116.84573 c -4.581648,0.051 -8.298215,3.80204 -8.298215,8.40497 0,4.60278 3.716567,8.3513 8.298215,8.40465 z"
     id="path173" />
  <path
     class="cls-1"
     d="M 79.336786,115.42545 H 62.099581 v -0.10715 c 0,-4.75212 3.866101,-8.61818 8.618604,-8.61818 4.752477,0 8.618601,3.86606 8.618601,8.61818 z m -17.023604,-0.21357 h 16.810012 c -0.05322,-4.58207 -3.802036,-8.29822 -8.405009,-8.29822 -4.602993,0 -8.351604,3.71615 -8.405003,8.29822 z"
     id="path174" />
  <path
     class="cls-1"
     d="m 70.718185,105.96291 c -4.752503,0 -8.618604,-3.86632 -8.618604,-8.618597 v -0.106794 h 17.237205 v 0.106794 c 0,4.752277 -3.866124,8.618597 -8.618601,8.618597 z m -8.405003,-8.511801 c 0.05318,4.581761 3.80201,8.298281 8.405003,8.298281 4.602973,0 8.351584,-3.71652 8.405009,-8.298281 z"
     id="path175" />
  <path
     class="cls-1"
     d="m 11.007392,153.2635 c -4.752493,0 -8.6185847,-3.86606 -8.6185847,-8.61834 v -0.10715 H 19.625995 v 0.10715 c 0,4.75228 -3.866053,8.61834 -8.618603,8.61834 z m -8.4049931,-8.51192 c 0.053316,4.58223 3.8020188,8.29822 8.4049931,8.29822 4.603045,0 8.351657,-3.71599 8.405009,-8.29822 z"
     id="path176" />
  <path
     class="cls-1"
     d="M 19.625995,143.80117 H 2.3888073 v -0.10642 c 0,-4.75286 3.8660917,-8.61891 8.6185847,-8.61891 4.75255,0 8.618603,3.86605 8.618603,8.61891 z M 2.6023989,143.5876 H 19.412401 c -0.0532,-4.58147 -3.801964,-8.29823 -8.405009,-8.29823 -4.6029743,0 -8.351584,3.71676 -8.4049931,8.29823 z"
     id="path177" />
  <path
     class="cls-1"
     d="m 229.55889,20.353603 h -0.10675 c -4.75264,0 -8.61863,-3.866053 -8.61863,-8.618604 0,-4.7524921 3.86599,-8.6185837 8.61863,-8.6185837 h 0.10675 z M 229.34532,3.3300125 c -4.58147,0.053396 -8.29823,3.8020131 -8.29823,8.4049865 0,4.603046 3.71676,8.351658 8.29823,8.40501 z"
     id="path178" />
  <path
     class="cls-1"
     d="m 230.40288,20.353603 h -0.10715 V 3.1164153 h 0.10715 c 4.75228,0 8.61823,3.8660916 8.61823,8.6185837 0,4.752551 -3.86595,8.618604 -8.61823,8.618604 z m 0.0943,-17.0235905 V 20.140009 c 4.58162,-0.05315 8.29821,-3.801964 8.29821,-8.40501 0,-4.6029734 -3.71659,-8.3515901 -8.29821,-8.4049865 z"
     id="path179" />
  <path
     class="cls-1"
     d="m 229.55889,153.2635 h -0.10675 c -4.75264,0 -8.61863,-3.86606 -8.61863,-8.61834 0,-4.75245 3.86599,-8.61896 8.61863,-8.61896 h 0.10675 z m -0.21357,-17.02373 c -4.58147,0.051 -8.29823,3.80261 -8.29823,8.40539 0,4.60293 3.71676,8.35146 8.29823,8.40464 z"
     id="path180" />
  <path
     class="cls-1"
     d="m 230.40288,153.2635 h -0.10715 v -17.2373 h 0.10715 c 4.75228,0 8.61823,3.86651 8.61823,8.61896 0,4.75228 -3.86595,8.61834 -8.61823,8.61834 z m 0.0937,-17.02373 v 16.81003 c 4.58165,-0.0515 8.29823,-3.80171 8.29823,-8.40464 0,-4.60278 -3.71658,-8.35143 -8.29823,-8.40539 z"
     id="path181" />
</svg>
