<?xml version="1.0" encoding="UTF-8"?><svg id="Layer_1" xmlns="http://www.w3.org/2000/svg" viewBox="0 0 240.94 155.91"><defs><style>.cls-1{stroke-width:0px;}</style></defs><rect class="cls-1" x="28.31" y="69.58" width="3.31" height="2.4"/><rect class="cls-1" x="28.31" y="72.9" width="3.31" height="13.25"/><path class="cls-1" d="M36.62,77.1v-4.2h-3.26v13.25h3.26v-5.96c.25-2.67,2.04-4.36,4.36-4.36.46,0,.79,0,1.2.05v-3.03c-.31-.05-.74-.08-1.17-.08-2.8,0-4.1,1.96-4.38,4.33Z"/><path class="cls-1" d="M49.23,83.52c-1.68,0-3.41-1.43-3.41-3.97s1.73-4,3.41-4c1.02,0,2.04.41,2.65,1.3l2.88-1.04c-1.33-2.17-3.64-3.06-5.53-3.06-2.73,0-6.68,2.14-6.68,6.8s3.95,6.78,6.68,6.78c1.89,0,4.2-.89,5.55-3.06l-2.93-1.04c-.59.89-1.61,1.3-2.62,1.3Z"/><path class="cls-1" d="M64.74,74.68c-.15-.79-1.58-1.94-3.67-1.94-2.8,0-6.22,2.24-6.22,6.78s3.44,6.8,6.22,6.8c2.09,0,3.52-1.38,3.67-2.14v1.96h3.26v-13.25h-3.26v1.78ZM61.58,83.52c-1.71,0-3.47-1.43-3.47-4s1.76-3.97,3.47-3.97,3.31,1.07,3.31,3.97-1.66,4-3.31,4Z"/><path class="cls-1" d="M72.79,77.1v-4.2h-3.26v13.25h3.26v-5.96c.25-2.67,2.04-4.36,4.36-4.36.46,0,.79,0,1.2.05v-3.03c-.31-.05-.74-.08-1.17-.08-2.8,0-4.1,1.96-4.38,4.33Z"/><path class="cls-1" d="M88.82,69.58v5.1c-.18-.79-1.58-1.94-3.67-1.94-2.8,0-6.22,2.24-6.22,6.78s3.41,6.8,6.22,6.8c2.09,0,3.49-1.38,3.67-2.14v1.96h3.26v-16.57h-3.26ZM85.66,83.52c-1.71,0-3.47-1.43-3.47-4s1.76-3.97,3.47-3.97,3.31,1.07,3.31,3.97-1.66,4-3.31,4Z"/><path class="cls-1" d="M23.27,73.78c-.98-.56-2.11-.89-3.32-.89v3.31c1.83,0,3.31,1.48,3.31,3.31s-1.48,3.31-3.31,3.31-3.31-1.48-3.31-3.31h-3.31c0,3.66,2.97,6.63,6.63,6.63,1.21,0,2.34-.32,3.32-.89v.89h3.31v-13.23h-3.31v.87Z"/><path class="cls-1" d="M16.64,79.52h3.31v-3.31c-1.83,0-3.31,1.48-3.31,3.31Z"/><path class="cls-1" d="M19.95,72.89v-3.31c-5.49,0-9.94,4.45-9.94,9.94h3.31c0-3.66,2.97-6.63,6.63-6.63Z"/><path class="cls-1" d="M175.13,24.47h-16.14v-.1c0-4.45,3.62-8.07,8.07-8.07s8.07,3.62,8.07,8.07v.1ZM159.19,24.27h15.74c-.05-4.29-3.56-7.77-7.87-7.77s-7.82,3.48-7.87,7.77Z"/><path class="cls-1" d="M167.06,15.61c-4.45,0-8.07-3.62-8.07-8.07v-.1h16.14v.1c0,4.45-3.62,8.07-8.07,8.07ZM159.19,7.64c.05,4.29,3.56,7.77,7.87,7.77s7.82-3.48,7.87-7.77h-15.74Z"/><path class="cls-1" d="M175.13,77.61h-16.14v-.1c0-4.45,3.62-8.07,8.07-8.07s8.07,3.62,8.07,8.07v.1ZM159.19,77.41h15.74c-.05-4.29-3.56-7.77-7.87-7.77s-7.82,3.48-7.87,7.77Z"/><path class="cls-1" d="M167.06,68.75c-4.45,0-8.07-3.62-8.07-8.07v-.1h16.14v.1c0,4.45-3.62,8.07-8.07,8.07ZM159.19,60.78c.05,4.29,3.56,7.77,7.87,7.77s7.82-3.48,7.87-7.77h-15.74Z"/><path class="cls-1" d="M175.13,59.9h-16.14v-.1c0-4.45,3.62-8.07,8.07-8.07s8.07,3.62,8.07,8.07v.1ZM159.19,59.69h15.74c-.05-4.29-3.56-7.77-7.87-7.77s-7.82,3.48-7.87,7.77Z"/><path class="cls-1" d="M167.06,51.04c-4.45,0-8.07-3.62-8.07-8.07v-.1h16.14v.1c0,4.45-3.62,8.07-8.07,8.07ZM159.19,43.07c.05,4.29,3.56,7.77,7.87,7.77s7.82-3.48,7.87-7.77h-15.74Z"/><path class="cls-1" d="M158.64,41.74h-.1v-16.14h.1c4.45,0,8.07,3.62,8.07,8.07s-3.62,8.07-8.07,8.07ZM158.74,25.79v15.74c4.29-.05,7.77-3.56,7.77-7.87s-3.48-7.82-7.77-7.87Z"/><path class="cls-1" d="M175.57,41.74h-.1c-4.45,0-8.07-3.62-8.07-8.07s3.62-8.07,8.07-8.07h.1v16.14ZM175.37,25.79c-4.29.05-7.77,3.56-7.77,7.87s3.48,7.82,7.77,7.87v-15.74Z"/><path class="cls-1" d="M175.13,95.32h-16.14v-.1c0-4.45,3.62-8.07,8.07-8.07s8.07,3.62,8.07,8.07v.1ZM159.19,95.12h15.74c-.05-4.29-3.56-7.77-7.87-7.77s-7.82,3.48-7.87,7.77Z"/><path class="cls-1" d="M167.06,86.47c-4.45,0-8.07-3.62-8.07-8.07v-.1h16.14v.1c0,4.45-3.62,8.07-8.07,8.07ZM159.19,78.5c.05,4.29,3.56,7.77,7.87,7.77s7.82-3.48,7.87-7.77h-15.74Z"/><path class="cls-1" d="M175.13,148.47h-16.14v-.1c0-4.45,3.62-8.07,8.07-8.07s8.07,3.62,8.07,8.07v.1ZM159.19,148.27h15.74c-.05-4.29-3.56-7.77-7.87-7.77s-7.82,3.48-7.87,7.77Z"/><path class="cls-1" d="M167.06,139.61c-4.45,0-8.07-3.62-8.07-8.07v-.1h16.14v.1c0,4.45-3.62,8.07-8.07,8.07ZM159.19,131.64c.05,4.29,3.56,7.77,7.87,7.77s7.82-3.48,7.87-7.77h-15.74Z"/><path class="cls-1" d="M175.13,130.75h-16.14v-.1c0-4.45,3.62-8.07,8.07-8.07s8.07,3.62,8.07,8.07v.1ZM159.19,130.55h15.74c-.05-4.29-3.56-7.77-7.87-7.77s-7.82,3.48-7.87,7.77Z"/><path class="cls-1" d="M167.06,121.9c-4.45,0-8.07-3.62-8.07-8.07v-.1h16.14v.1c0,4.45-3.62,8.07-8.07,8.07ZM159.19,113.92c.05,4.29,3.56,7.77,7.87,7.77s7.82-3.48,7.87-7.77h-15.74Z"/><path class="cls-1" d="M158.64,112.6h-.1v-16.14h.1c4.45,0,8.07,3.62,8.07,8.07s-3.62,8.07-8.07,8.07ZM158.74,96.65v15.74c4.29-.05,7.77-3.56,7.77-7.87s-3.48-7.82-7.77-7.87Z"/><path class="cls-1" d="M175.57,112.6h-.1c-4.45,0-8.07-3.62-8.07-8.07s3.62-8.07,8.07-8.07h.1v16.14ZM175.37,96.65c-4.29.05-7.77,3.56-7.77,7.87s3.48,7.82,7.77,7.87v-15.74Z"/><path class="cls-1" d="M194.21,24.02h-.1c-4.45,0-8.07-3.62-8.07-8.07s3.62-8.07,8.07-8.07h.1v16.14ZM194.01,8.08c-4.29.05-7.77,3.56-7.77,7.87s3.48,7.82,7.77,7.87v-15.74Z"/><path class="cls-1" d="M177.28,24.02h-.1V7.88h.1c4.45,0,8.07,3.62,8.07,8.07s-3.62,8.07-8.07,8.07ZM177.38,8.08v15.74c4.29-.05,7.77-3.56,7.77-7.87s-3.48-7.82-7.77-7.87Z"/><path class="cls-1" d="M194.21,77.17h-.1c-4.45,0-8.07-3.62-8.07-8.07s3.62-8.07,8.07-8.07h.1v16.14ZM194.01,61.22c-4.29.05-7.77,3.56-7.77,7.87s3.48,7.82,7.77,7.87v-15.74Z"/><path class="cls-1" d="M177.28,77.17h-.1v-16.14h.1c4.45,0,8.07,3.62,8.07,8.07s-3.62,8.07-8.07,8.07ZM177.38,61.22v15.74c4.29-.05,7.77-3.56,7.77-7.87s-3.48-7.82-7.77-7.87Z"/><path class="cls-1" d="M185.69,51.04c-4.45,0-8.07-3.62-8.07-8.07v-.1h16.14v.1c0,4.45-3.62,8.07-8.07,8.07ZM177.82,43.07c.05,4.29,3.56,7.77,7.87,7.77s7.82-3.48,7.87-7.77h-15.74Z"/><path class="cls-1" d="M193.76,59.9h-16.14v-.1c0-4.45,3.62-8.07,8.07-8.07s8.07,3.62,8.07,8.07v.1ZM177.82,59.69h15.74c-.05-4.29-3.56-7.77-7.87-7.77s-7.82,3.48-7.87,7.77Z"/><path class="cls-1" d="M194.21,41.74h-.1c-4.45,0-8.07-3.62-8.07-8.07s3.62-8.07,8.07-8.07h.1v16.14ZM194.01,25.79c-4.29.05-7.77,3.56-7.77,7.87s3.48,7.82,7.77,7.87v-15.74Z"/><path class="cls-1" d="M177.28,41.74h-.1v-16.14h.1c4.45,0,8.07,3.62,8.07,8.07s-3.62,8.07-8.07,8.07ZM177.38,25.79v15.74c4.29-.05,7.77-3.56,7.77-7.87s-3.48-7.82-7.77-7.87Z"/><path class="cls-1" d="M194.21,94.88h-.1c-4.45,0-8.07-3.62-8.07-8.07s3.62-8.07,8.07-8.07h.1v16.14ZM194.01,78.94c-4.29.05-7.77,3.56-7.77,7.87s3.48,7.82,7.77,7.87v-15.74Z"/><path class="cls-1" d="M177.28,94.88h-.1v-16.14h.1c4.45,0,8.07,3.62,8.07,8.07s-3.62,8.07-8.07,8.07ZM177.38,78.94v15.74c4.29-.05,7.77-3.56,7.77-7.87s-3.48-7.82-7.77-7.87Z"/><path class="cls-1" d="M194.21,148.03h-.1c-4.45,0-8.07-3.62-8.07-8.07s3.62-8.07,8.07-8.07h.1v16.14ZM194.01,132.08c-4.29.05-7.77,3.56-7.77,7.87s3.48,7.82,7.77,7.87v-15.74Z"/><path class="cls-1" d="M177.28,148.03h-.1v-16.14h.1c4.45,0,8.07,3.62,8.07,8.07s-3.62,8.07-8.07,8.07ZM177.38,132.08v15.74c4.29-.05,7.77-3.56,7.77-7.87s-3.48-7.82-7.77-7.87Z"/><path class="cls-1" d="M185.69,121.9c-4.45,0-8.07-3.62-8.07-8.07v-.1h16.14v.1c0,4.45-3.62,8.07-8.07,8.07ZM177.82,113.92c.05,4.29,3.56,7.77,7.87,7.77s7.82-3.48,7.87-7.77h-15.74Z"/><path class="cls-1" d="M193.76,130.75h-16.14v-.1c0-4.45,3.62-8.07,8.07-8.07s8.07,3.62,8.07,8.07v.1ZM177.82,130.55h15.74c-.05-4.29-3.56-7.77-7.87-7.77s-7.82,3.48-7.87,7.77Z"/><path class="cls-1" d="M194.21,112.6h-.1c-4.45,0-8.07-3.62-8.07-8.07s3.62-8.07,8.07-8.07h.1v16.14ZM194.01,96.65c-4.29.05-7.77,3.56-7.77,7.87s3.48,7.82,7.77,7.87v-15.74Z"/><path class="cls-1" d="M177.28,112.6h-.1v-16.14h.1c4.45,0,8.07,3.62,8.07,8.07s-3.62,8.07-8.07,8.07ZM177.38,96.65v15.74c4.29-.05,7.77-3.56,7.77-7.87s-3.48-7.82-7.77-7.87Z"/><path class="cls-1" d="M195.91,77.17h-.1v-16.14h.1c4.45,0,8.07,3.62,8.07,8.07s-3.62,8.07-8.07,8.07ZM196.01,61.22v15.74c4.29-.05,7.77-3.56,7.77-7.87s-3.48-7.82-7.77-7.87Z"/><path class="cls-1" d="M212.84,77.17h-.1c-4.45,0-8.07-3.62-8.07-8.07s3.62-8.07,8.07-8.07h.1v16.14ZM212.64,61.22c-4.29.05-7.77,3.56-7.77,7.87s3.48,7.82,7.77,7.87v-15.74Z"/><path class="cls-1" d="M195.91,59.45h-.1v-16.14h.1c4.45,0,8.07,3.62,8.07,8.07s-3.62,8.07-8.07,8.07ZM196.01,43.51v15.74c4.29-.05,7.77-3.56,7.77-7.87s-3.48-7.82-7.77-7.87Z"/><path class="cls-1" d="M212.84,59.45h-.1c-4.45,0-8.07-3.62-8.07-8.07s3.62-8.07,8.07-8.07h.1v16.14ZM212.64,43.51c-4.29.05-7.77,3.56-7.77,7.87s3.48,7.82,7.77,7.87v-15.74Z"/><path class="cls-1" d="M212.4,42.18h-16.14v-.1c0-4.45,3.62-8.07,8.07-8.07s8.07,3.62,8.07,8.07v.1ZM196.46,41.98h15.74c-.05-4.29-3.56-7.77-7.87-7.77s-7.82,3.48-7.87,7.77Z"/><path class="cls-1" d="M204.33,33.32c-4.45,0-8.07-3.62-8.07-8.07v-.1h16.14v.1c0,4.45-3.62,8.07-8.07,8.07ZM196.46,25.35c.05,4.29,3.56,7.77,7.87,7.77s7.82-3.48,7.87-7.77h-15.74Z"/><path class="cls-1" d="M222.62,94.88h-.1c-4.45,0-8.07-3.62-8.07-8.07s3.62-8.07,8.07-8.07h.1v16.14ZM222.42,78.94c-4.29.05-7.77,3.56-7.77,7.87s3.48,7.82,7.77,7.87v-15.74Z"/><path class="cls-1" d="M223.41,94.88h-.1v-16.14h.1c4.45,0,8.07,3.62,8.07,8.07s-3.62,8.07-8.07,8.07ZM223.5,78.94v15.74c4.29-.05,7.77-3.56,7.77-7.87s-3.48-7.82-7.77-7.87Z"/><path class="cls-1" d="M195.91,148.03h-.1v-16.14h.1c4.45,0,8.07,3.62,8.07,8.07s-3.62,8.07-8.07,8.07ZM196.01,132.08v15.74c4.29-.05,7.77-3.56,7.77-7.87s-3.48-7.82-7.77-7.87Z"/><path class="cls-1" d="M212.84,148.03h-.1c-4.45,0-8.07-3.62-8.07-8.07s3.62-8.07,8.07-8.07h.1v16.14ZM212.64,132.08c-4.29.05-7.77,3.56-7.77,7.87s3.48,7.82,7.77,7.87v-15.74Z"/><path class="cls-1" d="M195.91,130.31h-.1v-16.14h.1c4.45,0,8.07,3.62,8.07,8.07s-3.62,8.07-8.07,8.07ZM196.01,114.37v15.74c4.29-.05,7.77-3.56,7.77-7.87s-3.48-7.82-7.77-7.87Z"/><path class="cls-1" d="M212.84,130.31h-.1c-4.45,0-8.07-3.62-8.07-8.07s3.62-8.07,8.07-8.07h.1v16.14ZM212.64,114.37c-4.29.05-7.77,3.56-7.77,7.87s3.48,7.82,7.77,7.87v-15.74Z"/><path class="cls-1" d="M212.4,113.04h-16.14v-.1c0-4.45,3.62-8.07,8.07-8.07s8.07,3.62,8.07,8.07v.1ZM196.46,112.84h15.74c-.05-4.29-3.56-7.77-7.87-7.77s-7.82,3.48-7.87,7.77Z"/><path class="cls-1" d="M204.33,104.18c-4.45,0-8.07-3.62-8.07-8.07v-.1h16.14v.1c0,4.45-3.62,8.07-8.07,8.07ZM196.46,96.21c.05,4.29,3.56,7.77,7.87,7.77s7.82-3.48,7.87-7.77h-15.74Z"/><path class="cls-1" d="M196.36,24.02h-.1V7.88h.1c4.45,0,8.07,3.62,8.07,8.07s-3.62,8.07-8.07,8.07ZM196.46,8.08v15.74c4.29-.05,7.77-3.56,7.77-7.87s-3.48-7.82-7.77-7.87Z"/><path class="cls-1" d="M213.28,24.02h-.1c-4.45,0-8.07-3.62-8.07-8.07s3.62-8.07,8.07-8.07h.1v16.14ZM213.08,8.08c-4.29.05-7.77,3.56-7.77,7.87s3.48,7.82,7.77,7.87v-15.74Z"/><path class="cls-1" d="M231.03,77.61h-16.14v-.1c0-4.45,3.62-8.07,8.07-8.07s8.07,3.62,8.07,8.07v.1ZM215.09,77.41h15.74c-.05-4.29-3.56-7.77-7.87-7.77s-7.82,3.48-7.87,7.77Z"/><path class="cls-1" d="M222.96,68.75c-4.45,0-8.07-3.62-8.07-8.07v-.1h16.14v.1c0,4.45-3.62,8.07-8.07,8.07ZM215.09,60.78c.05,4.29,3.56,7.77,7.87,7.77s7.82-3.48,7.87-7.77h-15.74Z"/><path class="cls-1" d="M214.55,59.45h-.1v-16.14h.1c4.45,0,8.07,3.62,8.07,8.07s-3.62,8.07-8.07,8.07ZM214.65,43.51v15.74c4.29-.05,7.77-3.56,7.77-7.87s-3.48-7.82-7.77-7.87Z"/><path class="cls-1" d="M231.48,59.45h-.1c-4.45,0-8.07-3.62-8.07-8.07s3.62-8.07,8.07-8.07h.1v16.14ZM231.28,43.51c-4.29.05-7.77,3.56-7.77,7.87s3.48,7.82,7.77,7.87v-15.74Z"/><path class="cls-1" d="M231.03,42.18h-16.14v-.1c0-4.45,3.62-8.07,8.07-8.07s8.07,3.62,8.07,8.07v.1ZM215.09,41.98h15.74c-.05-4.29-3.56-7.77-7.87-7.77s-7.82,3.48-7.87,7.77Z"/><path class="cls-1" d="M222.96,33.32c-4.45,0-8.07-3.62-8.07-8.07v-.1h16.14v.1c0,4.45-3.62,8.07-8.07,8.07ZM215.09,25.35c.05,4.29,3.56,7.77,7.87,7.77s7.82-3.48,7.87-7.77h-15.74Z"/><path class="cls-1" d="M195.91,94.88h-.1v-16.14h.1c4.45,0,8.07,3.62,8.07,8.07s-3.62,8.07-8.07,8.07ZM196.01,78.94v15.74c4.29-.05,7.77-3.56,7.77-7.87s-3.48-7.82-7.77-7.87Z"/><path class="cls-1" d="M212.84,94.88h-.1c-4.45,0-8.07-3.62-8.07-8.07s3.62-8.07,8.07-8.07h.1v16.14ZM212.64,78.94c-4.29.05-7.77,3.56-7.77,7.87s3.48,7.82,7.77,7.87v-15.74Z"/><path class="cls-1" d="M222.96,121.9c-4.45,0-8.07-3.62-8.07-8.07v-.1h16.14v.1c0,4.45-3.62,8.07-8.07,8.07ZM215.09,113.92c.05,4.29,3.56,7.77,7.87,7.77s7.82-3.48,7.87-7.77h-15.74Z"/><path class="cls-1" d="M231.03,130.75h-16.14v-.1c0-4.45,3.62-8.07,8.07-8.07s8.07,3.62,8.07,8.07v.1ZM215.09,130.55h15.74c-.05-4.29-3.56-7.77-7.87-7.77s-7.82,3.48-7.87,7.77Z"/><path class="cls-1" d="M231.48,112.6h-.1c-4.45,0-8.07-3.62-8.07-8.07s3.62-8.07,8.07-8.07h.1v16.14ZM231.28,96.65c-4.29.05-7.77,3.56-7.77,7.87s3.48,7.82,7.77,7.87v-15.74Z"/><path class="cls-1" d="M214.55,112.6h-.1v-16.14h.1c4.45,0,8.07,3.62,8.07,8.07s-3.62,8.07-8.07,8.07ZM214.65,96.65v15.74c4.29-.05,7.77-3.56,7.77-7.87s-3.48-7.82-7.77-7.87Z"/><path class="cls-1" d="M100.59,24.47h-16.14v-.1c0-4.45,3.62-8.07,8.07-8.07s8.07,3.62,8.07,8.07v.1ZM84.65,24.27h15.74c-.05-4.29-3.56-7.77-7.87-7.77s-7.82,3.48-7.87,7.77Z"/><path class="cls-1" d="M92.52,15.61c-4.45,0-8.07-3.62-8.07-8.07v-.1h16.14v.1c0,4.45-3.62,8.07-8.07,8.07ZM84.65,7.64c.05,4.29,3.56,7.77,7.87,7.77s7.82-3.48,7.87-7.77h-15.74Z"/><path class="cls-1" d="M100.59,59.9h-16.14v-.1c0-4.45,3.62-8.07,8.07-8.07s8.07,3.62,8.07,8.07v.1ZM84.65,59.69h15.74c-.05-4.29-3.56-7.77-7.87-7.77s-7.82,3.48-7.87,7.77Z"/><path class="cls-1" d="M92.52,51.04c-4.45,0-8.07-3.62-8.07-8.07v-.1h16.14v.1c0,4.45-3.62,8.07-8.07,8.07ZM84.65,43.07c.05,4.29,3.56,7.77,7.87,7.77s7.82-3.48,7.87-7.77h-15.74Z"/><path class="cls-1" d="M84.11,41.74h-.1v-16.14h.1c4.45,0,8.07,3.62,8.07,8.07s-3.62,8.07-8.07,8.07ZM84.21,25.79v15.74c4.29-.05,7.77-3.56,7.77-7.87s-3.48-7.82-7.77-7.87Z"/><path class="cls-1" d="M101.04,41.74h-.1c-4.45,0-8.07-3.62-8.07-8.07s3.62-8.07,8.07-8.07h.1v16.14ZM100.83,25.79c-4.29.05-7.77,3.56-7.77,7.87s3.48,7.82,7.77,7.87v-15.74Z"/><path class="cls-1" d="M100.59,148.47h-16.14v-.1c0-4.45,3.62-8.07,8.07-8.07s8.07,3.62,8.07,8.07v.1ZM84.65,148.27h15.74c-.05-4.29-3.56-7.77-7.87-7.77s-7.82,3.48-7.87,7.77Z"/><path class="cls-1" d="M92.52,139.61c-4.45,0-8.07-3.62-8.07-8.07v-.1h16.14v.1c0,4.45-3.62,8.07-8.07,8.07ZM84.65,131.64c.05,4.29,3.56,7.77,7.87,7.77s7.82-3.48,7.87-7.77h-15.74Z"/><path class="cls-1" d="M100.59,130.75h-16.14v-.1c0-4.45,3.62-8.07,8.07-8.07s8.07,3.62,8.07,8.07v.1ZM84.65,130.55h15.74c-.05-4.29-3.56-7.77-7.87-7.77s-7.82,3.48-7.87,7.77Z"/><path class="cls-1" d="M92.52,121.9c-4.45,0-8.07-3.62-8.07-8.07v-.1h16.14v.1c0,4.45-3.62,8.07-8.07,8.07ZM84.65,113.92c.05,4.29,3.56,7.77,7.87,7.77s7.82-3.48,7.87-7.77h-15.74Z"/><path class="cls-1" d="M84.11,112.6h-.1v-16.14h.1c4.45,0,8.07,3.62,8.07,8.07s-3.62,8.07-8.07,8.07ZM84.21,96.65v15.74c4.29-.05,7.77-3.56,7.77-7.87s-3.48-7.82-7.77-7.87Z"/><path class="cls-1" d="M101.04,112.6h-.1c-4.45,0-8.07-3.62-8.07-8.07s3.62-8.07,8.07-8.07h.1v16.14ZM100.83,96.65c-4.29.05-7.77,3.56-7.77,7.87s3.48,7.82,7.77,7.87v-15.74Z"/><path class="cls-1" d="M119.67,24.02h-.1c-4.45,0-8.07-3.62-8.07-8.07s3.62-8.07,8.07-8.07h.1v16.14ZM119.47,8.08c-4.29.05-7.77,3.56-7.77,7.87s3.48,7.82,7.77,7.87v-15.74Z"/><path class="cls-1" d="M102.74,24.02h-.1V7.88h.1c4.45,0,8.07,3.62,8.07,8.07s-3.62,8.07-8.07,8.07ZM102.84,8.08v15.74c4.29-.05,7.77-3.56,7.77-7.87s-3.48-7.82-7.77-7.87Z"/><path class="cls-1" d="M119.67,77.17h-.1c-4.45,0-8.07-3.62-8.07-8.07s3.62-8.07,8.07-8.07h.1v16.14ZM119.47,61.22c-4.29.05-7.77,3.56-7.77,7.87s3.48,7.82,7.77,7.87v-15.74Z"/><path class="cls-1" d="M102.74,77.17h-.1v-16.14h.1c4.45,0,8.07,3.62,8.07,8.07s-3.62,8.07-8.07,8.07ZM102.84,61.22v15.74c4.29-.05,7.77-3.56,7.77-7.87s-3.48-7.82-7.77-7.87Z"/><path class="cls-1" d="M111.16,51.04c-4.45,0-8.07-3.62-8.07-8.07v-.1h16.14v.1c0,4.45-3.62,8.07-8.07,8.07ZM103.28,43.07c.05,4.29,3.56,7.77,7.87,7.77s7.82-3.48,7.87-7.77h-15.74Z"/><path class="cls-1" d="M119.23,59.9h-16.14v-.1c0-4.45,3.62-8.07,8.07-8.07s8.07,3.62,8.07,8.07v.1ZM103.28,59.69h15.74c-.05-4.29-3.56-7.77-7.87-7.77s-7.82,3.48-7.87,7.77Z"/><path class="cls-1" d="M119.67,41.74h-.1c-4.45,0-8.07-3.62-8.07-8.07s3.62-8.07,8.07-8.07h.1v16.14ZM119.47,25.79c-4.29.05-7.77,3.56-7.77,7.87s3.48,7.82,7.77,7.87v-15.74Z"/><path class="cls-1" d="M102.74,41.74h-.1v-16.14h.1c4.45,0,8.07,3.62,8.07,8.07s-3.62,8.07-8.07,8.07ZM102.84,25.79v15.74c4.29-.05,7.77-3.56,7.77-7.87s-3.48-7.82-7.77-7.87Z"/><path class="cls-1" d="M119.67,94.88h-.1c-4.45,0-8.07-3.62-8.07-8.07s3.62-8.07,8.07-8.07h.1v16.14ZM119.47,78.94c-4.29.05-7.77,3.56-7.77,7.87s3.48,7.82,7.77,7.87v-15.74Z"/><path class="cls-1" d="M102.74,94.88h-.1v-16.14h.1c4.45,0,8.07,3.62,8.07,8.07s-3.62,8.07-8.07,8.07ZM102.84,78.94v15.74c4.29-.05,7.77-3.56,7.77-7.87s-3.48-7.82-7.77-7.87Z"/><path class="cls-1" d="M119.67,148.03h-.1c-4.45,0-8.07-3.62-8.07-8.07s3.62-8.07,8.07-8.07h.1v16.14ZM119.47,132.08c-4.29.05-7.77,3.56-7.77,7.87s3.48,7.82,7.77,7.87v-15.74Z"/><path class="cls-1" d="M102.74,148.03h-.1v-16.14h.1c4.45,0,8.07,3.62,8.07,8.07s-3.62,8.07-8.07,8.07ZM102.84,132.08v15.74c4.29-.05,7.77-3.56,7.77-7.87s-3.48-7.82-7.77-7.87Z"/><path class="cls-1" d="M111.16,121.9c-4.45,0-8.07-3.62-8.07-8.07v-.1h16.14v.1c0,4.45-3.62,8.07-8.07,8.07ZM103.28,113.92c.05,4.29,3.56,7.77,7.87,7.77s7.82-3.48,7.87-7.77h-15.74Z"/><path class="cls-1" d="M119.23,130.75h-16.14v-.1c0-4.45,3.62-8.07,8.07-8.07s8.07,3.62,8.07,8.07v.1ZM103.28,130.55h15.74c-.05-4.29-3.56-7.77-7.87-7.77s-7.82,3.48-7.87,7.77Z"/><path class="cls-1" d="M119.67,112.6h-.1c-4.45,0-8.07-3.62-8.07-8.07s3.62-8.07,8.07-8.07h.1v16.14ZM119.47,96.65c-4.29.05-7.77,3.56-7.77,7.87s3.48,7.82,7.77,7.87v-15.74Z"/><path class="cls-1" d="M102.74,112.6h-.1v-16.14h.1c4.45,0,8.07,3.62,8.07,8.07s-3.62,8.07-8.07,8.07ZM102.84,96.65v15.74c4.29-.05,7.77-3.56,7.77-7.87s-3.48-7.82-7.77-7.87Z"/><path class="cls-1" d="M129.45,24.02h-.1c-4.45,0-8.07-3.62-8.07-8.07s3.62-8.07,8.07-8.07h.1v16.14ZM129.25,8.08c-4.29.05-7.77,3.56-7.77,7.87s3.48,7.82,7.77,7.87v-15.74Z"/><path class="cls-1" d="M130.23,24.02h-.1V7.88h.1c4.45,0,8.07,3.62,8.07,8.07s-3.62,8.07-8.07,8.07ZM130.33,8.08v15.74c4.29-.05,7.77-3.56,7.77-7.87s-3.48-7.82-7.77-7.87Z"/><path class="cls-1" d="M121.38,77.17h-.1v-16.14h.1c4.45,0,8.07,3.62,8.07,8.07s-3.62,8.07-8.07,8.07ZM121.47,61.22v15.74c4.29-.05,7.77-3.56,7.77-7.87s-3.48-7.82-7.77-7.87Z"/><path class="cls-1" d="M138.3,77.17h-.1c-4.45,0-8.07-3.62-8.07-8.07s3.62-8.07,8.07-8.07h.1v16.14ZM138.1,61.22c-4.29.05-7.77,3.56-7.77,7.87s3.48,7.82,7.77,7.87v-15.74Z"/><path class="cls-1" d="M121.38,59.45h-.1v-16.14h.1c4.45,0,8.07,3.62,8.07,8.07s-3.62,8.07-8.07,8.07ZM121.47,43.51v15.74c4.29-.05,7.77-3.56,7.77-7.87s-3.48-7.82-7.77-7.87Z"/><path class="cls-1" d="M138.3,59.45h-.1c-4.45,0-8.07-3.62-8.07-8.07s3.62-8.07,8.07-8.07h.1v16.14ZM138.1,43.51c-4.29.05-7.77,3.56-7.77,7.87s3.48,7.82,7.77,7.87v-15.74Z"/><path class="cls-1" d="M137.86,42.18h-16.14v-.1c0-4.45,3.62-8.07,8.07-8.07s8.07,3.62,8.07,8.07v.1ZM121.92,41.98h15.74c-.05-4.29-3.56-7.77-7.87-7.77s-7.82,3.48-7.87,7.77Z"/><path class="cls-1" d="M129.79,33.32c-4.45,0-8.07-3.62-8.07-8.07v-.1h16.14v.1c0,4.45-3.62,8.07-8.07,8.07ZM121.92,25.35c.05,4.29,3.56,7.77,7.87,7.77s7.82-3.48,7.87-7.77h-15.74Z"/><path class="cls-1" d="M129.45,94.88h-.1c-4.45,0-8.07-3.62-8.07-8.07s3.62-8.07,8.07-8.07h.1v16.14ZM129.25,78.94c-4.29.05-7.77,3.56-7.77,7.87s3.48,7.82,7.77,7.87v-15.74Z"/><path class="cls-1" d="M130.23,94.88h-.1v-16.14h.1c4.45,0,8.07,3.62,8.07,8.07s-3.62,8.07-8.07,8.07ZM130.33,78.94v15.74c4.29-.05,7.77-3.56,7.77-7.87s-3.48-7.82-7.77-7.87Z"/><path class="cls-1" d="M121.38,148.03h-.1v-16.14h.1c4.45,0,8.07,3.62,8.07,8.07s-3.62,8.07-8.07,8.07ZM121.47,132.08v15.74c4.29-.05,7.77-3.56,7.77-7.87s-3.48-7.82-7.77-7.87Z"/><path class="cls-1" d="M138.3,148.03h-.1c-4.45,0-8.07-3.62-8.07-8.07s3.62-8.07,8.07-8.07h.1v16.14ZM138.1,132.08c-4.29.05-7.77,3.56-7.77,7.87s3.48,7.82,7.77,7.87v-15.74Z"/><path class="cls-1" d="M121.38,130.31h-.1v-16.14h.1c4.45,0,8.07,3.62,8.07,8.07s-3.62,8.07-8.07,8.07ZM121.47,114.37v15.74c4.29-.05,7.77-3.56,7.77-7.87s-3.48-7.82-7.77-7.87Z"/><path class="cls-1" d="M138.3,130.31h-.1c-4.45,0-8.07-3.62-8.07-8.07s3.62-8.07,8.07-8.07h.1v16.14ZM138.1,114.37c-4.29.05-7.77,3.56-7.77,7.87s3.48,7.82,7.77,7.87v-15.74Z"/><path class="cls-1" d="M137.86,113.04h-16.14v-.1c0-4.45,3.62-8.07,8.07-8.07s8.07,3.62,8.07,8.07v.1ZM121.92,112.84h15.74c-.05-4.29-3.56-7.77-7.87-7.77s-7.82,3.48-7.87,7.77Z"/><path class="cls-1" d="M129.79,104.18c-4.45,0-8.07-3.62-8.07-8.07v-.1h16.14v.1c0,4.45-3.62,8.07-8.07,8.07ZM121.92,96.21c.05,4.29,3.56,7.77,7.87,7.77s7.82-3.48,7.87-7.77h-15.74Z"/><path class="cls-1" d="M140.01,24.02h-.1V7.88h.1c4.45,0,8.07,3.62,8.07,8.07s-3.62,8.07-8.07,8.07ZM140.11,8.08v15.74c4.29-.05,7.77-3.56,7.77-7.87s-3.48-7.82-7.77-7.87Z"/><path class="cls-1" d="M156.94,24.02h-.1c-4.45,0-8.07-3.62-8.07-8.07s3.62-8.07,8.07-8.07h.1v16.14ZM156.74,8.08c-4.29.05-7.77,3.56-7.77,7.87s3.48,7.82,7.77,7.87v-15.74Z"/><path class="cls-1" d="M156.5,77.61h-16.14v-.1c0-4.45,3.62-8.07,8.07-8.07s8.07,3.62,8.07,8.07v.1ZM140.55,77.41h15.74c-.05-4.29-3.56-7.77-7.87-7.77s-7.82,3.48-7.87,7.77Z"/><path class="cls-1" d="M148.42,68.75c-4.45,0-8.07-3.62-8.07-8.07v-.1h16.14v.1c0,4.45-3.62,8.07-8.07,8.07ZM140.55,60.78c.05,4.29,3.56,7.77,7.87,7.77s7.82-3.48,7.87-7.77h-15.74Z"/><path class="cls-1" d="M140.01,59.45h-.1v-16.14h.1c4.45,0,8.07,3.62,8.07,8.07s-3.62,8.07-8.07,8.07ZM140.11,43.51v15.74c4.29-.05,7.77-3.56,7.77-7.87s-3.48-7.82-7.77-7.87Z"/><path class="cls-1" d="M156.94,59.45h-.1c-4.45,0-8.07-3.62-8.07-8.07s3.62-8.07,8.07-8.07h.1v16.14ZM156.74,43.51c-4.29.05-7.77,3.56-7.77,7.87s3.48,7.82,7.77,7.87v-15.74Z"/><path class="cls-1" d="M156.5,42.18h-16.14v-.1c0-4.45,3.62-8.07,8.07-8.07s8.07,3.62,8.07,8.07v.1ZM140.55,41.98h15.74c-.05-4.29-3.56-7.77-7.87-7.77s-7.82,3.48-7.87,7.77Z"/><path class="cls-1" d="M148.42,33.32c-4.45,0-8.07-3.62-8.07-8.07v-.1h16.14v.1c0,4.45-3.62,8.07-8.07,8.07ZM140.55,25.35c.05,4.29,3.56,7.77,7.87,7.77s7.82-3.48,7.87-7.77h-15.74Z"/><path class="cls-1" d="M140.01,94.88h-.1v-16.14h.1c4.45,0,8.07,3.62,8.07,8.07s-3.62,8.07-8.07,8.07ZM140.11,78.94v15.74c4.29-.05,7.77-3.56,7.77-7.87s-3.48-7.82-7.77-7.87Z"/><path class="cls-1" d="M156.94,94.88h-.1c-4.45,0-8.07-3.62-8.07-8.07s3.62-8.07,8.07-8.07h.1v16.14ZM156.74,78.94c-4.29.05-7.77,3.56-7.77,7.87s3.48,7.82,7.77,7.87v-15.74Z"/><path class="cls-1" d="M156.5,148.47h-16.14v-.1c0-4.45,3.62-8.07,8.07-8.07s8.07,3.62,8.07,8.07v.1ZM140.55,148.27h15.74c-.05-4.29-3.56-7.77-7.87-7.77s-7.82,3.48-7.87,7.77Z"/><path class="cls-1" d="M148.42,139.61c-4.45,0-8.07-3.62-8.07-8.07v-.1h16.14v.1c0,4.45-3.62,8.07-8.07,8.07ZM140.55,131.64c.05,4.29,3.56,7.77,7.87,7.77s7.82-3.48,7.87-7.77h-15.74Z"/><path class="cls-1" d="M140.01,130.31h-.1v-16.14h.1c4.45,0,8.07,3.62,8.07,8.07s-3.62,8.07-8.07,8.07ZM140.11,114.37v15.74c4.29-.05,7.77-3.56,7.77-7.87s-3.48-7.82-7.77-7.87Z"/><path class="cls-1" d="M156.94,130.31h-.1c-4.45,0-8.07-3.62-8.07-8.07s3.62-8.07,8.07-8.07h.1v16.14ZM156.74,114.37c-4.29.05-7.77,3.56-7.77,7.87s3.48,7.82,7.77,7.87v-15.74Z"/><path class="cls-1" d="M156.5,113.04h-16.14v-.1c0-4.45,3.62-8.07,8.07-8.07s8.07,3.62,8.07,8.07v.1ZM140.55,112.84h15.74c-.05-4.29-3.56-7.77-7.87-7.77s-7.82,3.48-7.87,7.77Z"/><path class="cls-1" d="M148.42,104.18c-4.45,0-8.07-3.62-8.07-8.07v-.1h16.14v.1c0,4.45-3.62,8.07-8.07,8.07ZM140.55,96.21c.05,4.29,3.56,7.77,7.87,7.77s7.82-3.48,7.87-7.77h-15.74Z"/><path class="cls-1" d="M26.05,59.9H9.91v-.1c0-4.45,3.62-8.07,8.07-8.07s8.07,3.62,8.07,8.07v.1ZM10.11,59.69h15.74c-.05-4.29-3.56-7.77-7.87-7.77s-7.82,3.48-7.87,7.77Z"/><path class="cls-1" d="M17.98,51.04c-4.45,0-8.07-3.62-8.07-8.07v-.1h16.14v.1c0,4.45-3.62,8.07-8.07,8.07ZM10.11,43.07c.05,4.29,3.56,7.77,7.87,7.77s7.82-3.48,7.87-7.77h-15.74Z"/><path class="cls-1" d="M26.05,130.75H9.91v-.1c0-4.45,3.62-8.07,8.07-8.07s8.07,3.62,8.07,8.07v.1ZM10.11,130.55h15.74c-.05-4.29-3.56-7.77-7.87-7.77s-7.82,3.48-7.87,7.77Z"/><path class="cls-1" d="M17.98,121.9c-4.45,0-8.07-3.62-8.07-8.07v-.1h16.14v.1c0,4.45-3.62,8.07-8.07,8.07ZM10.11,113.92c.05,4.29,3.56,7.77,7.87,7.77s7.82-3.48,7.87-7.77h-15.74Z"/><path class="cls-1" d="M9.57,112.6h-.1v-16.14h.1c4.45,0,8.07,3.62,8.07,8.07s-3.62,8.07-8.07,8.07ZM9.67,96.65v15.74c4.29-.05,7.77-3.56,7.77-7.87s-3.48-7.82-7.77-7.87Z"/><path class="cls-1" d="M26.5,112.6h-.1c-4.45,0-8.07-3.62-8.07-8.07s3.62-8.07,8.07-8.07h.1v16.14ZM26.3,96.65c-4.29.05-7.77,3.56-7.77,7.87s3.48,7.82,7.77,7.87v-15.74Z"/><path class="cls-1" d="M45.13,24.02h-.1c-4.45,0-8.07-3.62-8.07-8.07s3.62-8.07,8.07-8.07h.1v16.14ZM44.93,8.08c-4.29.05-7.77,3.56-7.77,7.87s3.48,7.82,7.77,7.87v-15.74Z"/><path class="cls-1" d="M28.2,24.02h-.1V7.88h.1c4.45,0,8.07,3.62,8.07,8.07s-3.62,8.07-8.07,8.07ZM28.3,8.08v15.74c4.29-.05,7.77-3.56,7.77-7.87s-3.48-7.82-7.77-7.87Z"/><path class="cls-1" d="M36.62,51.04c-4.45,0-8.07-3.62-8.07-8.07v-.1h16.14v.1c0,4.45-3.62,8.07-8.07,8.07ZM28.75,43.07c.05,4.29,3.56,7.77,7.87,7.77s7.82-3.48,7.87-7.77h-15.74Z"/><path class="cls-1" d="M44.69,59.9h-16.14v-.1c0-4.45,3.62-8.07,8.07-8.07s8.07,3.62,8.07,8.07v.1ZM28.75,59.69h15.74c-.05-4.29-3.56-7.77-7.87-7.77s-7.82,3.48-7.87,7.77Z"/><path class="cls-1" d="M45.13,41.74h-.1c-4.45,0-8.07-3.62-8.07-8.07s3.62-8.07,8.07-8.07h.1v16.14ZM44.93,25.79c-4.29.05-7.77,3.56-7.77,7.87s3.48,7.82,7.77,7.87v-15.74Z"/><path class="cls-1" d="M28.2,41.74h-.1v-16.14h.1c4.45,0,8.07,3.62,8.07,8.07s-3.62,8.07-8.07,8.07ZM28.3,25.79v15.74c4.29-.05,7.77-3.56,7.77-7.87s-3.48-7.82-7.77-7.87Z"/><path class="cls-1" d="M45.13,148.03h-.1c-4.45,0-8.07-3.62-8.07-8.07s3.62-8.07,8.07-8.07h.1v16.14ZM44.93,132.08c-4.29.05-7.77,3.56-7.77,7.87s3.48,7.82,7.77,7.87v-15.74Z"/><path class="cls-1" d="M28.2,148.03h-.1v-16.14h.1c4.45,0,8.07,3.62,8.07,8.07s-3.62,8.07-8.07,8.07ZM28.3,132.08v15.74c4.29-.05,7.77-3.56,7.77-7.87s-3.48-7.82-7.77-7.87Z"/><path class="cls-1" d="M36.62,121.9c-4.45,0-8.07-3.62-8.07-8.07v-.1h16.14v.1c0,4.45-3.62,8.07-8.07,8.07ZM28.75,113.92c.05,4.29,3.56,7.77,7.87,7.77s7.82-3.48,7.87-7.77h-15.74Z"/><path class="cls-1" d="M44.69,130.75h-16.14v-.1c0-4.45,3.62-8.07,8.07-8.07s8.07,3.62,8.07,8.07v.1ZM28.75,130.55h15.74c-.05-4.29-3.56-7.77-7.87-7.77s-7.82,3.48-7.87,7.77Z"/><path class="cls-1" d="M45.13,112.6h-.1c-4.45,0-8.07-3.62-8.07-8.07s3.62-8.07,8.07-8.07h.1v16.14ZM44.93,96.65c-4.29.05-7.77,3.56-7.77,7.87s3.48,7.82,7.77,7.87v-15.74Z"/><path class="cls-1" d="M28.2,112.6h-.1v-16.14h.1c4.45,0,8.07,3.62,8.07,8.07s-3.62,8.07-8.07,8.07ZM28.3,96.65v15.74c4.29-.05,7.77-3.56,7.77-7.87s-3.48-7.82-7.77-7.87Z"/><path class="cls-1" d="M54.91,24.02h-.1c-4.45,0-8.07-3.62-8.07-8.07s3.62-8.07,8.07-8.07h.1v16.14ZM54.71,8.08c-4.29.05-7.77,3.56-7.77,7.87s3.48,7.82,7.77,7.87v-15.74Z"/><path class="cls-1" d="M55.69,24.02h-.1V7.88h.1c4.45,0,8.07,3.62,8.07,8.07s-3.62,8.07-8.07,8.07ZM55.79,8.08v15.74c4.29-.05,7.77-3.56,7.77-7.87s-3.48-7.82-7.77-7.87Z"/><path class="cls-1" d="M17.64,24.02h-.1c-4.45,0-8.07-3.62-8.07-8.07s3.62-8.07,8.07-8.07h.1v16.14ZM17.44,8.08c-4.29.05-7.77,3.56-7.77,7.87s3.48,7.82,7.77,7.87v-15.74Z"/><path class="cls-1" d="M18.43,24.02h-.1V7.88h.1c4.45,0,8.07,3.62,8.07,8.07s-3.62,8.07-8.07,8.07ZM18.53,8.08v15.74c4.29-.05,7.77-3.56,7.77-7.87s-3.48-7.82-7.77-7.87Z"/><path class="cls-1" d="M46.84,59.45h-.1v-16.14h.1c4.45,0,8.07,3.62,8.07,8.07s-3.62,8.07-8.07,8.07ZM46.94,43.51v15.74c4.29-.05,7.77-3.56,7.77-7.87s-3.48-7.82-7.77-7.87Z"/><path class="cls-1" d="M63.77,59.45h-.1c-4.45,0-8.07-3.62-8.07-8.07s3.62-8.07,8.07-8.07h.1v16.14ZM63.57,43.51c-4.29.05-7.77,3.56-7.77,7.87s3.48,7.82,7.77,7.87v-15.74Z"/><path class="cls-1" d="M63.32,42.18h-16.14v-.1c0-4.45,3.62-8.07,8.07-8.07s8.07,3.62,8.07,8.07v.1ZM47.38,41.98h15.74c-.05-4.29-3.56-7.77-7.87-7.77s-7.82,3.48-7.87,7.77Z"/><path class="cls-1" d="M55.25,33.32c-4.45,0-8.07-3.62-8.07-8.07v-.1h16.14v.1c0,4.45-3.62,8.07-8.07,8.07ZM47.38,25.35c.05,4.29,3.56,7.77,7.87,7.77s7.82-3.48,7.87-7.77h-15.74Z"/><path class="cls-1" d="M26.05,42.18H9.91v-.1c0-4.45,3.62-8.07,8.07-8.07s8.07,3.62,8.07,8.07v.1ZM10.11,41.98h15.74c-.05-4.29-3.56-7.77-7.87-7.77s-7.82,3.48-7.87,7.77Z"/><path class="cls-1" d="M17.98,33.32c-4.45,0-8.07-3.62-8.07-8.07v-.1h16.14v.1c0,4.45-3.62,8.07-8.07,8.07ZM10.11,25.35c.05,4.29,3.56,7.77,7.87,7.77s7.82-3.48,7.87-7.77h-15.74Z"/><path class="cls-1" d="M46.84,148.03h-.1v-16.14h.1c4.45,0,8.07,3.62,8.07,8.07s-3.62,8.07-8.07,8.07ZM46.94,132.08v15.74c4.29-.05,7.77-3.56,7.77-7.87s-3.48-7.82-7.77-7.87Z"/><path class="cls-1" d="M63.77,148.03h-.1c-4.45,0-8.07-3.62-8.07-8.07s3.62-8.07,8.07-8.07h.1v16.14ZM63.57,132.08c-4.29.05-7.77,3.56-7.77,7.87s3.48,7.82,7.77,7.87v-15.74Z"/><path class="cls-1" d="M46.84,130.31h-.1v-16.14h.1c4.45,0,8.07,3.62,8.07,8.07s-3.62,8.07-8.07,8.07ZM46.94,114.37v15.74c4.29-.05,7.77-3.56,7.77-7.87s-3.48-7.82-7.77-7.87Z"/><path class="cls-1" d="M63.77,130.31h-.1c-4.45,0-8.07-3.62-8.07-8.07s3.62-8.07,8.07-8.07h.1v16.14ZM63.57,114.37c-4.29.05-7.77,3.56-7.77,7.87s3.48,7.82,7.77,7.87v-15.74Z"/><path class="cls-1" d="M63.32,113.04h-16.14v-.1c0-4.45,3.62-8.07,8.07-8.07s8.07,3.62,8.07,8.07v.1ZM47.38,112.84h15.74c-.05-4.29-3.56-7.77-7.87-7.77s-7.82,3.48-7.87,7.77Z"/><path class="cls-1" d="M55.25,104.18c-4.45,0-8.07-3.62-8.07-8.07v-.1h16.14v.1c0,4.45-3.62,8.07-8.07,8.07ZM47.38,96.21c.05,4.29,3.56,7.77,7.87,7.77s7.82-3.48,7.87-7.77h-15.74Z"/><path class="cls-1" d="M65.47,24.02h-.1V7.88h.1c4.45,0,8.07,3.62,8.07,8.07s-3.62,8.07-8.07,8.07ZM65.57,8.08v15.74c4.29-.05,7.77-3.56,7.77-7.87s-3.48-7.82-7.77-7.87Z"/><path class="cls-1" d="M82.4,24.02h-.1c-4.45,0-8.07-3.62-8.07-8.07s3.62-8.07,8.07-8.07h.1v16.14ZM82.2,8.08c-4.29.05-7.77,3.56-7.77,7.87s3.48,7.82,7.77,7.87v-15.74Z"/><path class="cls-1" d="M65.47,59.45h-.1v-16.14h.1c4.45,0,8.07,3.62,8.07,8.07s-3.62,8.07-8.07,8.07ZM65.57,43.51v15.74c4.29-.05,7.77-3.56,7.77-7.87s-3.48-7.82-7.77-7.87Z"/><path class="cls-1" d="M82.4,59.45h-.1c-4.45,0-8.07-3.62-8.07-8.07s3.62-8.07,8.07-8.07h.1v16.14ZM82.2,43.51c-4.29.05-7.77,3.56-7.77,7.87s3.48,7.82,7.77,7.87v-15.74Z"/><path class="cls-1" d="M81.96,42.18h-16.14v-.1c0-4.45,3.62-8.07,8.07-8.07s8.07,3.62,8.07,8.07v.1ZM66.02,41.98h15.74c-.05-4.29-3.56-7.77-7.87-7.77s-7.82,3.48-7.87,7.77Z"/><path class="cls-1" d="M73.89,33.32c-4.45,0-8.07-3.62-8.07-8.07v-.1h16.14v.1c0,4.45-3.62,8.07-8.07,8.07ZM66.02,25.35c.05,4.29,3.56,7.77,7.87,7.77s7.82-3.48,7.87-7.77h-15.74Z"/><path class="cls-1" d="M81.96,148.47h-16.14v-.1c0-4.45,3.62-8.07,8.07-8.07s8.07,3.62,8.07,8.07v.1ZM66.02,148.27h15.74c-.05-4.29-3.56-7.77-7.87-7.77s-7.82,3.48-7.87,7.77Z"/><path class="cls-1" d="M73.89,139.61c-4.45,0-8.07-3.62-8.07-8.07v-.1h16.14v.1c0,4.45-3.62,8.07-8.07,8.07ZM66.02,131.64c.05,4.29,3.56,7.77,7.87,7.77s7.82-3.48,7.87-7.77h-15.74Z"/><path class="cls-1" d="M65.47,130.31h-.1v-16.14h.1c4.45,0,8.07,3.62,8.07,8.07s-3.62,8.07-8.07,8.07ZM65.57,114.37v15.74c4.29-.05,7.77-3.56,7.77-7.87s-3.48-7.82-7.77-7.87Z"/><path class="cls-1" d="M82.4,130.31h-.1c-4.45,0-8.07-3.62-8.07-8.07s3.62-8.07,8.07-8.07h.1v16.14ZM82.2,114.37c-4.29.05-7.77,3.56-7.77,7.87s3.48,7.82,7.77,7.87v-15.74Z"/><path class="cls-1" d="M81.96,113.04h-16.14v-.1c0-4.45,3.62-8.07,8.07-8.07s8.07,3.62,8.07,8.07v.1ZM66.02,112.84h15.74c-.05-4.29-3.56-7.77-7.87-7.77s-7.82,3.48-7.87,7.77Z"/><path class="cls-1" d="M73.89,104.18c-4.45,0-8.07-3.62-8.07-8.07v-.1h16.14v.1c0,4.45-3.62,8.07-8.07,8.07ZM66.02,96.21c.05,4.29,3.56,7.77,7.87,7.77s7.82-3.48,7.87-7.77h-15.74Z"/><path class="cls-1" d="M17.98,148.47c-4.45,0-8.07-3.62-8.07-8.07v-.1h16.14v.1c0,4.45-3.62,8.07-8.07,8.07ZM10.11,140.5c.05,4.29,3.56,7.77,7.87,7.77s7.82-3.48,7.87-7.77h-15.74Z"/><path class="cls-1" d="M26.05,139.61H9.91v-.1c0-4.45,3.62-8.07,8.07-8.07s8.07,3.62,8.07,8.07v.1ZM10.11,139.41h15.74c-.05-4.29-3.56-7.77-7.87-7.77s-7.82,3.48-7.87,7.77Z"/><path class="cls-1" d="M222.62,24.02h-.1c-4.45,0-8.07-3.62-8.07-8.07s3.62-8.07,8.07-8.07h.1v16.14ZM222.42,8.08c-4.29.05-7.77,3.56-7.77,7.87s3.48,7.82,7.77,7.87v-15.74Z"/><path class="cls-1" d="M223.41,24.02h-.1V7.88h.1c4.45,0,8.07,3.62,8.07,8.07s-3.62,8.07-8.07,8.07ZM223.5,8.08v15.74c4.29-.05,7.77-3.56,7.77-7.87s-3.48-7.82-7.77-7.87Z"/><path class="cls-1" d="M222.62,148.47h-.1c-4.45,0-8.07-3.62-8.07-8.07s3.62-8.07,8.07-8.07h.1v16.14ZM222.42,132.53c-4.29.05-7.77,3.56-7.77,7.87s3.48,7.82,7.77,7.87v-15.74Z"/><path class="cls-1" d="M223.41,148.47h-.1v-16.14h.1c4.45,0,8.07,3.62,8.07,8.07s-3.62,8.07-8.07,8.07ZM223.5,132.53v15.74c4.29-.05,7.77-3.56,7.77-7.87s-3.48-7.82-7.77-7.87Z"/></svg>