<?xml version="1.0" encoding="utf-8"?>
<!-- Generator: Adobe Illustrator 26.3.1, SVG Export Plug-In . SVG Version: 6.00 Build 0)  -->
<svg version="1.1" id="Calque_1" xmlns="http://www.w3.org/2000/svg" xmlns:xlink="http://www.w3.org/1999/xlink" x="0px" y="0px"
	 viewBox="0 0 240.9 155.9" style="enable-background:new 0 0 240.9 155.9;" xml:space="preserve">
<style type="text/css">
	.st0{fill:#FFE115;}
	.st1{opacity:0.5;}
	.st2{clip-path:url(#SVGID_00000101813015604268080480000006402989608344398734_);}
</style>
<polygon class="st0" points="49.6,122.8 49.6,126.5 57.3,126.5 52.5,131.2 55.1,133.9 62.5,126.5 62.5,122.8 "/>
<g>
	<g>
		<g>
			<path class="st0" d="M61.8,129.6c1.5,1.5,2.4,3.6,2.4,5.9c0,4.6-3.7,8.3-8.3,8.3c-2.3,0-4.4-0.9-5.9-2.4l2.6-2.6
				c0.8,0.8,2,1.4,3.3,1.4c2.6,0,4.6-2.1,4.6-4.6c0-1.3-0.5-2.4-1.4-3.3L61.8,129.6L61.8,129.6L61.8,129.6z"/>
			<path class="st0" d="M45.1,128.3c-3.6,0-6.5,2.9-6.5,6.4v10.3h3.7v-4.5c0.8,0.4,1.8,0.6,2.8,0.6c3.6,0,6.5-2.9,6.5-6.4
				S48.6,128.3,45.1,128.3 M45.1,137.5c-1.5,0-2.8-1.2-2.8-2.8s1.2-2.8,2.8-2.8s2.8,1.2,2.8,2.8S46.6,137.5,45.1,137.5"/>
			<path class="st0" d="M22.1,137.5H22c-0.6,0-1.1-0.5-1.1-1.1v-4.9h3.1v-3.1h-3.1v-4.2h-3.7v4.2h-1.6v3.1h1.6v4.9
				c0,2,1.2,3.7,3,4.4c0.6,0.2,1.2,0.4,1.8,0.4s1.3-0.1,1.8-0.4c0.1-0.1,0.3-0.1,0.4-0.2L22.1,137.5L22.1,137.5L22.1,137.5z"/>
			<path class="st0" d="M30.9,128.3c-3.6,0-6.4,2.9-6.4,6.4s2.9,6.4,6.5,6.4c1,0,1.9-0.2,2.8-0.6v0.6h3.7v-6.4
				C37.4,131.2,34.5,128.3,30.9,128.3 M30.9,137.5c-1.5,0-2.8-1.2-2.8-2.8s1.2-2.8,2.8-2.8s2.8,1.2,2.8,2.8S32.5,137.5,30.9,137.5"
				/>
			<g class="st1">
				<g>
					<defs>
						<rect id="SVGID_1_" x="67.2" y="0" width="173.7" height="155.9"/>
					</defs>
					<clipPath id="SVGID_00000059285554062396221580000017748056387774173605_">
						<use xlink:href="#SVGID_1_"  style="overflow:visible;"/>
					</clipPath>
					<g style="clip-path:url(#SVGID_00000059285554062396221580000017748056387774173605_);">
						<g>
							<path class="st0" d="M240.9,22.5v-1c-0.1-0.2-0.1-0.4-0.1-0.6s0-0.4,0.1-0.6v-1c-0.4,0.4-0.6,1-0.6,1.6
								S240.6,22.1,240.9,22.5"/>
							<path class="st0" d="M237.3,20.9c0,2.4,1.5,4.4,3.6,5.2v-0.5c-1.8-0.8-3.1-2.5-3.1-4.6s1.3-3.9,3.1-4.6v-0.5
								C238.8,16.5,237.3,18.5,237.3,20.9"/>
							<path d="M240.9,2.7V2.2C239.9,1.8,239,1,238.5,0h-0.6C238.5,1.3,239.6,2.3,240.9,2.7"/>
							<polygon class="st0" points="231,2.7 227.3,6.3 229.8,8.8 236.1,2.5 236.1,0 235.6,0 235.6,2.3 229.8,8.1 228,6.3 232.2,2.2 
								225.5,2.2 225.5,0 225,0 225,2.7 							"/>
							<path class="st0" d="M225.4,14.8c1.3,1.3,3.1,2.1,5,2.1c3.9,0,7.1-3.2,7.1-7.1c0-1.9-0.7-3.7-2.1-5l-0.2-0.2l-2.5,2.5
								l0.2,0.2c0.7,0.7,1,1.6,1,2.5c0,1.9-1.6,3.5-3.5,3.5c-0.9,0-1.8-0.4-2.5-1l-0.2-0.2l-2.5,2.5L225.4,14.8L225.4,14.8
								L225.4,14.8z M227.8,12.8c0.7,0.6,1.7,1,2.7,1c2.2,0,4-1.8,4-4c0-1-0.4-1.9-1-2.7l1.8-1.8c1.1,1.2,1.8,2.8,1.8,4.5
								c0,3.6-2.9,6.6-6.6,6.6c-1.7,0-3.2-0.6-4.5-1.8L227.8,12.8L227.8,12.8L227.8,12.8z"/>
							<path class="st0" d="M221.6,14.7c3.1,0,5.5-2.5,5.5-5.5s-2.5-5.5-5.5-5.5s-5.5,2.5-5.5,5.5S218.5,14.7,221.6,14.7 M221.6,4.2
								c2.8,0,5,2.3,5,5s-2.3,5-5,5s-5-2.3-5-5S218.8,4.2,221.6,4.2"/>
							<path class="st0" d="M221.6,11.7c1.4,0,2.5-1.1,2.5-2.5s-1.1-2.5-2.5-2.5s-2.5,1.1-2.5,2.5S220.2,11.7,221.6,11.7 M221.6,7.2
								c1.1,0,2,0.9,2,2s-0.9,2-2,2s-2-0.9-2-2S220.5,7.2,221.6,7.2"/>
							<path class="st0" d="M237.3,67.5c0,2.4,1.5,4.4,3.6,5.2v-0.5c-1.8-0.8-3.1-2.6-3.1-4.7s1.3-3.9,3.1-4.7v-0.5
								C238.8,63.1,237.3,65.1,237.3,67.5"/>
							<path class="st0" d="M240.9,69.1v-1c-0.1-0.2-0.1-0.4-0.1-0.6s0-0.4,0.1-0.6v-1c-0.4,0.4-0.6,1-0.6,1.6
								S240.6,68.7,240.9,69.1"/>
							<path class="st0" d="M240.9,45.8v-1c-0.1-0.2-0.1-0.4-0.1-0.6s0-0.4,0.1-0.6v-1c-0.4,0.4-0.6,1-0.6,1.6
								S240.6,45.4,240.9,45.8"/>
							<path class="st0" d="M237.3,44.2c0,2.4,1.5,4.4,3.6,5.2v-0.5c-1.8-0.8-3.1-2.5-3.1-4.7s1.3-3.9,3.1-4.7V39
								C238.8,39.8,237.3,41.8,237.3,44.2"/>
							<path class="st0" d="M229.8,55.5l6.3-6.3v-3.4H225v3.5h5.9l-3.6,3.7C227.3,53,229.8,55.5,229.8,55.5z M225.5,48.8v-2.5h10.1
								V49l-5.8,5.8L228,53l4.1-4.2L225.5,48.8L225.5,48.8z"/>
							<path class="st0" d="M235.2,51.2l-2.5,2.5l0.2,0.2c0.7,0.7,1,1.6,1,2.5c0,2-1.6,3.5-3.5,3.5c-0.9,0-1.8-0.4-2.5-1l-0.2-0.2
								l-2.5,2.5l0.2,0.2c1.3,1.3,3.1,2.1,5,2.1c3.9,0,7.1-3.2,7.1-7.1c0-1.9-0.7-3.7-2.1-5L235.2,51.2L235.2,51.2L235.2,51.2z
								 M230.4,63c-1.7,0-3.2-0.6-4.5-1.8l1.8-1.8c0.7,0.7,1.7,1,2.7,1c2.2,0,4-1.8,4-4c0-1-0.4-1.9-1-2.7l1.8-1.8
								c1.1,1.2,1.8,2.8,1.8,4.5C237,60,234,63,230.4,63"/>
							<path class="st0" d="M227.1,55.9c0-3-2.5-5.5-5.5-5.5s-5.5,2.5-5.5,5.5s2.5,5.5,5.5,5.5S227.1,58.9,227.1,55.9 M221.6,60.9
								c-2.8,0-5-2.3-5-5s2.3-5,5-5s5,2.3,5,5S224.4,60.9,221.6,60.9"/>
							<path class="st0" d="M221.6,53.3c-1.4,0-2.5,1.1-2.5,2.5s1.1,2.5,2.5,2.5s2.5-1.1,2.5-2.5S223,53.3,221.6,53.3 M221.6,57.9
								c-1.1,0-2-0.9-2-2s0.9-2,2-2s2,0.9,2,2S222.7,57.9,221.6,57.9"/>
							<path class="st0" d="M229.8,32.1l6.3-6.3v-3.4H225V26h5.9l-3.6,3.6L229.8,32.1z M225.5,25.5V23h10.1v2.7l-5.8,5.8l-1.8-1.8
								l4.1-4.1L225.5,25.5L225.5,25.5z"/>
							<path class="st0" d="M235.2,27.9l-2.5,2.5l0.2,0.2c0.7,0.7,1,1.6,1,2.5c0,2-1.6,3.5-3.5,3.5c-0.9,0-1.8-0.4-2.5-1l-0.2-0.2
								l-2.5,2.5l0.2,0.2c1.3,1.3,3.1,2.1,5,2.1c3.9,0,7.1-3.2,7.1-7.1c0-1.9-0.7-3.7-2.1-5L235.2,27.9L235.2,27.9L235.2,27.9z
								 M230.4,39.6c-1.7,0-3.2-0.6-4.5-1.8l1.8-1.8c0.7,0.7,1.7,1,2.7,1c2.2,0,4-1.8,4-4c0-1-0.4-1.9-1-2.7l1.8-1.8
								c1.1,1.2,1.8,2.8,1.8,4.5C237,36.7,234,39.6,230.4,39.6"/>
							<path class="st0" d="M219.1,32.5c0,1.4,1.1,2.5,2.5,2.5s2.5-1.1,2.5-2.5S223,30,221.6,30S219.1,31.2,219.1,32.5 M223.6,32.5
								c0,1.1-0.9,2-2,2s-2-0.9-2-2s0.9-2,2-2S223.6,31.4,223.6,32.5"/>
							<path class="st0" d="M216.1,32.5c0,3,2.5,5.5,5.5,5.5s5.5-2.5,5.5-5.5s-2.5-5.5-5.5-5.5S216.1,29.5,216.1,32.5 M226.6,32.5
								c0,2.8-2.3,5-5,5s-5-2.3-5-5s2.3-5,5-5S226.6,29.8,226.6,32.5"/>
							<path class="st0" d="M240.9,115.8v-1c-0.1-0.2-0.1-0.4-0.1-0.6s0-0.4,0.1-0.6v-1c-0.4,0.4-0.6,1-0.6,1.6
								S240.6,115.3,240.9,115.8"/>
							<path class="st0" d="M237.3,114.2c0,2.4,1.5,4.4,3.6,5.2v-0.5c-1.8-0.8-3.1-2.6-3.1-4.7s1.3-3.9,3.1-4.7V109
								C238.8,109.8,237.3,111.8,237.3,114.2"/>
							<path class="st0" d="M240.9,92.5v-1c-0.1-0.2-0.1-0.4-0.1-0.6s0-0.4,0.1-0.6v-1c-0.4,0.4-0.6,1-0.6,1.6S240.6,92,240.9,92.5"
								/>
							<path class="st0" d="M237.3,90.8c0,2.4,1.5,4.4,3.6,5.2v-0.5c-1.8-0.8-3.1-2.6-3.1-4.7s1.3-3.9,3.1-4.7v-0.5
								C238.8,86.4,237.3,88.5,237.3,90.8"/>
							<path class="st0" d="M229.8,102.1l6.3-6.3v-3.4H225v3.5h5.9l-3.6,3.7L229.8,102.1L229.8,102.1L229.8,102.1z M225.5,95.5V93
								h10.1v2.7l-5.8,5.8l-1.8-1.8l4.1-4.2L225.5,95.5L225.5,95.5z"/>
							<path class="st0" d="M235.2,97.9l-2.5,2.5l0.2,0.2c0.7,0.7,1,1.6,1,2.5c0,1.9-1.6,3.5-3.5,3.5c-0.9,0-1.8-0.4-2.5-1l-0.2-0.2
								l-2.5,2.5l0.2,0.2c1.3,1.3,3.1,2.1,5,2.1c3.9,0,7.1-3.2,7.1-7.1c0-1.9-0.7-3.7-2.1-5L235.2,97.9L235.2,97.9L235.2,97.9z
								 M230.4,109.6c-1.7,0-3.2-0.6-4.5-1.8l1.8-1.8c0.7,0.7,1.7,1,2.7,1c2.2,0,4-1.8,4-4c0-1-0.4-1.9-1-2.7l1.8-1.8
								c1.1,1.2,1.8,2.8,1.8,4.5C237,106.7,234,109.6,230.4,109.6"/>
							<path class="st0" d="M221.6,100c-1.4,0-2.5,1.1-2.5,2.5s1.1,2.5,2.5,2.5s2.5-1.1,2.5-2.5S223,100,221.6,100 M221.6,104.5
								c-1.1,0-2-0.9-2-2s0.9-2,2-2s2,0.9,2,2S222.7,104.5,221.6,104.5"/>
							<path class="st0" d="M227.1,102.5c0-3.1-2.5-5.5-5.5-5.5s-5.5,2.5-5.5,5.5s2.5,5.5,5.5,5.5S227.1,105.5,227.1,102.5
								 M221.6,107.5c-2.8,0-5-2.3-5-5s2.3-5,5-5s5,2.3,5,5S224.4,107.5,221.6,107.5"/>
							<path class="st0" d="M229.8,78.8l6.3-6.3v-3.4H225v3.5h5.9l-3.6,3.7C227.3,76.3,229.8,78.8,229.8,78.8z M225.5,72.1v-2.5
								h10.1v2.7l-5.8,5.8l-1.8-1.8l4.1-4.2L225.5,72.1L225.5,72.1z"/>
							<path class="st0" d="M235.2,74.6l-2.5,2.5l0.2,0.2c0.7,0.7,1,1.6,1,2.5c0,1.9-1.6,3.5-3.5,3.5c-0.9,0-1.8-0.4-2.5-1l-0.2-0.2
								l-2.5,2.5l0.2,0.2c1.3,1.3,3.1,2.1,5,2.1c3.9,0,7.1-3.2,7.1-7.1c0-1.9-0.7-3.7-2.1-5L235.2,74.6L235.2,74.6L235.2,74.6z
								 M230.4,86.3c-1.7,0-3.2-0.6-4.5-1.8l1.8-1.8c0.7,0.7,1.7,1,2.7,1c2.2,0,4-1.8,4-4c0-1-0.4-1.9-1-2.7l1.8-1.8
								c1.1,1.2,1.8,2.8,1.8,4.5C237,83.4,234,86.3,230.4,86.3"/>
							<path class="st0" d="M221.6,76.7c-1.4,0-2.5,1.1-2.5,2.5s1.1,2.5,2.5,2.5s2.5-1.1,2.5-2.5S223,76.7,221.6,76.7 M221.6,81.2
								c-1.1,0-2-0.9-2-2s0.9-2,2-2s2,0.9,2,2S222.7,81.2,221.6,81.2"/>
							<path class="st0" d="M227.1,79.2c0-3.1-2.5-5.5-5.5-5.5s-5.5,2.5-5.5,5.5s2.5,5.5,5.5,5.5S227.1,82.2,227.1,79.2 M221.6,84.2
								c-2.8,0-5-2.3-5-5s2.3-5,5-5s5,2.3,5,5S224.4,84.2,221.6,84.2"/>
							<path class="st0" d="M240.9,155.6c-0.2,0.1-0.5,0.2-0.7,0.3h0.7V155.6z"/>
							<path class="st0" d="M240.9,139.1v-1c-0.1-0.2-0.1-0.4-0.1-0.6s0-0.4,0.1-0.6v-1c-0.4,0.4-0.6,1-0.6,1.6
								S240.6,138.6,240.9,139.1"/>
							<path class="st0" d="M237.3,137.5c0,2.4,1.5,4.4,3.6,5.2v-0.5c-1.8-0.8-3.1-2.6-3.1-4.6s1.3-3.9,3.1-4.6v-0.5
								C238.8,133.1,237.3,135.1,237.3,137.5"/>
							<path class="st0" d="M225,142.6h5.9l-3.6,3.6l2.5,2.5l6.3-6.3v-3.4H225V142.6L225,142.6L225,142.6z M225.5,139.6h10.1v2.7
								l-5.8,5.8l-1.8-1.8l4.1-4.1h-6.6V139.6L225.5,139.6L225.5,139.6z"/>
							<path class="st0" d="M237.5,149.7c0-1.9-0.7-3.7-2.1-5l-0.2-0.2l-2.5,2.5l0.2,0.2c0.7,0.7,1,1.6,1,2.5c0,1.9-1.6,3.5-3.5,3.5
								c-0.9,0-1.8-0.4-2.5-1l-0.2-0.2l-2.5,2.5l0.2,0.2c0.5,0.5,1.1,0.9,1.7,1.2h1.3c-0.9-0.3-1.7-0.8-2.4-1.4l1.8-1.8
								c0.7,0.6,1.7,1,2.7,1c2.2,0,4-1.8,4-4c0-1-0.4-1.9-1-2.7l1.8-1.8c1.1,1.2,1.8,2.8,1.8,4.5c0,2.9-1.9,5.4-4.5,6.2h1.3
								C236,154.7,237.5,152.4,237.5,149.7"/>
							<path class="st0" d="M221.6,146.6c-1.4,0-2.5,1.1-2.5,2.5s1.1,2.5,2.5,2.5s2.5-1.1,2.5-2.5S223,146.6,221.6,146.6
								 M221.6,151.1c-1.1,0-2-0.9-2-2s0.9-2,2-2s2,0.9,2,2S222.7,151.1,221.6,151.1"/>
							<path class="st0" d="M221.6,143.6c-3.1,0-5.5,2.5-5.5,5.5s2.5,5.5,5.5,5.5s5.5-2.5,5.5-5.5S224.6,143.6,221.6,143.6
								 M221.6,154.2c-2.8,0-5-2.3-5-5s2.3-5,5-5s5,2.3,5,5S224.4,154.2,221.6,154.2"/>
							<path class="st0" d="M229.8,125.4l6.3-6.3v-3.4H225v3.5h5.9l-3.6,3.7L229.8,125.4L229.8,125.4L229.8,125.4z M225.5,118.8
								v-2.5h10.1v2.7l-5.8,5.8L228,123l4.1-4.2L225.5,118.8L225.5,118.8z"/>
							<path class="st0" d="M235.2,121.2l-2.5,2.5l0.2,0.2c0.7,0.7,1,1.6,1,2.5c0,1.9-1.6,3.5-3.5,3.5c-0.9,0-1.8-0.4-2.5-1
								l-0.2-0.2l-2.5,2.5l0.2,0.2c1.3,1.3,3.1,2.1,5,2.1c3.9,0,7.1-3.2,7.1-7.1c0-1.9-0.7-3.7-2.1-5L235.2,121.2L235.2,121.2
								L235.2,121.2z M230.4,132.9c-1.7,0-3.2-0.6-4.5-1.8l1.8-1.8c0.7,0.6,1.7,1,2.7,1c2.2,0,4-1.8,4-4c0-1-0.4-1.9-1-2.7l1.8-1.8
								c1.1,1.2,1.8,2.8,1.8,4.5C237,130,234,132.9,230.4,132.9"/>
							<path class="st0" d="M221.6,128.3c1.4,0,2.5-1.1,2.5-2.5s-1.1-2.5-2.5-2.5s-2.5,1.1-2.5,2.5S220.2,128.3,221.6,128.3
								 M221.6,123.8c1.1,0,2,0.9,2,2s-0.9,2-2,2s-2-0.9-2-2S220.5,123.8,221.6,123.8"/>
							<path class="st0" d="M221.6,131.3c3.1,0,5.5-2.5,5.5-5.5s-2.5-5.5-5.5-5.5s-5.5,2.5-5.5,5.5
								C216.1,128.9,218.5,131.3,221.6,131.3 M221.6,120.8c2.8,0,5,2.3,5,5c0,2.8-2.3,5-5,5s-5-2.3-5-5S218.8,120.8,221.6,120.8"/>
							<path class="st0" d="M206.1,18l2.5,2.5l6.3-6.3v-3.4h-11.1v3.5h5.9L206.1,18L206.1,18L206.1,18z M204.3,13.9v-2.5h10.1V14
								l-5.8,5.8l-1.8-1.8l4.1-4.1L204.3,13.9L204.3,13.9z"/>
							<path class="st0" d="M209.2,25c-0.9,0-1.8-0.4-2.5-1l-0.2-0.2l-2.5,2.5l0.2,0.2c1.3,1.3,3.1,2.1,5,2.1c3.9,0,7.1-3.2,7.1-7.1
								c0-1.9-0.7-3.7-2.1-5l-0.2-0.2l-2.5,2.5l0.2,0.2c0.7,0.7,1,1.6,1,2.5C212.7,23.4,211.1,25,209.2,25 M213.2,21.4
								c0-1-0.4-1.9-1-2.7L214,17c1.1,1.2,1.8,2.8,1.8,4.5c0,3.6-2.9,6.6-6.6,6.6c-1.7,0-3.2-0.6-4.5-1.8l1.8-1.8
								c0.7,0.6,1.7,1,2.7,1C211.4,25.5,213.2,23.7,213.2,21.4"/>
							<path class="st0" d="M200.3,26.4c3.1,0,5.5-2.5,5.5-5.5s-2.5-5.5-5.5-5.5s-5.5,2.5-5.5,5.5S197.3,26.4,200.3,26.4
								 M200.3,15.8c2.8,0,5,2.3,5,5s-2.3,5-5,5s-5-2.3-5-5S197.6,15.8,200.3,15.8"/>
							<path class="st0" d="M200.3,23.4c1.4,0,2.5-1.1,2.5-2.5s-1.1-2.5-2.5-2.5s-2.5,1.1-2.5,2.5S198.9,23.4,200.3,23.4
								 M200.3,18.9c1.1,0,2,0.9,2,2s-0.9,2-2,2s-2-0.9-2-2S199.2,18.9,200.3,18.9"/>
							<path class="st0" d="M209.2,1.6c-0.9,0-1.8-0.4-2.5-1l-0.2-0.2L204,2.9l0.2,0.2c1.3,1.3,3.1,2.1,5,2.1c3.2,0,6-2.2,6.8-5.2
								h-0.5c-0.8,2.7-3.3,4.7-6.3,4.7c-1.7,0-3.2-0.6-4.5-1.8l1.8-1.8c0.7,0.6,1.7,1,2.7,1c1.5,0,2.9-0.9,3.6-2.2h-0.6
								C211.5,1,210.4,1.6,209.2,1.6"/>
							<path class="st0" d="M200.9,0h-1.2c0.2,0,0.4,0.1,0.6,0.1S200.7,0,200.9,0"/>
							<path class="st0" d="M200.3,3.1c2.2,0,4.1-1.3,5-3.1h-0.6c-0.9,1.5-2.5,2.6-4.4,2.6s-3.5-1-4.4-2.6h-0.6
								C196.3,1.8,198.2,3.1,200.3,3.1"/>
							<polygon class="st0" points="188.4,2.7 184.8,6.3 187.3,8.8 193.6,2.5 193.6,0 193.1,0 193.1,2.3 187.3,8.1 185.5,6.3 
								189.6,2.2 183,2.2 183,0 182.5,0 182.5,2.7 							"/>
							<path class="st0" d="M182.9,14.8c1.3,1.3,3.1,2.1,5,2.1c3.9,0,7.1-3.2,7.1-7.1c0-1.9-0.7-3.7-2.1-5l-0.2-0.2l-2.5,2.5
								l0.2,0.2c0.7,0.7,1,1.6,1,2.5c0,1.9-1.6,3.5-3.5,3.5c-0.9,0-1.8-0.4-2.5-1l-0.2-0.2l-2.5,2.5L182.9,14.8L182.9,14.8
								L182.9,14.8z M185.2,12.8c0.7,0.6,1.7,1,2.7,1c2.2,0,4-1.8,4-4c0-1-0.4-1.9-1-2.7l1.8-1.8c1.1,1.2,1.8,2.8,1.8,4.5
								c0,3.6-2.9,6.6-6.6,6.6c-1.7,0-3.2-0.6-4.5-1.8L185.2,12.8L185.2,12.8L185.2,12.8z"/>
							<path class="st0" d="M179.1,11.7c1.4,0,2.5-1.1,2.5-2.5s-1.1-2.5-2.5-2.5s-2.5,1.1-2.5,2.5S177.7,11.7,179.1,11.7 M179.1,7.2
								c1.1,0,2,0.9,2,2s-0.9,2-2,2s-2-0.9-2-2S177.9,7.2,179.1,7.2"/>
							<path class="st0" d="M179.1,14.7c3.1,0,5.5-2.5,5.5-5.5s-2.5-5.5-5.5-5.5s-5.5,2.5-5.5,5.5S176,14.7,179.1,14.7 M179.1,4.2
								c2.8,0,5,2.3,5,5s-2.3,5-5,5s-5-2.3-5-5S176.3,4.2,179.1,4.2"/>
							<path class="st0" d="M203.8,61h5.9l-3.6,3.7l2.5,2.5l6.3-6.3v-3.4h-11.1C203.8,57.5,203.8,61,203.8,61z M204.3,58h10.1v2.7
								l-5.8,5.8l-1.8-1.8l4.1-4.2h-6.6V58L204.3,58L204.3,58z"/>
							<path class="st0" d="M214.2,63.1l-0.2-0.2l-2.5,2.5l0.2,0.2c0.7,0.7,1,1.6,1,2.5c0,1.9-1.6,3.5-3.5,3.5c-0.9,0-1.8-0.4-2.5-1
								l-0.2-0.2l-2.5,2.5l0.2,0.2c1.3,1.3,3.1,2.1,5,2.1c3.9,0,7.1-3.2,7.1-7.1C216.2,66.2,215.5,64.4,214.2,63.1 M209.2,74.6
								c-1.7,0-3.2-0.6-4.5-1.8l1.8-1.8c0.7,0.7,1.7,1,2.7,1c2.2,0,4-1.8,4-4c0-1-0.4-1.9-1-2.7l1.8-1.8c1.1,1.2,1.8,2.8,1.8,4.5
								C215.7,71.7,212.8,74.6,209.2,74.6"/>
							<path class="st0" d="M197.8,67.5c0,1.4,1.1,2.5,2.5,2.5s2.5-1.1,2.5-2.5s-1.1-2.5-2.5-2.5S197.8,66.1,197.8,67.5 M202.3,67.5
								c0,1.1-0.9,2-2,2s-2-0.9-2-2s0.9-2,2-2S202.3,66.4,202.3,67.5"/>
							<path class="st0" d="M194.8,67.5c0,3.1,2.5,5.5,5.5,5.5s5.5-2.5,5.5-5.5s-2.5-5.5-5.5-5.5S194.8,64.5,194.8,67.5 M205.3,67.5
								c0,2.8-2.3,5-5,5s-5-2.3-5-5s2.3-5,5-5S205.3,64.8,205.3,67.5"/>
							<path class="st0" d="M203.8,37.7h5.9l-3.6,3.7l2.5,2.5l6.3-6.3v-3.4h-11.1C203.8,34.1,203.8,37.7,203.8,37.7z M204.3,34.6
								h10.1v2.7l-5.8,5.8l-1.8-1.8l4.1-4.2h-6.6V34.6L204.3,34.6L204.3,34.6z"/>
							<path class="st0" d="M209.2,48.3c-0.9,0-1.8-0.4-2.5-1l-0.2-0.2l-2.5,2.5l0.2,0.2c1.3,1.3,3.1,2.1,5,2.1
								c3.9,0,7.1-3.2,7.1-7.1c0-1.9-0.7-3.7-2.1-5l-0.2-0.2l-2.5,2.5l0.2,0.2c0.7,0.7,1,1.6,1,2.5
								C212.7,46.7,211.1,48.3,209.2,48.3 M213.2,44.8c0-1-0.4-1.9-1-2.7l1.8-1.8c1.1,1.2,1.8,2.8,1.8,4.5c0,3.6-2.9,6.6-6.6,6.6
								c-1.7,0-3.2-0.6-4.5-1.8l1.8-1.8c0.7,0.7,1.7,1,2.7,1C211.4,48.8,213.2,47,213.2,44.8"/>
							<path class="st0" d="M194.8,44.2c0,3,2.5,5.5,5.5,5.5s5.5-2.5,5.5-5.5s-2.5-5.5-5.5-5.5S194.8,41.1,194.8,44.2 M205.3,44.2
								c0,2.8-2.3,5-5,5s-5-2.3-5-5s2.3-5,5-5S205.3,41.4,205.3,44.2"/>
							<path class="st0" d="M197.8,44.2c0,1.4,1.1,2.5,2.5,2.5s2.5-1.1,2.5-2.5s-1.1-2.5-2.5-2.5S197.8,42.8,197.8,44.2 M202.3,44.2
								c0,1.1-0.9,2-2,2s-2-0.9-2-2s0.9-2,2-2S202.3,43.1,202.3,44.2"/>
							<path class="st0" d="M182.5,49.3h5.9l-3.6,3.7l2.5,2.5l6.3-6.3v-3.4h-11.1C182.5,45.8,182.5,49.3,182.5,49.3z M183,46.3h10.1
								V49l-5.8,5.8l-1.8-1.8l4.1-4.2H183V46.3L183,46.3L183,46.3z"/>
							<path class="st0" d="M192.7,51.2l-2.5,2.5l0.2,0.2c0.7,0.7,1,1.6,1,2.5c0,2-1.6,3.5-3.5,3.5c-0.9,0-1.8-0.4-2.5-1l-0.2-0.2
								l-2.5,2.5l0.2,0.2c1.3,1.3,3.1,2.1,5,2.1c3.9,0,7.1-3.2,7.1-7.1c0-1.9-0.7-3.7-2.1-5L192.7,51.2L192.7,51.2L192.7,51.2z
								 M187.9,63c-1.7,0-3.2-0.6-4.5-1.8l1.8-1.8c0.7,0.7,1.7,1,2.7,1c2.2,0,4-1.8,4-4c0-1-0.4-1.9-1-2.7l1.8-1.8
								c1.1,1.2,1.8,2.8,1.8,4.5C194.5,60,191.5,63,187.9,63"/>
							<path class="st0" d="M173.5,55.9c0,3,2.5,5.5,5.5,5.5s5.5-2.5,5.5-5.5s-2.5-5.5-5.5-5.5S173.5,52.8,173.5,55.9 M184.1,55.9
								c0,2.8-2.3,5-5,5s-5-2.3-5-5s2.3-5,5-5S184.1,53.1,184.1,55.9"/>
							<path class="st0" d="M176.6,55.9c0,1.4,1.1,2.5,2.5,2.5s2.5-1.1,2.5-2.5s-1.1-2.5-2.5-2.5S176.6,54.5,176.6,55.9 M181.1,55.9
								c0,1.1-0.9,2-2,2s-2-0.9-2-2s0.9-2,2-2S181.1,54.8,181.1,55.9"/>
							<path class="st0" d="M182.5,26h5.9l-3.6,3.6l2.5,2.5l6.3-6.3v-3.4h-11.1C182.5,22.5,182.5,26,182.5,26z M183,23h10.1v2.7
								l-5.8,5.8l-1.8-1.8l4.1-4.1H183V23L183,23L183,23z"/>
							<path class="st0" d="M192.7,27.9l-2.5,2.5l0.2,0.2c0.7,0.7,1,1.6,1,2.5c0,2-1.6,3.5-3.5,3.5c-0.9,0-1.8-0.4-2.5-1l-0.2-0.2
								l-2.5,2.5l0.2,0.2c1.3,1.3,3.1,2.1,5,2.1c3.9,0,7.1-3.2,7.1-7.1c0-1.9-0.7-3.6-2.1-5L192.7,27.9L192.7,27.9L192.7,27.9z
								 M187.9,39.6c-1.7,0-3.2-0.6-4.5-1.8l1.8-1.8c0.7,0.7,1.7,1,2.7,1c2.2,0,4-1.8,4-4c0-1-0.4-1.9-1-2.7l1.8-1.8
								c1.1,1.2,1.8,2.8,1.8,4.5C194.5,36.7,191.5,39.6,187.9,39.6"/>
							<path class="st0" d="M173.5,32.5c0,3,2.5,5.5,5.5,5.5s5.5-2.5,5.5-5.5s-2.5-5.5-5.5-5.5S173.5,29.5,173.5,32.5 M184.1,32.5
								c0,2.8-2.3,5-5,5s-5-2.3-5-5s2.3-5,5-5S184.1,29.8,184.1,32.5"/>
							<path class="st0" d="M176.6,32.5c0,1.4,1.1,2.5,2.5,2.5s2.5-1.1,2.5-2.5s-1.1-2.5-2.5-2.5S176.6,31.2,176.6,32.5 M181.1,32.5
								c0,1.1-0.9,2-2,2s-2-0.9-2-2s0.9-2,2-2S181.1,31.4,181.1,32.5"/>
							<path class="st0" d="M208.5,113.8l6.3-6.3v-3.4h-11.1v3.5h5.9l-3.6,3.7C206,111.3,208.5,113.8,208.5,113.8z M204.3,107.1
								v-2.5h10.1v2.7l-5.8,5.8l-1.8-1.8l4.1-4.2L204.3,107.1L204.3,107.1z"/>
							<path class="st0" d="M214.2,109.7l-0.2-0.2l-2.5,2.5l0.2,0.2c0.7,0.7,1,1.6,1,2.5c0,1.9-1.6,3.5-3.5,3.5
								c-0.9,0-1.8-0.4-2.5-1l-0.2-0.2l-2.5,2.5l0.2,0.2c1.3,1.3,3.1,2.1,5,2.1c3.9,0,7.1-3.2,7.1-7.1
								C216.2,112.8,215.5,111,214.2,109.7 M209.2,121.3c-1.7,0-3.2-0.6-4.5-1.8l1.8-1.8c0.7,0.7,1.7,1,2.7,1c2.2,0,4-1.8,4-4
								c0-1-0.4-1.9-1-2.7l1.8-1.8c1.1,1.2,1.8,2.8,1.8,4.5C215.7,118.3,212.8,121.3,209.2,121.3"/>
							<path class="st0" d="M200.3,119.7c3.1,0,5.5-2.5,5.5-5.5s-2.5-5.5-5.5-5.5s-5.5,2.5-5.5,5.5S197.3,119.7,200.3,119.7
								 M200.3,109.1c2.8,0,5,2.3,5,5s-2.3,5-5,5s-5-2.3-5-5S197.6,109.1,200.3,109.1"/>
							<path class="st0" d="M200.3,116.7c1.4,0,2.5-1.1,2.5-2.5s-1.1-2.5-2.5-2.5s-2.5,1.1-2.5,2.5S198.9,116.7,200.3,116.7
								 M200.3,112.1c1.1,0,2,0.9,2,2s-0.9,2-2,2s-2-0.9-2-2S199.2,112.1,200.3,112.1"/>
							<path class="st0" d="M208.5,90.4l6.3-6.3v-3.4h-11.1v3.5h5.9l-3.6,3.7L208.5,90.4L208.5,90.4L208.5,90.4z M204.3,83.8v-2.5
								h10.1V84l-5.8,5.8l-1.8-1.8l4.1-4.2L204.3,83.8L204.3,83.8z"/>
							<path class="st0" d="M214.2,86.4l-0.2-0.2l-2.5,2.5l0.2,0.2c0.7,0.7,1,1.6,1,2.5c0,1.9-1.6,3.5-3.5,3.5c-0.9,0-1.8-0.4-2.5-1
								l-0.2-0.2l-2.5,2.5l0.2,0.2c1.3,1.3,3.1,2.1,5,2.1c3.9,0,7.1-3.2,7.1-7.1C216.2,89.5,215.5,87.7,214.2,86.4 M209.2,98
								c-1.7,0-3.2-0.6-4.5-1.8l1.8-1.8c0.7,0.7,1.7,1,2.7,1c2.2,0,4-1.8,4-4c0-1-0.4-1.9-1-2.7l1.8-1.8c1.1,1.2,1.8,2.8,1.8,4.5
								C215.7,95,212.8,98,209.2,98"/>
							<path class="st0" d="M200.3,96.4c3.1,0,5.5-2.5,5.5-5.5s-2.5-5.5-5.5-5.5s-5.5,2.5-5.5,5.5S197.3,96.4,200.3,96.4
								 M200.3,85.8c2.8,0,5,2.3,5,5s-2.3,5-5,5s-5-2.3-5-5S197.6,85.8,200.3,85.8"/>
							<path class="st0" d="M200.3,93.3c1.4,0,2.5-1.1,2.5-2.5s-1.1-2.5-2.5-2.5s-2.5,1.1-2.5,2.5S198.9,93.3,200.3,93.3
								 M200.3,88.8c1.1,0,2,0.9,2,2s-0.9,2-2,2s-2-0.9-2-2S199.2,88.8,200.3,88.8"/>
							<path class="st0" d="M187.3,102.1l6.3-6.3v-3.4h-11.1v3.5h5.9l-3.6,3.7L187.3,102.1L187.3,102.1L187.3,102.1z M183,95.5V93
								h10.1v2.7l-5.8,5.8l-1.8-1.8l4.1-4.2L183,95.5L183,95.5z"/>
							<path class="st0" d="M192.9,98.1l-0.2-0.2l-2.5,2.5l0.2,0.2c0.7,0.7,1,1.6,1,2.5c0,1.9-1.6,3.5-3.5,3.5c-0.9,0-1.8-0.4-2.5-1
								l-0.2-0.2l-2.5,2.5l0.2,0.2c1.3,1.3,3.1,2.1,5,2.1c3.9,0,7.1-3.2,7.1-7.1C195,101.2,194.2,99.4,192.9,98.1 M187.9,109.6
								c-1.7,0-3.2-0.6-4.5-1.8l1.8-1.8c0.7,0.7,1.7,1,2.7,1c2.2,0,4-1.8,4-4c0-1-0.4-1.9-1-2.7l1.8-1.8c1.1,1.2,1.8,2.8,1.8,4.5
								C194.5,106.7,191.5,109.6,187.9,109.6"/>
							<path class="st0" d="M179.1,108c3.1,0,5.5-2.5,5.5-5.5s-2.5-5.5-5.5-5.5s-5.5,2.5-5.5,5.5S176,108,179.1,108 M179.1,97.5
								c2.8,0,5,2.3,5,5s-2.3,5-5,5s-5-2.3-5-5S176.3,97.5,179.1,97.5"/>
							<path class="st0" d="M179.1,105c1.4,0,2.5-1.1,2.5-2.5s-1.1-2.5-2.5-2.5s-2.5,1.1-2.5,2.5S177.7,105,179.1,105 M179.1,100.5
								c1.1,0,2,0.9,2,2s-0.9,2-2,2s-2-0.9-2-2S177.9,100.5,179.1,100.5"/>
							<path class="st0" d="M187.3,78.8l6.3-6.3v-3.4h-11.1v3.5h5.9l-3.6,3.7C184.8,76.3,187.3,78.8,187.3,78.8z M183,72.1v-2.5
								h10.1v2.7l-5.8,5.8l-1.8-1.8l4.1-4.2L183,72.1L183,72.1z"/>
							<path class="st0" d="M192.9,74.7l-0.2-0.2l-2.5,2.5l0.2,0.2c0.7,0.7,1,1.6,1,2.5c0,1.9-1.6,3.5-3.5,3.5c-0.9,0-1.8-0.4-2.5-1
								l-0.2-0.2l-2.5,2.5l0.2,0.2c1.3,1.3,3.1,2.1,5,2.1c3.9,0,7.1-3.2,7.1-7.1C195,77.8,194.2,76.1,192.9,74.7 M187.9,86.3
								c-1.7,0-3.2-0.6-4.5-1.8l1.8-1.8c0.7,0.7,1.7,1,2.7,1c2.2,0,4-1.8,4-4c0-1-0.4-1.9-1-2.7l1.8-1.8c1.1,1.2,1.8,2.8,1.8,4.5
								C194.5,83.4,191.5,86.3,187.9,86.3"/>
							<path class="st0" d="M179.1,81.7c1.4,0,2.5-1.1,2.5-2.5s-1.1-2.5-2.5-2.5s-2.5,1.1-2.5,2.5S177.7,81.7,179.1,81.7
								 M179.1,77.2c1.1,0,2,0.9,2,2s-0.9,2-2,2s-2-0.9-2-2S177.9,77.2,179.1,77.2"/>
							<path class="st0" d="M179.1,84.7c3.1,0,5.5-2.5,5.5-5.5s-2.5-5.5-5.5-5.5s-5.5,2.5-5.5,5.5S176,84.7,179.1,84.7 M179.1,74.2
								c2.8,0,5,2.3,5,5s-2.3,5-5,5s-5-2.3-5-5S176.3,74.2,179.1,74.2"/>
							<polygon class="st0" points="214.8,150.7 203.8,150.7 203.8,154.2 209.7,154.2 208.1,155.9 208.8,155.9 210.9,153.8 
								204.3,153.8 204.3,151.2 214.3,151.2 214.3,153.9 212.3,155.9 213,155.9 214.8,154.1 							"/>
							<path class="st0" d="M208.5,137.1l6.3-6.3v-3.4h-11.1v3.5h5.9l-3.6,3.6L208.5,137.1L208.5,137.1L208.5,137.1z M204.3,130.4
								v-2.5h10.1v2.7l-5.8,5.8l-1.8-1.8l4.1-4.1L204.3,130.4L204.3,130.4z"/>
							<path class="st0" d="M214.2,133l-0.2-0.2l-2.5,2.5l0.2,0.2c0.7,0.7,1,1.6,1,2.5c0,1.9-1.6,3.5-3.5,3.5c-0.9,0-1.8-0.4-2.5-1
								l-0.2-0.2l-2.5,2.5l0.2,0.2c1.3,1.3,3.1,2.1,5,2.1c3.9,0,7.1-3.2,7.1-7.1C216.2,136.1,215.5,134.4,214.2,133 M209.2,144.6
								c-1.7,0-3.2-0.6-4.5-1.8l1.8-1.8c0.7,0.6,1.7,1,2.7,1c2.2,0,4-1.8,4-4c0-1-0.4-1.9-1-2.7l1.8-1.8c1.1,1.2,1.8,2.8,1.8,4.5
								C215.7,141.7,212.8,144.6,209.2,144.6"/>
							<path class="st0" d="M205.9,137.5c0-3.1-2.5-5.5-5.5-5.5s-5.5,2.5-5.5,5.5s2.5,5.5,5.5,5.5S205.9,140.5,205.9,137.5
								 M200.3,142.5c-2.8,0-5-2.3-5-5s2.3-5,5-5s5,2.3,5,5S203.1,142.5,200.3,142.5"/>
							<path class="st0" d="M200.3,135c-1.4,0-2.5,1.1-2.5,2.5s1.1,2.5,2.5,2.5s2.5-1.1,2.5-2.5S201.7,135,200.3,135 M200.3,139.5
								c-1.1,0-2-0.9-2-2s0.9-2,2-2s2,0.9,2,2S201.4,139.5,200.3,139.5"/>
							<path class="st0" d="M182.5,142.6h5.9l-3.6,3.6l2.5,2.5l6.3-6.3v-3.4h-11.1V142.6L182.5,142.6L182.5,142.6z M183,139.6h10.1
								v2.7l-5.8,5.8l-1.8-1.8l4.1-4.1H183V139.6L183,139.6L183,139.6z"/>
							<path class="st0" d="M195,149.7c0-1.9-0.7-3.7-2.1-5l-0.2-0.2l-2.5,2.5l0.2,0.2c0.7,0.7,1,1.6,1,2.5c0,1.9-1.6,3.5-3.5,3.5
								c-0.9,0-1.8-0.4-2.5-1l-0.2-0.2l-2.5,2.5l0.2,0.2c0.5,0.5,1.1,0.9,1.7,1.2h1.3c-0.9-0.3-1.7-0.8-2.4-1.4l1.8-1.8
								c0.7,0.6,1.7,1,2.7,1c2.2,0,4-1.8,4-4c0-1-0.4-1.9-1-2.7l1.8-1.8c1.1,1.2,1.8,2.8,1.8,4.5c0,2.9-1.9,5.4-4.5,6.2h1.3
								C193.4,154.7,195,152.4,195,149.7"/>
							<path class="st0" d="M179.1,143.6c-3.1,0-5.5,2.5-5.5,5.5s2.5,5.5,5.5,5.5s5.5-2.5,5.5-5.5S182.1,143.6,179.1,143.6
								 M179.1,154.2c-2.8,0-5-2.3-5-5s2.3-5,5-5s5,2.3,5,5S181.8,154.2,179.1,154.2"/>
							<path class="st0" d="M179.1,146.6c-1.4,0-2.5,1.1-2.5,2.5s1.1,2.5,2.5,2.5s2.5-1.1,2.5-2.5S180.4,146.6,179.1,146.6
								 M179.1,151.1c-1.1,0-2-0.9-2-2s0.9-2,2-2s2,0.9,2,2S180.2,151.1,179.1,151.1"/>
							<path class="st0" d="M187.3,125.4l6.3-6.3v-3.4h-11.1v3.5h5.9l-3.6,3.7L187.3,125.4L187.3,125.4L187.3,125.4z M183,118.8
								v-2.5h10.1v2.7l-5.8,5.8l-1.8-1.8l4.1-4.2L183,118.8L183,118.8z"/>
							<path class="st0" d="M187.9,133.4c3.9,0,7.1-3.2,7.1-7.1c0-1.9-0.7-3.7-2.1-5l-0.2-0.2l-2.5,2.5l0.2,0.2c0.7,0.7,1,1.6,1,2.5
								c0,1.9-1.6,3.5-3.5,3.5c-0.9,0-1.8-0.4-2.5-1l-0.2-0.2l-2.5,2.5l0.2,0.2C184.2,132.7,186,133.4,187.9,133.4 M185.2,129.4
								c0.7,0.6,1.7,1,2.7,1c2.2,0,4-1.8,4-4c0-1-0.4-1.9-1-2.7l1.8-1.8c1.1,1.2,1.8,2.8,1.8,4.5c0,3.6-2.9,6.6-6.6,6.6
								c-1.7,0-3.2-0.6-4.5-1.8L185.2,129.4L185.2,129.4L185.2,129.4z"/>
							<path class="st0" d="M179.1,131.3c3.1,0,5.5-2.5,5.5-5.5s-2.5-5.5-5.5-5.5s-5.5,2.5-5.5,5.5
								C173.5,128.9,176,131.3,179.1,131.3 M179.1,120.8c2.8,0,5,2.3,5,5c0,2.8-2.3,5-5,5s-5-2.3-5-5S176.3,120.8,179.1,120.8"/>
							<path class="st0" d="M179.1,128.3c1.4,0,2.5-1.1,2.5-2.5s-1.1-2.5-2.5-2.5s-2.5,1.1-2.5,2.5S177.7,128.3,179.1,128.3
								 M179.1,123.8c1.1,0,2,0.9,2,2s-0.9,2-2,2s-2-0.9-2-2S177.9,123.8,179.1,123.8"/>
							<path class="st0" d="M163.5,18l2.5,2.5l6.3-6.3v-3.4h-11.1v3.5h5.9L163.5,18L163.5,18L163.5,18z M161.8,13.9v-2.5h10.1V14
								l-5.8,5.8l-1.8-1.8l4.1-4.1L161.8,13.9L161.8,13.9z"/>
							<path class="st0" d="M166.6,25c-0.9,0-1.8-0.4-2.5-1l-0.2-0.2l-2.5,2.5l0.2,0.2c1.3,1.3,3.1,2.1,5,2.1c3.9,0,7.1-3.2,7.1-7.1
								c0-1.9-0.7-3.7-2.1-5l-0.2-0.2l-2.5,2.5l0.2,0.2c0.7,0.7,1,1.6,1,2.5C170.2,23.4,168.6,25,166.6,25 M170.7,21.4
								c0-1-0.4-1.9-1-2.7l1.8-1.8c1.1,1.2,1.8,2.8,1.8,4.5c0,3.6-2.9,6.6-6.6,6.6c-1.7,0-3.2-0.6-4.5-1.8l1.8-1.8
								c0.7,0.6,1.7,1,2.7,1C168.9,25.5,170.7,23.7,170.7,21.4"/>
							<path class="st0" d="M157.8,23.4c1.4,0,2.5-1.1,2.5-2.5s-1.1-2.5-2.5-2.5s-2.5,1.1-2.5,2.5S156.4,23.4,157.8,23.4
								 M157.8,18.9c1.1,0,2,0.9,2,2s-0.9,2-2,2s-2-0.9-2-2S156.7,18.9,157.8,18.9"/>
							<path class="st0" d="M157.8,26.4c3.1,0,5.5-2.5,5.5-5.5s-2.5-5.5-5.5-5.5s-5.5,2.5-5.5,5.5S154.8,26.4,157.8,26.4
								 M157.8,15.8c2.8,0,5,2.3,5,5s-2.3,5-5,5s-5-2.3-5-5S155,15.8,157.8,15.8"/>
							<path class="st0" d="M166.6,1.6c-0.9,0-1.8-0.4-2.5-1L164,0.4l-2.5,2.5l0.2,0.2c1.3,1.3,3.1,2.1,5,2.1c3.2,0,6-2.2,6.8-5.2
								h-0.5c-0.8,2.7-3.3,4.7-6.3,4.7c-1.7,0-3.2-0.6-4.5-1.8l1.8-1.8c0.7,0.6,1.7,1,2.7,1c1.5,0,2.9-0.9,3.6-2.2h-0.6
								C169,1,167.9,1.6,166.6,1.6"/>
							<path class="st0" d="M158.4,0h-1.2c0.2,0,0.4,0.1,0.6,0.1S158.2,0,158.4,0"/>
							<path class="st0" d="M157.8,3.1c2.2,0,4.1-1.3,5-3.1h-0.6c-0.9,1.5-2.5,2.6-4.4,2.6s-3.5-1-4.4-2.6h-0.6
								C153.8,1.8,155.6,3.1,157.8,3.1"/>
							<polygon class="st0" points="145.9,2.7 142.3,6.3 144.8,8.8 151.1,2.5 151.1,0 150.6,0 150.6,2.3 144.8,8.1 143,6.3 
								147.1,2.2 140.5,2.2 140.5,0 140,0 140,2.7 							"/>
							<path class="st0" d="M140.4,14.8c1.3,1.3,3.1,2.1,5,2.1c3.9,0,7.1-3.2,7.1-7.1c0-1.9-0.7-3.7-2.1-5l-0.2-0.2l-2.5,2.5
								l0.2,0.2c0.7,0.7,1,1.6,1,2.5c0,1.9-1.6,3.5-3.5,3.5c-0.9,0-1.8-0.4-2.5-1l-0.2-0.2l-2.5,2.5L140.4,14.8L140.4,14.8
								L140.4,14.8z M142.7,12.8c0.7,0.6,1.7,1,2.7,1c2.2,0,4-1.8,4-4c0-1-0.4-1.9-1-2.7l1.8-1.8c1.1,1.2,1.8,2.8,1.8,4.5
								c0,3.6-2.9,6.6-6.6,6.6c-1.7,0-3.2-0.6-4.5-1.8L142.7,12.8L142.7,12.8L142.7,12.8z"/>
							<path class="st0" d="M136.5,11.7c1.4,0,2.5-1.1,2.5-2.5s-1.1-2.5-2.5-2.5S134,7.8,134,9.2S135.1,11.7,136.5,11.7 M136.5,7.2
								c1.1,0,2,0.9,2,2s-0.9,2-2,2s-2-0.9-2-2S135.4,7.2,136.5,7.2"/>
							<path class="st0" d="M136.5,14.7c3.1,0,5.5-2.5,5.5-5.5s-2.5-5.5-5.5-5.5S131,6.2,131,9.2S133.5,14.7,136.5,14.7 M136.5,4.2
								c2.8,0,5,2.3,5,5s-2.3,5-5,5s-5-2.3-5-5S133.8,4.2,136.5,4.2"/>
							<path class="st0" d="M161.2,61h5.9l-3.6,3.7l2.5,2.5l6.3-6.3v-3.4h-11.1C161.2,57.5,161.2,61,161.2,61z M161.8,58h10.1v2.7
								l-5.8,5.8l-1.8-1.8l4.1-4.2h-6.6V58L161.8,58L161.8,58z"/>
							<path class="st0" d="M171.6,63.1l-0.2-0.2l-2.5,2.5l0.2,0.2c0.7,0.7,1,1.6,1,2.5c0,1.9-1.6,3.5-3.5,3.5c-0.9,0-1.8-0.4-2.5-1
								l-0.2-0.2l-2.5,2.5l0.2,0.2c1.3,1.3,3.1,2.1,5,2.1c3.9,0,7.1-3.2,7.1-7.1C173.7,66.2,173,64.4,171.6,63.1 M166.6,74.6
								c-1.7,0-3.2-0.6-4.5-1.8l1.8-1.8c0.7,0.7,1.7,1,2.7,1c2.2,0,4-1.8,4-4c0-1-0.4-1.9-1-2.7l1.8-1.8c1.1,1.2,1.8,2.8,1.8,4.5
								C173.2,71.7,170.3,74.6,166.6,74.6"/>
							<path class="st0" d="M155.3,67.5c0,1.4,1.1,2.5,2.5,2.5s2.5-1.1,2.5-2.5s-1.1-2.5-2.5-2.5S155.3,66.1,155.3,67.5 M159.8,67.5
								c0,1.1-0.9,2-2,2s-2-0.9-2-2s0.9-2,2-2S159.8,66.4,159.8,67.5"/>
							<path class="st0" d="M152.3,67.5c0,3.1,2.5,5.5,5.5,5.5s5.5-2.5,5.5-5.5s-2.5-5.5-5.5-5.5S152.3,64.5,152.3,67.5 M162.8,67.5
								c0,2.8-2.3,5-5,5s-5-2.3-5-5s2.3-5,5-5S162.8,64.8,162.8,67.5"/>
							<path class="st0" d="M161.2,37.7h5.9l-3.6,3.7l2.5,2.5l6.3-6.3v-3.4h-11.1C161.2,34.1,161.2,37.7,161.2,37.7z M161.8,34.6
								h10.1v2.7l-5.8,5.8l-1.8-1.8l4.1-4.2h-6.6V34.6L161.8,34.6L161.8,34.6z"/>
							<path class="st0" d="M166.6,48.3c-0.9,0-1.8-0.4-2.5-1l-0.2-0.2l-2.5,2.5l0.2,0.2c1.3,1.3,3.1,2.1,5,2.1
								c3.9,0,7.1-3.2,7.1-7.1c0-1.9-0.7-3.7-2.1-5l-0.2-0.2l-2.5,2.5l0.2,0.2c0.7,0.7,1,1.6,1,2.5
								C170.2,46.7,168.6,48.3,166.6,48.3 M170.7,44.8c0-1-0.4-1.9-1-2.7l1.8-1.8c1.1,1.2,1.8,2.8,1.8,4.5c0,3.6-2.9,6.6-6.6,6.6
								c-1.7,0-3.2-0.6-4.5-1.8l1.8-1.8c0.7,0.7,1.7,1,2.7,1C168.9,48.8,170.7,47,170.7,44.8"/>
							<path class="st0" d="M155.3,44.2c0,1.4,1.1,2.5,2.5,2.5s2.5-1.1,2.5-2.5s-1.1-2.5-2.5-2.5S155.3,42.8,155.3,44.2 M159.8,44.2
								c0,1.1-0.9,2-2,2s-2-0.9-2-2s0.9-2,2-2S159.8,43.1,159.8,44.2"/>
							<path class="st0" d="M152.3,44.2c0,3,2.5,5.5,5.5,5.5s5.5-2.5,5.5-5.5s-2.5-5.5-5.5-5.5S152.3,41.1,152.3,44.2 M162.8,44.2
								c0,2.8-2.3,5-5,5s-5-2.3-5-5s2.3-5,5-5S162.8,41.4,162.8,44.2"/>
							<path class="st0" d="M140,49.3h5.9l-3.6,3.7l2.5,2.5l6.3-6.3v-3.4H140C140,45.8,140,49.3,140,49.3z M140.5,46.3h10.1V49
								l-5.8,5.8L143,53l4.1-4.2h-6.6V46.3L140.5,46.3L140.5,46.3z"/>
							<path class="st0" d="M150.2,51.2l-2.5,2.5l0.2,0.2c0.7,0.7,1,1.6,1,2.5c0,2-1.6,3.5-3.5,3.5c-0.9,0-1.8-0.4-2.5-1l-0.2-0.2
								l-2.5,2.5l0.2,0.2c1.3,1.3,3.1,2.1,5,2.1c3.9,0,7.1-3.2,7.1-7.1c0-1.9-0.7-3.7-2.1-5L150.2,51.2L150.2,51.2L150.2,51.2z
								 M145.4,63c-1.7,0-3.2-0.6-4.5-1.8l1.8-1.8c0.7,0.7,1.7,1,2.7,1c2.2,0,4-1.8,4-4c0-1-0.4-1.9-1-2.7l1.8-1.8
								c1.1,1.2,1.8,2.8,1.8,4.5C151.9,60,149,63,145.4,63"/>
							<path class="st0" d="M131,55.9c0,3,2.5,5.5,5.5,5.5s5.5-2.5,5.5-5.5s-2.5-5.5-5.5-5.5S131,52.8,131,55.9 M141.6,55.9
								c0,2.8-2.3,5-5,5s-5-2.3-5-5s2.3-5,5-5S141.6,53.1,141.6,55.9"/>
							<path class="st0" d="M134,55.9c0,1.4,1.1,2.5,2.5,2.5s2.5-1.1,2.5-2.5s-1.1-2.5-2.5-2.5S134,54.5,134,55.9 M138.6,55.9
								c0,1.1-0.9,2-2,2s-2-0.9-2-2s0.9-2,2-2S138.6,54.8,138.6,55.9"/>
							<path class="st0" d="M140,26h5.9l-3.6,3.6l2.5,2.5l6.3-6.3v-3.4H140C140,22.5,140,26,140,26z M140.5,23h10.1v2.7l-5.8,5.8
								l-1.8-1.8l4.1-4.1h-6.6V23L140.5,23L140.5,23z"/>
							<path class="st0" d="M150.2,27.9l-2.5,2.5l0.2,0.2c0.7,0.7,1,1.6,1,2.5c0,2-1.6,3.5-3.5,3.5c-0.9,0-1.8-0.4-2.5-1l-0.2-0.2
								l-2.5,2.5l0.2,0.2c1.3,1.3,3.1,2.1,5,2.1c3.9,0,7.1-3.2,7.1-7.1c0-1.9-0.7-3.6-2.1-5L150.2,27.9L150.2,27.9L150.2,27.9z
								 M145.4,39.6c-1.7,0-3.2-0.6-4.5-1.8l1.8-1.8c0.7,0.7,1.7,1,2.7,1c2.2,0,4-1.8,4-4c0-1-0.4-1.9-1-2.7l1.8-1.8
								c1.1,1.2,1.8,2.8,1.8,4.5C151.9,36.7,149,39.6,145.4,39.6"/>
							<path class="st0" d="M134,32.5c0,1.4,1.1,2.5,2.5,2.5s2.5-1.1,2.5-2.5s-1.1-2.5-2.5-2.5S134,31.2,134,32.5 M138.6,32.5
								c0,1.1-0.9,2-2,2s-2-0.9-2-2s0.9-2,2-2S138.6,31.4,138.6,32.5"/>
							<path class="st0" d="M131,32.5c0,3,2.5,5.5,5.5,5.5s5.5-2.5,5.5-5.5s-2.5-5.5-5.5-5.5S131,29.5,131,32.5 M141.6,32.5
								c0,2.8-2.3,5-5,5s-5-2.3-5-5s2.3-5,5-5S141.6,29.8,141.6,32.5"/>
							<path class="st0" d="M166,113.8l6.3-6.3v-3.4h-11.1v3.5h5.9l-3.6,3.7C163.5,111.3,166,113.8,166,113.8z M161.8,107.1v-2.5
								h10.1v2.7l-5.8,5.8l-1.8-1.8l4.1-4.2L161.8,107.1L161.8,107.1z"/>
							<path class="st0" d="M171.6,109.7l-0.2-0.2L169,112l0.2,0.2c0.7,0.7,1,1.6,1,2.5c0,1.9-1.6,3.5-3.5,3.5c-0.9,0-1.8-0.4-2.5-1
								L164,117l-2.5,2.5l0.2,0.2c1.3,1.3,3.1,2.1,5,2.1c3.9,0,7.1-3.2,7.1-7.1C173.7,112.8,173,111,171.6,109.7 M166.6,121.3
								c-1.7,0-3.2-0.6-4.5-1.8l1.8-1.8c0.7,0.7,1.7,1,2.7,1c2.2,0,4-1.8,4-4c0-1-0.4-1.9-1-2.7l1.8-1.8c1.1,1.2,1.8,2.8,1.8,4.5
								C173.2,118.3,170.3,121.3,166.6,121.3"/>
							<path class="st0" d="M157.8,119.7c3.1,0,5.5-2.5,5.5-5.5s-2.5-5.5-5.5-5.5s-5.5,2.5-5.5,5.5S154.8,119.7,157.8,119.7
								 M157.8,109.1c2.8,0,5,2.3,5,5s-2.3,5-5,5s-5-2.3-5-5S155,109.1,157.8,109.1"/>
							<path class="st0" d="M157.8,116.7c1.4,0,2.5-1.1,2.5-2.5s-1.1-2.5-2.5-2.5s-2.5,1.1-2.5,2.5S156.4,116.7,157.8,116.7
								 M157.8,112.1c1.1,0,2,0.9,2,2s-0.9,2-2,2s-2-0.9-2-2S156.7,112.1,157.8,112.1"/>
							<path class="st0" d="M166,90.4l6.3-6.3v-3.4h-11.1v3.5h5.9l-3.6,3.7L166,90.4L166,90.4L166,90.4z M161.8,83.8v-2.5h10.1V84
								l-5.8,5.8l-1.8-1.8l4.1-4.2L161.8,83.8L161.8,83.8z"/>
							<path class="st0" d="M171.6,86.4l-0.2-0.2l-2.5,2.5l0.2,0.2c0.7,0.7,1,1.6,1,2.5c0,1.9-1.6,3.5-3.5,3.5c-0.9,0-1.8-0.4-2.5-1
								l-0.2-0.2l-2.5,2.5l0.2,0.2c1.3,1.3,3.1,2.1,5,2.1c3.9,0,7.1-3.2,7.1-7.1C173.7,89.5,173,87.7,171.6,86.4 M166.6,98
								c-1.7,0-3.2-0.6-4.5-1.8l1.8-1.8c0.7,0.7,1.7,1,2.7,1c2.2,0,4-1.8,4-4c0-1-0.4-1.9-1-2.7l1.8-1.8c1.1,1.2,1.8,2.8,1.8,4.5
								C173.2,95,170.3,98,166.6,98"/>
							<path class="st0" d="M157.8,93.3c1.4,0,2.5-1.1,2.5-2.5s-1.1-2.5-2.5-2.5s-2.5,1.1-2.5,2.5S156.4,93.3,157.8,93.3
								 M157.8,88.8c1.1,0,2,0.9,2,2s-0.9,2-2,2s-2-0.9-2-2S156.7,88.8,157.8,88.8"/>
							<path class="st0" d="M157.8,96.4c3.1,0,5.5-2.5,5.5-5.5s-2.5-5.5-5.5-5.5s-5.5,2.5-5.5,5.5S154.8,96.4,157.8,96.4
								 M157.8,85.8c2.8,0,5,2.3,5,5s-2.3,5-5,5s-5-2.3-5-5S155,85.8,157.8,85.8"/>
							<path class="st0" d="M144.8,102.1l6.3-6.3v-3.4H140v3.5h5.9l-3.6,3.7L144.8,102.1L144.8,102.1L144.8,102.1z M140.5,95.5V93
								h10.1v2.7l-5.8,5.8l-1.8-1.8l4.1-4.2L140.5,95.5L140.5,95.5z"/>
							<path class="st0" d="M150.4,98.1l-0.2-0.2l-2.5,2.5l0.2,0.2c0.7,0.7,1,1.6,1,2.5c0,1.9-1.6,3.5-3.5,3.5c-0.9,0-1.8-0.4-2.5-1
								l-0.2-0.2l-2.5,2.5l0.2,0.2c1.3,1.3,3.1,2.1,5,2.1c3.9,0,7.1-3.2,7.1-7.1C152.4,101.2,151.7,99.4,150.4,98.1 M145.4,109.6
								c-1.7,0-3.2-0.6-4.5-1.8l1.8-1.8c0.7,0.7,1.7,1,2.7,1c2.2,0,4-1.8,4-4c0-1-0.4-1.9-1-2.7l1.8-1.8c1.1,1.2,1.8,2.8,1.8,4.5
								C151.9,106.7,149,109.6,145.4,109.6"/>
							<path class="st0" d="M136.5,105c1.4,0,2.5-1.1,2.5-2.5s-1.1-2.5-2.5-2.5s-2.5,1.1-2.5,2.5S135.1,105,136.5,105 M136.5,100.5
								c1.1,0,2,0.9,2,2s-0.9,2-2,2s-2-0.9-2-2S135.4,100.5,136.5,100.5"/>
							<path class="st0" d="M136.5,108c3.1,0,5.5-2.5,5.5-5.5s-2.5-5.5-5.5-5.5s-5.5,2.5-5.5,5.5S133.5,108,136.5,108 M136.5,97.5
								c2.8,0,5,2.3,5,5s-2.3,5-5,5s-5-2.3-5-5S133.8,97.5,136.5,97.5"/>
							<path class="st0" d="M144.8,78.8l6.3-6.3v-3.4H140v3.5h5.9l-3.6,3.7C142.3,76.3,144.8,78.8,144.8,78.8z M140.5,72.1v-2.5
								h10.1v2.7l-5.8,5.8l-1.8-1.8l4.1-4.2L140.5,72.1L140.5,72.1z"/>
							<path class="st0" d="M150.4,74.7l-0.2-0.2l-2.5,2.5l0.2,0.2c0.7,0.7,1,1.6,1,2.5c0,1.9-1.6,3.5-3.5,3.5c-0.9,0-1.8-0.4-2.5-1
								l-0.2-0.2l-2.5,2.5l0.2,0.2c1.3,1.3,3.1,2.1,5,2.1c3.9,0,7.1-3.2,7.1-7.1C152.4,77.8,151.7,76.1,150.4,74.7 M145.4,86.3
								c-1.7,0-3.2-0.6-4.5-1.8l1.8-1.8c0.7,0.7,1.7,1,2.7,1c2.2,0,4-1.8,4-4c0-1-0.4-1.9-1-2.7l1.8-1.8c1.1,1.2,1.8,2.8,1.8,4.5
								C151.9,83.4,149,86.3,145.4,86.3"/>
							<path class="st0" d="M136.5,84.7c3.1,0,5.5-2.5,5.5-5.5s-2.5-5.5-5.5-5.5s-5.5,2.5-5.5,5.5S133.5,84.7,136.5,84.7
								 M136.5,74.2c2.8,0,5,2.3,5,5s-2.3,5-5,5s-5-2.3-5-5S133.8,74.2,136.5,74.2"/>
							<path class="st0" d="M136.5,81.7c1.4,0,2.5-1.1,2.5-2.5s-1.1-2.5-2.5-2.5s-2.5,1.1-2.5,2.5S135.1,81.7,136.5,81.7
								 M136.5,77.2c1.1,0,2,0.9,2,2s-0.9,2-2,2s-2-0.9-2-2S135.4,77.2,136.5,77.2"/>
							<polygon class="st0" points="172.3,150.7 161.2,150.7 161.2,154.2 167.2,154.2 165.5,155.9 166.2,155.9 168.4,153.8 
								161.8,153.8 161.8,151.2 171.8,151.2 171.8,153.9 169.8,155.9 170.5,155.9 172.3,154.1 							"/>
							<path class="st0" d="M166,137.1l6.3-6.3v-3.4h-11.1v3.5h5.9l-3.6,3.6L166,137.1L166,137.1L166,137.1z M161.8,130.4v-2.5h10.1
								v2.7l-5.8,5.8l-1.8-1.8l4.1-4.1L161.8,130.4L161.8,130.4z"/>
							<path class="st0" d="M171.6,133l-0.2-0.2l-2.5,2.5l0.2,0.2c0.7,0.7,1,1.6,1,2.5c0,1.9-1.6,3.5-3.5,3.5c-0.9,0-1.8-0.4-2.5-1
								l-0.2-0.2l-2.5,2.5l0.2,0.2c1.3,1.3,3.1,2.1,5,2.1c3.9,0,7.1-3.2,7.1-7.1C173.7,136.1,173,134.4,171.6,133 M166.6,144.6
								c-1.7,0-3.2-0.6-4.5-1.8l1.8-1.8c0.7,0.6,1.7,1,2.7,1c2.2,0,4-1.8,4-4c0-1-0.4-1.9-1-2.7l1.8-1.8c1.1,1.2,1.8,2.8,1.8,4.5
								C173.2,141.7,170.3,144.6,166.6,144.6"/>
							<path class="st0" d="M163.3,137.5c0-3.1-2.5-5.5-5.5-5.5s-5.5,2.5-5.5,5.5s2.5,5.5,5.5,5.5S163.3,140.5,163.3,137.5
								 M157.8,142.5c-2.8,0-5-2.3-5-5s2.3-5,5-5s5,2.3,5,5S160.6,142.5,157.8,142.5"/>
							<path class="st0" d="M157.8,135c-1.4,0-2.5,1.1-2.5,2.5s1.1,2.5,2.5,2.5s2.5-1.1,2.5-2.5S159.2,135,157.8,135 M157.8,139.5
								c-1.1,0-2-0.9-2-2s0.9-2,2-2s2,0.9,2,2S158.9,139.5,157.8,139.5"/>
							<path class="st0" d="M140,142.6h5.9l-3.6,3.6l2.5,2.5l6.3-6.3v-3.4H140V142.6L140,142.6L140,142.6z M140.5,139.6h10.1v2.7
								l-5.8,5.8l-1.8-1.8l4.1-4.1h-6.6V139.6L140.5,139.6L140.5,139.6z"/>
							<path class="st0" d="M152.4,149.7c0-1.9-0.7-3.7-2.1-5l-0.2-0.2l-2.5,2.5l0.2,0.2c0.7,0.7,1,1.6,1,2.5c0,1.9-1.6,3.5-3.5,3.5
								c-0.9,0-1.8-0.4-2.5-1l-0.2-0.2l-2.5,2.5l0.2,0.2c0.5,0.5,1.1,0.9,1.7,1.2h1.3c-0.9-0.3-1.7-0.8-2.4-1.4l1.8-1.8
								c0.7,0.6,1.7,1,2.7,1c2.2,0,4-1.8,4-4c0-1-0.4-1.9-1-2.7l1.8-1.8c1.1,1.2,1.8,2.8,1.8,4.5c0,2.9-1.9,5.4-4.5,6.2h1.3
								C150.9,154.7,152.4,152.4,152.4,149.7"/>
							<path class="st0" d="M136.5,143.6c-3.1,0-5.5,2.5-5.5,5.5s2.5,5.5,5.5,5.5s5.5-2.5,5.5-5.5S139.6,143.6,136.5,143.6
								 M136.5,154.2c-2.8,0-5-2.3-5-5s2.3-5,5-5s5,2.3,5,5S139.3,154.2,136.5,154.2"/>
							<path class="st0" d="M136.5,146.6c-1.4,0-2.5,1.1-2.5,2.5s1.1,2.5,2.5,2.5s2.5-1.1,2.5-2.5S137.9,146.6,136.5,146.6
								 M136.5,151.1c-1.1,0-2-0.9-2-2s0.9-2,2-2s2,0.9,2,2S137.6,151.1,136.5,151.1"/>
							<path class="st0" d="M144.8,125.4l6.3-6.3v-3.4H140v3.5h5.9l-3.6,3.7L144.8,125.4L144.8,125.4L144.8,125.4z M140.5,118.8
								v-2.5h10.1v2.7l-5.8,5.8L143,123l4.1-4.2L140.5,118.8L140.5,118.8z"/>
							<path class="st0" d="M145.4,133.4c3.9,0,7.1-3.2,7.1-7.1c0-1.9-0.7-3.7-2.1-5l-0.2-0.2l-2.5,2.5l0.2,0.2c0.7,0.7,1,1.6,1,2.5
								c0,1.9-1.6,3.5-3.5,3.5c-0.9,0-1.8-0.4-2.5-1l-0.2-0.2l-2.5,2.5l0.2,0.2C141.7,132.7,143.5,133.4,145.4,133.4 M142.7,129.4
								c0.7,0.6,1.7,1,2.7,1c2.2,0,4-1.8,4-4c0-1-0.4-1.9-1-2.7l1.8-1.8c1.1,1.2,1.8,2.8,1.8,4.5c0,3.6-2.9,6.6-6.6,6.6
								c-1.7,0-3.2-0.6-4.5-1.8L142.7,129.4L142.7,129.4L142.7,129.4z"/>
							<path class="st0" d="M136.5,128.3c1.4,0,2.5-1.1,2.5-2.5s-1.1-2.5-2.5-2.5s-2.5,1.1-2.5,2.5S135.1,128.3,136.5,128.3
								 M136.5,123.8c1.1,0,2,0.9,2,2s-0.9,2-2,2s-2-0.9-2-2S135.4,123.8,136.5,123.8"/>
							<path class="st0" d="M136.5,131.3c3.1,0,5.5-2.5,5.5-5.5s-2.5-5.5-5.5-5.5s-5.5,2.5-5.5,5.5
								C131,128.9,133.5,131.3,136.5,131.3 M136.5,120.8c2.8,0,5,2.3,5,5c0,2.8-2.3,5-5,5s-5-2.3-5-5S133.8,120.8,136.5,120.8"/>
							<path class="st0" d="M121,18l2.5,2.5l6.3-6.3v-3.4h-11.1v3.5h5.9L121,18L121,18L121,18z M119.2,13.9v-2.5h10.1V14l-5.8,5.8
								l-1.8-1.8l4.2-4.1L119.2,13.9L119.2,13.9z"/>
							<path class="st0" d="M124.1,25c-0.9,0-1.8-0.4-2.5-1l-0.2-0.2l-2.5,2.5l0.2,0.2c1.3,1.3,3.1,2.1,5,2.1c3.9,0,7.1-3.2,7.1-7.1
								c0-1.9-0.7-3.7-2.1-5l-0.2-0.2l-2.5,2.5l0.2,0.2c0.7,0.7,1,1.6,1,2.5C127.7,23.4,126.1,25,124.1,25 M128.2,21.4
								c0-1-0.4-1.9-1-2.7l1.8-1.8c1.1,1.2,1.8,2.8,1.8,4.5c0,3.6-2.9,6.6-6.6,6.6c-1.7,0-3.2-0.6-4.5-1.8l1.8-1.8
								c0.7,0.6,1.7,1,2.7,1C126.3,25.5,128.2,23.7,128.2,21.4"/>
							<path class="st0" d="M115.3,23.4c1.4,0,2.5-1.1,2.5-2.5s-1.1-2.5-2.5-2.5s-2.5,1.1-2.5,2.5S113.9,23.4,115.3,23.4
								 M115.3,18.9c1.1,0,2,0.9,2,2s-0.9,2-2,2s-2-0.9-2-2S114.2,18.9,115.3,18.9"/>
							<path class="st0" d="M115.3,26.4c3.1,0,5.5-2.5,5.5-5.5s-2.5-5.5-5.5-5.5s-5.5,2.5-5.5,5.5S112.2,26.4,115.3,26.4
								 M115.3,15.8c2.8,0,5,2.3,5,5s-2.3,5-5,5s-5-2.3-5-5S112.5,15.8,115.3,15.8"/>
							<path class="st0" d="M124.1,1.6c-0.9,0-1.8-0.4-2.5-1l-0.2-0.2L119,2.9l0.2,0.2c1.3,1.3,3.1,2.1,5,2.1c3.2,0,6-2.2,6.8-5.2
								h-0.5c-0.8,2.7-3.3,4.7-6.3,4.7c-1.7,0-3.2-0.6-4.5-1.8l1.8-1.8c0.7,0.6,1.7,1,2.7,1c1.5,0,2.9-0.9,3.6-2.2h-0.6
								C126.5,1,125.4,1.6,124.1,1.6"/>
							<path class="st0" d="M115.9,0h-1.2c0.2,0,0.4,0.1,0.6,0.1S115.7,0,115.9,0"/>
							<path class="st0" d="M115.3,3.1c2.2,0,4.1-1.3,5-3.1h-0.6c-0.9,1.5-2.5,2.6-4.4,2.6s-3.5-1-4.4-2.6h-0.6
								C111.2,1.8,113.1,3.1,115.3,3.1"/>
							<polygon class="st0" points="103.4,2.7 99.8,6.3 102.2,8.8 108.5,2.5 108.5,0 108,0 108,2.3 102.2,8.1 100.5,6.3 104.6,2.2 
								98,2.2 98,0 97.5,0 97.5,2.7 							"/>
							<path class="st0" d="M97.9,14.8c1.3,1.3,3.1,2.1,5,2.1c3.9,0,7.1-3.2,7.1-7.1c0-1.9-0.7-3.7-2.1-5l-0.2-0.2l-2.5,2.5l0.2,0.2
								c0.7,0.7,1,1.6,1,2.5c0,1.9-1.6,3.5-3.5,3.5c-0.9,0-1.8-0.4-2.5-1l-0.2-0.2l-2.5,2.5L97.9,14.8z M100.2,12.8
								c0.7,0.6,1.7,1,2.7,1c2.2,0,4-1.8,4-4c0-1-0.4-1.9-1-2.7l1.8-1.8c1.1,1.2,1.8,2.8,1.8,4.5c0,3.6-2.9,6.6-6.6,6.6
								c-1.7,0-3.2-0.6-4.5-1.8L100.2,12.8L100.2,12.8L100.2,12.8z"/>
							<path class="st0" d="M94,14.7c3.1,0,5.5-2.5,5.5-5.5S97.1,3.7,94,3.7s-5.5,2.5-5.5,5.5S91,14.7,94,14.7 M94,4.2
								c2.8,0,5,2.3,5,5s-2.3,5-5,5s-5-2.3-5-5S91.2,4.2,94,4.2"/>
							<path class="st0" d="M94,11.7c1.4,0,2.5-1.1,2.5-2.5S95.4,6.7,94,6.7s-2.5,1.1-2.5,2.5S92.6,11.7,94,11.7 M94,7.2
								c1.1,0,2,0.9,2,2s-0.9,2-2,2s-2-0.9-2-2S92.9,7.2,94,7.2"/>
							<path class="st0" d="M118.7,61h5.9l-3.7,3.7l2.5,2.5l6.3-6.3v-3.4h-11.1C118.7,57.5,118.7,61,118.7,61z M119.2,58h10.1v2.7
								l-5.8,5.8l-1.8-1.8l4.2-4.2h-6.6L119.2,58L119.2,58L119.2,58z"/>
							<path class="st0" d="M129.1,63.1l-0.2-0.2l-2.5,2.5l0.2,0.2c0.7,0.7,1,1.6,1,2.5c0,1.9-1.6,3.5-3.5,3.5c-0.9,0-1.8-0.4-2.5-1
								l-0.2-0.2l-2.5,2.5l0.2,0.2c1.3,1.3,3.1,2.1,5,2.1c3.9,0,7.1-3.2,7.1-7.1C131.2,66.2,130.4,64.4,129.1,63.1 M124.1,74.6
								c-1.7,0-3.2-0.6-4.5-1.8l1.8-1.8c0.7,0.7,1.7,1,2.7,1c2.2,0,4-1.8,4-4c0-1-0.4-1.9-1-2.7l1.8-1.8c1.1,1.2,1.8,2.8,1.8,4.5
								C130.7,71.7,127.7,74.6,124.1,74.6"/>
							<path class="st0" d="M112.8,67.5c0,1.4,1.1,2.5,2.5,2.5s2.5-1.1,2.5-2.5s-1.1-2.5-2.5-2.5S112.8,66.1,112.8,67.5 M117.3,67.5
								c0,1.1-0.9,2-2,2s-2-0.9-2-2s0.9-2,2-2S117.3,66.4,117.3,67.5"/>
							<path class="st0" d="M109.8,67.5c0,3.1,2.5,5.5,5.5,5.5s5.5-2.5,5.5-5.5s-2.5-5.5-5.5-5.5S109.8,64.5,109.8,67.5 M120.3,67.5
								c0,2.8-2.3,5-5,5s-5-2.3-5-5s2.3-5,5-5S120.3,64.8,120.3,67.5"/>
							<path class="st0" d="M118.7,37.7h5.9l-3.7,3.7l2.5,2.5l6.3-6.3v-3.4h-11.1C118.7,34.1,118.7,37.7,118.7,37.7z M119.2,34.6
								h10.1v2.7l-5.8,5.8l-1.8-1.8l4.2-4.2h-6.6L119.2,34.6L119.2,34.6L119.2,34.6z"/>
							<path class="st0" d="M124.1,48.3c-0.9,0-1.8-0.4-2.5-1l-0.2-0.2l-2.5,2.5l0.2,0.2c1.3,1.3,3.1,2.1,5,2.1
								c3.9,0,7.1-3.2,7.1-7.1c0-1.9-0.7-3.7-2.1-5l-0.2-0.2l-2.5,2.5l0.2,0.2c0.7,0.7,1,1.6,1,2.5
								C127.7,46.7,126.1,48.3,124.1,48.3 M128.2,44.8c0-1-0.4-1.9-1-2.7l1.8-1.8c1.1,1.2,1.8,2.8,1.8,4.5c0,3.6-2.9,6.6-6.6,6.6
								c-1.7,0-3.2-0.6-4.5-1.8l1.8-1.8c0.7,0.7,1.7,1,2.7,1C126.3,48.8,128.2,47,128.2,44.8"/>
							<path class="st0" d="M109.8,44.2c0,3,2.5,5.5,5.5,5.5s5.5-2.5,5.5-5.5s-2.5-5.5-5.5-5.5S109.8,41.1,109.8,44.2 M120.3,44.2
								c0,2.8-2.3,5-5,5s-5-2.3-5-5s2.3-5,5-5S120.3,41.4,120.3,44.2"/>
							<path class="st0" d="M112.8,44.2c0,1.4,1.1,2.5,2.5,2.5s2.5-1.1,2.5-2.5s-1.1-2.5-2.5-2.5S112.8,42.8,112.8,44.2 M117.3,44.2
								c0,1.1-0.9,2-2,2s-2-0.9-2-2s0.9-2,2-2S117.3,43.1,117.3,44.2"/>
							<path class="st0" d="M97.5,49.3h5.9L99.8,53l2.5,2.5l6.3-6.3v-3.4H97.5C97.5,45.8,97.5,49.3,97.5,49.3z M98,46.3H108V49
								l-5.8,5.8l-1.8-1.8l4.2-4.2H98V46.3L98,46.3L98,46.3z"/>
							<path class="st0" d="M107.7,51.2l-2.5,2.5l0.2,0.2c0.7,0.7,1,1.6,1,2.5c0,2-1.6,3.5-3.5,3.5c-0.9,0-1.8-0.4-2.5-1l-0.2-0.2
								l-2.5,2.5l0.2,0.2c1.3,1.3,3.1,2.1,5,2.1c3.9,0,7.1-3.2,7.1-7.1c0-1.9-0.7-3.7-2.1-5L107.7,51.2L107.7,51.2L107.7,51.2z
								 M102.9,63c-1.7,0-3.2-0.6-4.5-1.8l1.8-1.8c0.7,0.7,1.7,1,2.7,1c2.2,0,4-1.8,4-4c0-1-0.4-1.9-1-2.7l1.8-1.8
								c1.1,1.2,1.8,2.8,1.8,4.5C109.4,60,106.5,63,102.9,63"/>
							<path class="st0" d="M88.5,55.9c0,3,2.5,5.5,5.5,5.5s5.5-2.5,5.5-5.5s-2.5-5.5-5.5-5.5S88.5,52.8,88.5,55.9 M99.1,55.9
								c0,2.8-2.3,5-5,5s-5-2.3-5-5s2.3-5,5-5S99.1,53.1,99.1,55.9"/>
							<path class="st0" d="M91.5,55.9c0,1.4,1.1,2.5,2.5,2.5s2.5-1.1,2.5-2.5s-1.1-2.5-2.5-2.5S91.5,54.5,91.5,55.9 M96,55.9
								c0,1.1-0.9,2-2,2s-2-0.9-2-2s0.9-2,2-2S96,54.8,96,55.9"/>
							<path class="st0" d="M97.5,26h5.9l-3.7,3.6l2.5,2.5l6.3-6.3v-3.4H97.5C97.5,22.5,97.5,26,97.5,26z M98,23H108v2.7l-5.8,5.8
								l-1.8-1.8l4.2-4.1H98V23L98,23L98,23z"/>
							<path class="st0" d="M107.7,27.9l-2.5,2.5l0.2,0.2c0.7,0.7,1,1.6,1,2.5c0,2-1.6,3.5-3.5,3.5c-0.9,0-1.8-0.4-2.5-1l-0.2-0.2
								l-2.5,2.5l0.2,0.2c1.3,1.3,3.1,2.1,5,2.1c3.9,0,7.1-3.2,7.1-7.1c0-1.9-0.7-3.6-2.1-5C107.9,28.1,107.7,27.9,107.7,27.9z
								 M102.9,39.6c-1.7,0-3.2-0.6-4.5-1.8l1.8-1.8c0.7,0.7,1.7,1,2.7,1c2.2,0,4-1.8,4-4c0-1-0.4-1.9-1-2.7l1.8-1.8
								c1.1,1.2,1.8,2.8,1.8,4.5C109.4,36.7,106.5,39.6,102.9,39.6"/>
							<path class="st0" d="M88.5,32.5c0,3,2.5,5.5,5.5,5.5s5.5-2.5,5.5-5.5S97.1,27,94,27S88.5,29.5,88.5,32.5 M99.1,32.5
								c0,2.8-2.3,5-5,5s-5-2.3-5-5s2.3-5,5-5S99.1,29.8,99.1,32.5"/>
							<path class="st0" d="M91.5,32.5c0,1.4,1.1,2.5,2.5,2.5s2.5-1.1,2.5-2.5S95.4,30,94,30S91.5,31.2,91.5,32.5 M96,32.5
								c0,1.1-0.9,2-2,2s-2-0.9-2-2s0.9-2,2-2S96,31.4,96,32.5"/>
							<path class="st0" d="M123.5,113.8l6.3-6.3v-3.4h-11.1v3.5h5.9l-3.7,3.7C121,111.3,123.5,113.8,123.5,113.8z M119.2,107.1
								v-2.5h10.1v2.7l-5.8,5.8l-1.8-1.8l4.2-4.2L119.2,107.1L119.2,107.1z"/>
							<path class="st0" d="M129.1,109.7l-0.2-0.2l-2.5,2.5l0.2,0.2c0.7,0.7,1,1.6,1,2.5c0,1.9-1.6,3.5-3.5,3.5
								c-0.9,0-1.8-0.4-2.5-1l-0.2-0.2l-2.5,2.5l0.2,0.2c1.3,1.3,3.1,2.1,5,2.1c3.9,0,7.1-3.2,7.1-7.1
								C131.2,112.8,130.4,111,129.1,109.7 M124.1,121.3c-1.7,0-3.2-0.6-4.5-1.8l1.8-1.8c0.7,0.7,1.7,1,2.7,1c2.2,0,4-1.8,4-4
								c0-1-0.4-1.9-1-2.7l1.8-1.8c1.1,1.2,1.8,2.8,1.8,4.5C130.7,118.3,127.7,121.3,124.1,121.3"/>
							<path class="st0" d="M115.3,119.7c3.1,0,5.5-2.5,5.5-5.5s-2.5-5.5-5.5-5.5s-5.5,2.5-5.5,5.5S112.2,119.7,115.3,119.7
								 M115.3,109.1c2.8,0,5,2.3,5,5s-2.3,5-5,5s-5-2.3-5-5S112.5,109.1,115.3,109.1"/>
							<path class="st0" d="M115.3,116.7c1.4,0,2.5-1.1,2.5-2.5s-1.1-2.5-2.5-2.5s-2.5,1.1-2.5,2.5S113.9,116.7,115.3,116.7
								 M115.3,112.1c1.1,0,2,0.9,2,2s-0.9,2-2,2s-2-0.9-2-2S114.2,112.1,115.3,112.1"/>
							<path class="st0" d="M123.5,90.4l6.3-6.3v-3.4h-11.1v3.5h5.9l-3.7,3.7L123.5,90.4L123.5,90.4L123.5,90.4z M119.2,83.8v-2.5
								h10.1V84l-5.8,5.8l-1.8-1.8l4.2-4.2L119.2,83.8L119.2,83.8z"/>
							<path class="st0" d="M129.1,86.4l-0.2-0.2l-2.5,2.5l0.2,0.2c0.7,0.7,1,1.6,1,2.5c0,1.9-1.6,3.5-3.5,3.5c-0.9,0-1.8-0.4-2.5-1
								l-0.2-0.2l-2.5,2.5l0.2,0.2c1.3,1.3,3.1,2.1,5,2.1c3.9,0,7.1-3.2,7.1-7.1C131.2,89.5,130.4,87.7,129.1,86.4 M124.1,98
								c-1.7,0-3.2-0.6-4.5-1.8l1.8-1.8c0.7,0.7,1.7,1,2.7,1c2.2,0,4-1.8,4-4c0-1-0.4-1.9-1-2.7l1.8-1.8c1.1,1.2,1.8,2.8,1.8,4.5
								C130.7,95,127.7,98,124.1,98"/>
							<path class="st0" d="M115.3,93.3c1.4,0,2.5-1.1,2.5-2.5s-1.1-2.5-2.5-2.5s-2.5,1.1-2.5,2.5S113.9,93.3,115.3,93.3
								 M115.3,88.8c1.1,0,2,0.9,2,2s-0.9,2-2,2s-2-0.9-2-2S114.2,88.8,115.3,88.8"/>
							<path class="st0" d="M115.3,96.4c3.1,0,5.5-2.5,5.5-5.5s-2.5-5.5-5.5-5.5s-5.5,2.5-5.5,5.5S112.2,96.4,115.3,96.4
								 M115.3,85.8c2.8,0,5,2.3,5,5s-2.3,5-5,5s-5-2.3-5-5S112.5,85.8,115.3,85.8"/>
							<path class="st0" d="M102.2,102.1l6.3-6.3v-3.4H97.5v3.5h5.9l-3.7,3.7L102.2,102.1L102.2,102.1L102.2,102.1z M98,95.5V93H108
								v2.7l-5.8,5.8l-1.8-1.8l4.2-4.2L98,95.5L98,95.5z"/>
							<path class="st0" d="M107.9,98.1l-0.2-0.2l-2.5,2.5l0.2,0.2c0.7,0.7,1,1.6,1,2.5c0,1.9-1.6,3.5-3.5,3.5c-0.9,0-1.8-0.4-2.5-1
								l-0.2-0.2l-2.5,2.5l0.2,0.2c1.3,1.3,3.1,2.1,5,2.1c3.9,0,7.1-3.2,7.1-7.1C109.9,101.2,109.2,99.4,107.9,98.1 M102.9,109.6
								c-1.7,0-3.2-0.6-4.5-1.8l1.8-1.8c0.7,0.7,1.7,1,2.7,1c2.2,0,4-1.8,4-4c0-1-0.4-1.9-1-2.7l1.8-1.8c1.1,1.2,1.8,2.8,1.8,4.5
								C109.4,106.7,106.5,109.6,102.9,109.6"/>
							<path class="st0" d="M94,105c1.4,0,2.5-1.1,2.5-2.5S95.4,100,94,100s-2.5,1.1-2.5,2.5S92.6,105,94,105 M94,100.5
								c1.1,0,2,0.9,2,2s-0.9,2-2,2s-2-0.9-2-2S92.9,100.5,94,100.5"/>
							<path class="st0" d="M94,108c3.1,0,5.5-2.5,5.5-5.5S97.1,97,94,97s-5.5,2.5-5.5,5.5S91,108,94,108 M94,97.5c2.8,0,5,2.3,5,5
								s-2.3,5-5,5s-5-2.3-5-5S91.2,97.5,94,97.5"/>
							<path class="st0" d="M102.2,78.8l6.3-6.3v-3.4H97.5v3.5h5.9l-3.7,3.7C99.8,76.3,102.2,78.8,102.2,78.8z M98,72.1v-2.5H108
								v2.7l-5.8,5.8l-1.8-1.8l4.2-4.2L98,72.1L98,72.1z"/>
							<path class="st0" d="M107.9,74.7l-0.2-0.2l-2.5,2.5l0.2,0.2c0.7,0.7,1,1.6,1,2.5c0,1.9-1.6,3.5-3.5,3.5c-0.9,0-1.8-0.4-2.5-1
								l-0.2-0.2l-2.5,2.5l0.2,0.2c1.3,1.3,3.1,2.1,5,2.1c3.9,0,7.1-3.2,7.1-7.1C109.9,77.8,109.2,76.1,107.9,74.7 M102.9,86.3
								c-1.7,0-3.2-0.6-4.5-1.8l1.8-1.8c0.7,0.7,1.7,1,2.7,1c2.2,0,4-1.8,4-4c0-1-0.4-1.9-1-2.7l1.8-1.8c1.1,1.2,1.8,2.8,1.8,4.5
								C109.4,83.4,106.5,86.3,102.9,86.3"/>
							<path class="st0" d="M94,81.7c1.4,0,2.5-1.1,2.5-2.5s-1.1-2.5-2.5-2.5s-2.5,1.1-2.5,2.5S92.6,81.7,94,81.7 M94,77.2
								c1.1,0,2,0.9,2,2s-0.9,2-2,2s-2-0.9-2-2S92.9,77.2,94,77.2"/>
							<path class="st0" d="M94,84.7c3.1,0,5.5-2.5,5.5-5.5s-2.5-5.5-5.5-5.5s-5.5,2.5-5.5,5.5S91,84.7,94,84.7 M94,74.2
								c2.8,0,5,2.3,5,5s-2.3,5-5,5s-5-2.3-5-5S91.2,74.2,94,74.2"/>
							<polygon class="st0" points="129.8,150.7 118.7,150.7 118.7,154.2 124.7,154.2 123,155.9 123.7,155.9 125.9,153.8 
								119.2,153.8 119.2,151.2 129.3,151.2 129.3,153.9 127.3,155.9 128,155.9 129.8,154.1 							"/>
							<path class="st0" d="M123.5,137.1l6.3-6.3v-3.4h-11.1v3.5h5.9l-3.7,3.6L123.5,137.1L123.5,137.1L123.5,137.1z M119.2,130.4
								v-2.5h10.1v2.7l-5.8,5.8l-1.8-1.8l4.2-4.1L119.2,130.4L119.2,130.4z"/>
							<path class="st0" d="M129.1,133l-0.2-0.2l-2.5,2.5l0.2,0.2c0.7,0.7,1,1.6,1,2.5c0,1.9-1.6,3.5-3.5,3.5c-0.9,0-1.8-0.4-2.5-1
								l-0.2-0.2l-2.5,2.5l0.2,0.2c1.3,1.3,3.1,2.1,5,2.1c3.9,0,7.1-3.2,7.1-7.1C131.2,136.1,130.4,134.4,129.1,133 M124.1,144.6
								c-1.7,0-3.2-0.6-4.5-1.8l1.8-1.8c0.7,0.6,1.7,1,2.7,1c2.2,0,4-1.8,4-4c0-1-0.4-1.9-1-2.7l1.8-1.8c1.1,1.2,1.8,2.8,1.8,4.5
								C130.7,141.7,127.7,144.6,124.1,144.6"/>
							<path class="st0" d="M115.3,135c-1.4,0-2.5,1.1-2.5,2.5s1.1,2.5,2.5,2.5s2.5-1.1,2.5-2.5S116.7,135,115.3,135 M115.3,139.5
								c-1.1,0-2-0.9-2-2s0.9-2,2-2s2,0.9,2,2S116.4,139.5,115.3,139.5"/>
							<path class="st0" d="M120.8,137.5c0-3.1-2.5-5.5-5.5-5.5s-5.5,2.5-5.5,5.5s2.5,5.5,5.5,5.5S120.8,140.5,120.8,137.5
								 M115.3,142.5c-2.8,0-5-2.3-5-5s2.3-5,5-5s5,2.3,5,5S118,142.5,115.3,142.5"/>
							<path class="st0" d="M97.5,142.6h5.9l-3.7,3.6l2.5,2.5l6.3-6.3v-3.4H97.5V142.6L97.5,142.6L97.5,142.6z M98,139.6H108v2.7
								l-5.8,5.8l-1.8-1.8l4.2-4.1H98V139.6L98,139.6L98,139.6z"/>
							<path class="st0" d="M109.9,149.7c0-1.9-0.7-3.7-2.1-5l-0.2-0.2l-2.5,2.5l0.2,0.2c0.7,0.7,1,1.6,1,2.5c0,1.9-1.6,3.5-3.5,3.5
								c-0.9,0-1.8-0.4-2.5-1l-0.2-0.2l-2.5,2.5l0.2,0.2c0.5,0.5,1.1,0.9,1.7,1.2h1.3c-0.9-0.3-1.7-0.8-2.4-1.4l1.8-1.8
								c0.7,0.6,1.7,1,2.7,1c2.2,0,4-1.8,4-4c0-1-0.4-1.9-1-2.7l1.8-1.8c1.1,1.2,1.8,2.8,1.8,4.5c0,2.9-1.9,5.4-4.5,6.2h1.3
								C108.4,154.7,109.9,152.4,109.9,149.7"/>
							<path class="st0" d="M94,146.6c-1.4,0-2.5,1.1-2.5,2.5s1.1,2.5,2.5,2.5s2.5-1.1,2.5-2.5S95.4,146.6,94,146.6 M94,151.1
								c-1.1,0-2-0.9-2-2s0.9-2,2-2s2,0.9,2,2S95.1,151.1,94,151.1"/>
							<path class="st0" d="M94,143.6c-3.1,0-5.5,2.5-5.5,5.5s2.5,5.5,5.5,5.5s5.5-2.5,5.5-5.5S97.1,143.6,94,143.6 M94,154.2
								c-2.8,0-5-2.3-5-5s2.3-5,5-5s5,2.3,5,5S96.8,154.2,94,154.2"/>
							<path class="st0" d="M102.2,125.4l6.3-6.3v-3.4H97.5v3.5h5.9l-3.7,3.7L102.2,125.4L102.2,125.4L102.2,125.4z M98,118.8v-2.5
								H108v2.7l-5.8,5.8l-1.8-1.8l4.2-4.2L98,118.8L98,118.8z"/>
							<path class="st0" d="M102.9,133.4c3.9,0,7.1-3.2,7.1-7.1c0-1.9-0.7-3.7-2.1-5l-0.2-0.2l-2.5,2.5l0.2,0.2c0.7,0.7,1,1.6,1,2.5
								c0,1.9-1.6,3.5-3.5,3.5c-0.9,0-1.8-0.4-2.5-1l-0.2-0.2l-2.5,2.5l0.2,0.2C99.2,132.7,101,133.4,102.9,133.4 M100.2,129.4
								c0.7,0.6,1.7,1,2.7,1c2.2,0,4-1.8,4-4c0-1-0.4-1.9-1-2.7l1.8-1.8c1.1,1.2,1.8,2.8,1.8,4.5c0,3.6-2.9,6.6-6.6,6.6
								c-1.7,0-3.2-0.6-4.5-1.8L100.2,129.4L100.2,129.4L100.2,129.4z"/>
							<path class="st0" d="M94,128.3c1.4,0,2.5-1.1,2.5-2.5s-1.1-2.5-2.5-2.5s-2.5,1.1-2.5,2.5S92.6,128.3,94,128.3 M94,123.8
								c1.1,0,2,0.9,2,2s-0.9,2-2,2s-2-0.9-2-2S92.9,123.8,94,123.8"/>
							<path class="st0" d="M94,131.3c3.1,0,5.5-2.5,5.5-5.5s-2.5-5.5-5.5-5.5s-5.5,2.5-5.5,5.5C88.5,128.9,91,131.3,94,131.3
								 M94,120.8c2.8,0,5,2.3,5,5c0,2.8-2.3,5-5,5s-5-2.3-5-5S91.2,120.8,94,120.8"/>
							<path class="st0" d="M78.5,18l2.5,2.5l6.3-6.3v-3.4H76.2v3.5h5.9L78.5,18L78.5,18L78.5,18z M76.7,13.9v-2.5h10.1V14L81,19.8
								L79.2,18l4.2-4.1L76.7,13.9L76.7,13.9z"/>
							<path class="st0" d="M81.6,25c-0.9,0-1.8-0.4-2.5-1l-0.2-0.2l-2.5,2.5l0.2,0.2c1.3,1.3,3.1,2.1,5,2.1c3.9,0,7.1-3.2,7.1-7.1
								c0-1.9-0.7-3.7-2.1-5l-0.2-0.2l-2.5,2.5l0.2,0.2c0.7,0.7,1,1.6,1,2.5C85.2,23.4,83.6,25,81.6,25 M85.7,21.4
								c0-1-0.4-1.9-1-2.7l1.8-1.8c1.1,1.2,1.8,2.8,1.8,4.5c0,3.6-2.9,6.6-6.6,6.6c-1.7,0-3.2-0.6-4.5-1.8l1.8-1.8
								c0.7,0.6,1.7,1,2.7,1C83.8,25.5,85.6,23.7,85.7,21.4"/>
							<path class="st0" d="M72.8,23.4c1.4,0,2.5-1.1,2.5-2.5s-1.1-2.5-2.5-2.5s-2.5,1.1-2.5,2.5S71.4,23.4,72.8,23.4 M72.8,18.9
								c1.1,0,2,0.9,2,2s-0.9,2-2,2s-2-0.9-2-2S71.7,18.9,72.8,18.9"/>
							<path class="st0" d="M72.8,26.4c3.1,0,5.5-2.5,5.5-5.5s-2.5-5.5-5.5-5.5s-5.5,2.5-5.5,5.5S69.7,26.4,72.8,26.4 M72.8,15.8
								c2.8,0,5,2.3,5,5s-2.3,5-5,5s-5-2.3-5-5S70,15.8,72.8,15.8"/>
							<path class="st0" d="M81.6,1.6c-0.9,0-1.8-0.4-2.5-1l-0.2-0.2l-2.5,2.5l0.2,0.2c1.3,1.3,3.1,2.1,5,2.1c3.2,0,6-2.2,6.8-5.2
								h-0.5c-0.8,2.7-3.3,4.7-6.3,4.7c-1.7,0-3.2-0.6-4.5-1.8l1.8-1.8c0.7,0.6,1.7,1,2.7,1c1.5,0,2.9-0.9,3.6-2.2h-0.6
								C83.9,1,82.8,1.6,81.6,1.6"/>
							<path d="M73.3,0h-1.2c0.2,0,0.4,0.1,0.6,0.1S73.1,0,73.3,0"/>
							<path class="st0" d="M72.8,3.1c2.2,0,4.1-1.3,5-3.1h-0.6c-0.9,1.5-2.5,2.6-4.4,2.6s-3.5-1-4.4-2.6h-0.6
								C68.7,1.8,70.6,3.1,72.8,3.1"/>
							<path class="st0" d="M76.2,61h5.9l-3.7,3.7l2.5,2.5l6.3-6.3v-3.4H76.2C76.2,57.5,76.2,61,76.2,61z M76.7,58h10.1v2.7L81,66.4
								l-1.8-1.8l4.2-4.2h-6.6V58L76.7,58L76.7,58z"/>
							<path class="st0" d="M86.6,63.1l-0.2-0.2l-2.5,2.5l0.2,0.2c0.7,0.7,1,1.6,1,2.5c0,1.9-1.6,3.5-3.5,3.5c-0.9,0-1.8-0.4-2.5-1
								l-0.2-0.2l-2.5,2.5l0.2,0.2c1.3,1.3,3.1,2.1,5,2.1c3.9,0,7.1-3.2,7.1-7.1C88.7,66.2,87.9,64.4,86.6,63.1 M81.6,74.6
								c-1.7,0-3.2-0.6-4.5-1.8l1.8-1.8c0.7,0.7,1.7,1,2.7,1c2.2,0,4-1.8,4-4c0-1-0.4-1.9-1-2.7l1.8-1.8c1.1,1.2,1.8,2.8,1.8,4.5
								C88.2,71.7,85.2,74.6,81.6,74.6"/>
							<path class="st0" d="M70.3,67.5c0,1.4,1.1,2.5,2.5,2.5s2.5-1.1,2.5-2.5S74.2,65,72.8,65S70.3,66.1,70.3,67.5 M74.8,67.5
								c0,1.1-0.9,2-2,2s-2-0.9-2-2s0.9-2,2-2S74.8,66.4,74.8,67.5"/>
							<path class="st0" d="M67.2,67.5c0,3.1,2.5,5.5,5.5,5.5s5.5-2.5,5.5-5.5S75.8,62,72.8,62S67.2,64.5,67.2,67.5 M77.8,67.5
								c0,2.8-2.3,5-5,5s-5-2.3-5-5s2.3-5,5-5S77.8,64.8,77.8,67.5"/>
							<path class="st0" d="M76.2,37.7h5.9l-3.7,3.7l2.5,2.5l6.3-6.3v-3.4H76.2C76.2,34.1,76.2,37.7,76.2,37.7z M76.7,34.6h10.1v2.7
								L81,43.1l-1.8-1.8l4.2-4.2h-6.6V34.6L76.7,34.6L76.7,34.6z"/>
							<path class="st0" d="M81.6,48.3c-0.9,0-1.8-0.4-2.5-1l-0.2-0.2l-2.5,2.5l0.2,0.2c1.3,1.3,3.1,2.1,5,2.1
								c3.9,0,7.1-3.2,7.1-7.1c0-1.9-0.7-3.7-2.1-5l-0.2-0.2l-2.5,2.5l0.2,0.2c0.7,0.7,1,1.6,1,2.5C85.2,46.7,83.6,48.3,81.6,48.3
								 M85.7,44.8c0-1-0.4-1.9-1-2.7l1.8-1.8c1.1,1.2,1.8,2.8,1.8,4.5c0,3.6-2.9,6.6-6.6,6.6c-1.7,0-3.2-0.6-4.5-1.8l1.8-1.8
								c0.7,0.7,1.7,1,2.7,1C83.8,48.8,85.6,47,85.7,44.8"/>
							<path class="st0" d="M70.3,44.2c0,1.4,1.1,2.5,2.5,2.5s2.5-1.1,2.5-2.5s-1.1-2.5-2.5-2.5S70.3,42.8,70.3,44.2 M74.8,44.2
								c0,1.1-0.9,2-2,2s-2-0.9-2-2s0.9-2,2-2S74.8,43.1,74.8,44.2"/>
							<path class="st0" d="M67.2,44.2c0,3,2.5,5.5,5.5,5.5s5.5-2.5,5.5-5.5s-2.5-5.5-5.5-5.5S67.2,41.1,67.2,44.2 M77.8,44.2
								c0,2.8-2.3,5-5,5s-5-2.3-5-5s2.3-5,5-5S77.8,41.4,77.8,44.2"/>
							<path class="st0" d="M81,113.8l6.3-6.3v-3.4H76.2v3.5h5.9l-3.7,3.7C78.5,111.3,81,113.8,81,113.8z M76.7,107.1v-2.5h10.1v2.7
								l-5.8,5.8l-1.8-1.8l4.2-4.2L76.7,107.1L76.7,107.1z"/>
							<path class="st0" d="M86.6,109.7l-0.2-0.2l-2.5,2.5l0.2,0.2c0.7,0.7,1,1.6,1,2.5c0,1.9-1.6,3.5-3.5,3.5c-0.9,0-1.8-0.4-2.5-1
								l-0.2-0.2l-2.5,2.5l0.2,0.2c1.3,1.3,3.1,2.1,5,2.1c3.9,0,7.1-3.2,7.1-7.1C88.7,112.8,87.9,111,86.6,109.7 M81.6,121.3
								c-1.7,0-3.2-0.6-4.5-1.8l1.8-1.8c0.7,0.7,1.7,1,2.7,1c2.2,0,4-1.8,4-4c0-1-0.4-1.9-1-2.7l1.8-1.8c1.1,1.2,1.8,2.8,1.8,4.5
								C88.2,118.3,85.2,121.3,81.6,121.3"/>
							<path class="st0" d="M72.8,116.7c1.4,0,2.5-1.1,2.5-2.5s-1.1-2.5-2.5-2.5s-2.5,1.1-2.5,2.5S71.4,116.7,72.8,116.7
								 M72.8,112.1c1.1,0,2,0.9,2,2s-0.9,2-2,2s-2-0.9-2-2S71.7,112.1,72.8,112.1"/>
							<path class="st0" d="M72.8,119.7c3.1,0,5.5-2.5,5.5-5.5s-2.5-5.5-5.5-5.5s-5.5,2.5-5.5,5.5S69.7,119.7,72.8,119.7
								 M72.8,109.1c2.8,0,5,2.3,5,5s-2.3,5-5,5s-5-2.3-5-5S70,109.1,72.8,109.1"/>
							<path class="st0" d="M81,90.4l6.3-6.3v-3.4H76.2v3.5h5.9l-3.7,3.7L81,90.4L81,90.4L81,90.4z M76.7,83.8v-2.5h10.1V84L81,89.8
								L79.2,88l4.2-4.2L76.7,83.8L76.7,83.8z"/>
							<path class="st0" d="M86.6,86.4l-0.2-0.2l-2.5,2.5l0.2,0.2c0.7,0.7,1,1.6,1,2.5c0,1.9-1.6,3.5-3.5,3.5c-0.9,0-1.8-0.4-2.5-1
								l-0.2-0.2l-2.5,2.5l0.2,0.2c1.3,1.3,3.1,2.1,5,2.1c3.9,0,7.1-3.2,7.1-7.1C88.7,89.5,87.9,87.7,86.6,86.4 M81.6,98
								c-1.7,0-3.2-0.6-4.5-1.8l1.8-1.8c0.7,0.7,1.7,1,2.7,1c2.2,0,4-1.8,4-4c0-1-0.4-1.9-1-2.7l1.8-1.8c1.1,1.2,1.8,2.8,1.8,4.5
								C88.2,95,85.2,98,81.6,98"/>
							<path class="st0" d="M72.8,96.4c3.1,0,5.5-2.5,5.5-5.5s-2.5-5.5-5.5-5.5s-5.5,2.5-5.5,5.5S69.7,96.4,72.8,96.4 M72.8,85.8
								c2.8,0,5,2.3,5,5s-2.3,5-5,5s-5-2.3-5-5S70,85.8,72.8,85.8"/>
							<path class="st0" d="M72.8,93.3c1.4,0,2.5-1.1,2.5-2.5s-1.1-2.5-2.5-2.5s-2.5,1.1-2.5,2.5S71.4,93.3,72.8,93.3 M72.8,88.8
								c1.1,0,2,0.9,2,2s-0.9,2-2,2s-2-0.9-2-2S71.7,88.8,72.8,88.8"/>
							<polygon class="st0" points="87.3,150.7 76.2,150.7 76.2,154.2 82.1,154.2 80.5,155.9 81.2,155.9 83.3,153.8 76.7,153.8 
								76.7,151.2 86.8,151.2 86.8,153.9 84.8,155.9 85.5,155.9 87.3,154.1 							"/>
							<path class="st0" d="M81,137.1l6.3-6.3v-3.4H76.2v3.5h5.9l-3.7,3.6L81,137.1L81,137.1L81,137.1z M76.7,130.4v-2.5h10.1v2.7
								l-5.8,5.8l-1.8-1.8l4.2-4.1L76.7,130.4L76.7,130.4z"/>
							<path class="st0" d="M86.6,133l-0.2-0.2l-2.5,2.5l0.2,0.2c0.7,0.7,1,1.6,1,2.5c0,1.9-1.6,3.5-3.5,3.5c-0.9,0-1.8-0.4-2.5-1
								l-0.2-0.2l-2.5,2.5l0.2,0.2c1.3,1.3,3.1,2.1,5,2.1c3.9,0,7.1-3.2,7.1-7.1C88.7,136.1,87.9,134.4,86.6,133 M81.6,144.6
								c-1.7,0-3.2-0.6-4.5-1.8l1.8-1.8c0.7,0.6,1.7,1,2.7,1c2.2,0,4-1.8,4-4c0-1-0.4-1.9-1-2.7l1.8-1.8c1.1,1.2,1.8,2.8,1.8,4.5
								C88.2,141.7,85.2,144.6,81.6,144.6"/>
							<path class="st0" d="M72.8,135c-1.4,0-2.5,1.1-2.5,2.5s1.1,2.5,2.5,2.5s2.5-1.1,2.5-2.5S74.2,135,72.8,135 M72.8,139.5
								c-1.1,0-2-0.9-2-2s0.9-2,2-2s2,0.9,2,2S73.9,139.5,72.8,139.5"/>
							<path class="st0" d="M78.3,137.5c0-3.1-2.5-5.5-5.5-5.5s-5.5,2.5-5.5,5.5s2.5,5.5,5.5,5.5S78.3,140.5,78.3,137.5 M72.8,142.5
								c-2.8,0-5-2.3-5-5s2.3-5,5-5s5,2.3,5,5S75.5,142.5,72.8,142.5"/>
						</g>
					</g>
				</g>
			</g>
			<path class="st0" d="M17.7,21.5c-0.2,0.2-0.5,0.3-0.7,0.1s-0.3-0.5-0.1-0.7c0.6-0.8,1.6-1.3,2.6-1.3c1,0,1.9,0.4,2.5,1.1
				c0.1,0.1,0.1,0.2,0.1,0.3c0,0.1-0.1,0.3-0.2,0.4c-0.2,0.2-0.5,0.2-0.7-0.1c-0.4-0.5-1-0.8-1.7-0.8C18.8,20.6,18.1,21,17.7,21.5"
				/>
			<path class="st0" d="M19.5,18.7c-1.1,0-2.1,0.4-2.9,1.2c-0.2,0.2-0.5,0.2-0.7,0c-0.2-0.2-0.2-0.5,0-0.7c1-0.9,2.2-1.5,3.6-1.5
				s2.6,0.5,3.6,1.5c0.1,0.1,0.2,0.2,0.2,0.4s0,0.3-0.1,0.4c-0.2,0.2-0.5,0.2-0.7,0C21.6,19.1,20.6,18.7,19.5,18.7"/>
			<path class="st0" d="M19.5,16.6c-1.5,0-2.9,0.5-4.1,1.5c-0.2,0.2-0.5,0.2-0.7-0.1s-0.2-0.5,0.1-0.7c1.3-1.1,3-1.7,4.7-1.7
				s3.5,0.7,4.9,1.9c0.1,0.1,0.2,0.2,0.2,0.4c0,0.1,0,0.2-0.1,0.4c-0.2,0.2-0.5,0.2-0.7,0C22.5,17.2,21,16.6,19.5,16.6"/>
			<path class="st0" d="M19.5,14.5c-1.9,0-3.8,0.6-5.3,1.8c-0.2,0.2-0.6,0.1-0.7-0.1c-0.2-0.2-0.1-0.6,0.1-0.7c1.7-1.3,3.7-2,5.9-2
				c2.3,0,4.5,0.8,6.2,2.3c0.1,0.1,0.2,0.2,0.2,0.4c0,0.1,0,0.2-0.1,0.3c-0.2,0.2-0.5,0.2-0.7,0.1C23.5,15.2,21.5,14.5,19.5,14.5"/>
		</g>
	</g>
</g>
</svg>
