<?xml version="1.0" encoding="UTF-8"?><svg id="Calque_1" xmlns="http://www.w3.org/2000/svg" xmlns:xlink="http://www.w3.org/1999/xlink" viewBox="0 0 240.95 155.91"><defs><style>.cls-1{opacity:.5;}.cls-2{clip-path:url(#clippath-1);}.cls-3{clip-path:url(#clippath);}.cls-4{fill:none;}</style><clipPath id="clippath"><rect class="cls-4" x="0" width="240.95" height="155.91"/></clipPath><clipPath id="clippath-1"><rect class="cls-4" x="67.24" width="173.71" height="155.91"/></clipPath></defs><polygon points="49.57 122.78 49.57 126.47 57.26 126.47 52.49 131.24 55.1 133.85 62.48 126.47 62.48 122.78 49.57 122.78"/><g class="cls-3"><g><path d="M61.75,129.55c1.51,1.51,2.44,3.59,2.44,5.88,0,4.59-3.72,8.32-8.32,8.32-2.3,0-4.38-.93-5.88-2.44l2.61-2.61c.84,.84,1.99,1.36,3.27,1.36,2.56,0,4.63-2.07,4.63-4.63,0-1.28-.52-2.44-1.36-3.27l2.61-2.61h0Z"/><path d="M45.06,128.31c-3.56,0-6.45,2.89-6.45,6.45v10.32h3.69v-4.49c.84,.4,1.78,.62,2.77,.62,3.56,0,6.45-2.89,6.45-6.45s-2.89-6.45-6.45-6.45m0,9.21c-1.53,0-2.76-1.24-2.76-2.76s1.24-2.76,2.76-2.76,2.76,1.24,2.76,2.76-1.24,2.76-2.76,2.76"/><path d="M22.09,137.53h-.14c-.61,0-1.11-.49-1.11-1.11v-4.94h3.09v-3.15h-3.09v-4.23h-3.68v4.23h-1.62v3.15h1.62v4.94c0,1.99,1.22,3.7,2.95,4.42,.57,.24,1.19,.37,1.84,.37s1.27-.13,1.84-.37c.14-.06,.28-.12,.41-.2l-2.11-3.12h0Z"/><path d="M30.94,128.31c-3.56,0-6.45,2.89-6.45,6.45s2.89,6.45,6.45,6.45c.99,0,1.92-.22,2.76-.62v.61h3.69v-6.44c0-3.56-2.89-6.45-6.45-6.45m0,9.21c-1.53,0-2.76-1.24-2.76-2.76s1.24-2.76,2.76-2.76,2.76,1.24,2.76,2.76-1.24,2.76-2.76,2.76"/><g class="cls-1"><g class="cls-2"><g><path d="M240.94,22.5v-.99c-.07-.2-.11-.41-.11-.63s.04-.43,.11-.63v-.99c-.38,.44-.61,1-.61,1.62s.24,1.18,.61,1.62"/><path d="M237.32,20.88c0,2.38,1.51,4.41,3.63,5.19v-.54c-1.83-.75-3.13-2.55-3.13-4.65s1.3-3.9,3.13-4.65v-.54c-2.11,.78-3.63,2.8-3.63,5.19"/><path d="M240.94,2.75v-.53c-1.06-.43-1.92-1.23-2.47-2.22h-.58c.62,1.27,1.72,2.26,3.06,2.75"/><polygon points="230.96 2.69 227.31 6.34 229.8 8.83 236.08 2.54 236.09 0 235.59 0 235.58 2.33 229.8 8.12 228.01 6.34 232.17 2.19 225.53 2.19 225.53 0 225.03 0 225.03 2.69 230.96 2.69"/><path d="M225.44,14.77c1.33,1.33,3.1,2.07,4.99,2.07,3.89,0,7.06-3.17,7.06-7.06,0-1.89-.74-3.66-2.07-4.99l-.18-.18-2.49,2.49,.18,.18c.67,.67,1.04,1.56,1.04,2.5,0,1.95-1.59,3.54-3.54,3.54-.94,0-1.83-.37-2.5-1.04l-.18-.18-2.49,2.49,.18,.18h0Zm2.32-1.96c.74,.65,1.68,1.01,2.67,1.01,2.22,0,4.04-1.81,4.04-4.04,0-.99-.36-1.93-1.01-2.67l1.78-1.78c1.13,1.21,1.75,2.79,1.75,4.46,0,3.62-2.94,6.56-6.56,6.56-1.67,0-3.24-.62-4.46-1.75l1.78-1.78h.01Z"/><path d="M221.58,14.75c3.05,0,5.53-2.48,5.53-5.53s-2.48-5.53-5.53-5.53-5.53,2.48-5.53,5.53,2.48,5.53,5.53,5.53m0-10.56c2.77,0,5.03,2.26,5.03,5.03s-2.26,5.03-5.03,5.03-5.03-2.26-5.03-5.03,2.26-5.03,5.03-5.03"/><path d="M221.58,11.73c1.38,0,2.51-1.12,2.51-2.51s-1.12-2.51-2.51-2.51-2.51,1.12-2.51,2.51,1.13,2.51,2.51,2.51m0-4.52c1.11,0,2.01,.9,2.01,2.01s-.9,2.01-2.01,2.01-2.01-.9-2.01-2.01,.9-2.01,2.01-2.01"/><path d="M237.32,67.52c0,2.38,1.51,4.41,3.63,5.19v-.54c-1.83-.75-3.13-2.55-3.13-4.65s1.3-3.9,3.13-4.65v-.54c-2.11,.78-3.63,2.81-3.63,5.19"/><path d="M240.94,69.14v-.99c-.07-.2-.11-.41-.11-.63s.04-.43,.11-.63v-.99c-.38,.44-.61,1-.61,1.62s.24,1.18,.61,1.62"/><path d="M240.94,45.82v-.99c-.07-.2-.11-.41-.11-.63s.04-.43,.11-.63v-.99c-.38,.44-.61,1-.61,1.62s.24,1.18,.61,1.62"/><path d="M237.32,44.2c0,2.38,1.51,4.41,3.63,5.19v-.54c-1.83-.75-3.13-2.55-3.13-4.65s1.3-3.9,3.13-4.65v-.54c-2.11,.78-3.63,2.81-3.63,5.19"/><path d="M229.8,55.47l6.29-6.29v-3.37h-11.06v3.52h5.93l-3.65,3.65,2.49,2.49Zm-4.27-6.64v-2.52h10.06v2.67l-5.79,5.79-1.78-1.78,4.15-4.15h-6.64Z"/><path d="M235.24,51.25l-2.49,2.49,.18,.18c.67,.67,1.04,1.56,1.04,2.5,0,1.95-1.59,3.54-3.54,3.54-.94,0-1.83-.37-2.5-1.03l-.18-.18-2.49,2.49,.18,.18c1.33,1.33,3.11,2.07,4.99,2.07,3.89,0,7.06-3.17,7.06-7.06,0-1.88-.74-3.66-2.07-4.99l-.18-.18h0Zm-4.81,11.71c-1.67,0-3.24-.62-4.46-1.75l1.78-1.78c.74,.65,1.68,1.01,2.67,1.01,2.23,0,4.04-1.81,4.04-4.04,0-.99-.36-1.93-1.01-2.67l1.79-1.78c1.13,1.21,1.75,2.79,1.75,4.46,0,3.62-2.94,6.56-6.56,6.56"/><path d="M227.11,55.86c0-3.05-2.48-5.53-5.53-5.53s-5.53,2.48-5.53,5.53,2.48,5.53,5.53,5.53,5.53-2.48,5.53-5.53m-5.53,5.03c-2.77,0-5.03-2.26-5.03-5.03s2.26-5.03,5.03-5.03,5.03,2.26,5.03,5.03-2.26,5.03-5.03,5.03"/><path d="M221.58,53.35c-1.38,0-2.51,1.13-2.51,2.51s1.13,2.51,2.51,2.51,2.51-1.12,2.51-2.51-1.12-2.51-2.51-2.51m0,4.52c-1.11,0-2.01-.9-2.01-2.01s.9-2.01,2.01-2.01,2.01,.9,2.01,2.01-.9,2.01-2.01,2.01"/><path d="M229.8,32.15l6.29-6.29v-3.37h-11.06v3.52h5.93l-3.65,3.65,2.49,2.49Zm-4.27-6.64v-2.52h10.06v2.67l-5.79,5.79-1.78-1.78,4.15-4.15h-6.64Z"/><path d="M235.24,27.93l-2.49,2.49,.18,.18c.67,.67,1.04,1.56,1.04,2.5,0,1.95-1.59,3.54-3.54,3.54-.94,0-1.83-.37-2.5-1.04l-.18-.18-2.49,2.49,.18,.18c1.33,1.33,3.11,2.07,4.99,2.07,3.89,0,7.06-3.17,7.06-7.06,0-1.88-.74-3.66-2.07-4.99l-.18-.18h0Zm-4.81,11.72c-1.67,0-3.24-.62-4.46-1.75l1.78-1.78c.74,.65,1.68,1.01,2.67,1.01,2.23,0,4.04-1.81,4.04-4.04,0-.99-.36-1.93-1.01-2.67l1.79-1.78c1.13,1.21,1.75,2.79,1.75,4.45,0,3.62-2.94,6.56-6.56,6.56"/><path d="M219.07,32.54c0,1.38,1.13,2.51,2.51,2.51s2.51-1.12,2.51-2.51-1.12-2.51-2.51-2.51-2.51,1.13-2.51,2.51m4.52,0c0,1.11-.9,2.01-2.01,2.01s-2.01-.9-2.01-2.01,.9-2.01,2.01-2.01,2.01,.9,2.01,2.01"/><path d="M216.05,32.54c0,3.05,2.48,5.53,5.53,5.53s5.53-2.48,5.53-5.53-2.48-5.53-5.53-5.53-5.53,2.48-5.53,5.53m10.56,0c0,2.77-2.26,5.03-5.03,5.03s-5.03-2.26-5.03-5.03,2.26-5.03,5.03-5.03,5.03,2.26,5.03,5.03"/><path d="M240.94,115.78v-.99c-.07-.2-.11-.41-.11-.63s.04-.43,.11-.63v-.99c-.38,.44-.61,1-.61,1.62s.24,1.18,.61,1.62"/><path d="M237.32,114.15c0,2.38,1.51,4.41,3.63,5.19v-.53c-1.83-.75-3.13-2.55-3.13-4.65s1.3-3.9,3.13-4.65v-.53c-2.11,.78-3.63,2.81-3.63,5.19"/><path d="M240.94,92.46v-.99c-.07-.2-.11-.41-.11-.63s.04-.43,.11-.63v-.99c-.38,.44-.61,1-.61,1.62s.24,1.18,.61,1.62"/><path d="M237.32,90.84c0,2.38,1.51,4.41,3.63,5.19v-.53c-1.83-.75-3.13-2.55-3.13-4.65s1.3-3.9,3.13-4.65v-.54c-2.11,.78-3.63,2.81-3.63,5.19"/><path d="M229.8,102.1l6.29-6.29v-3.38h-11.06v3.52h5.93l-3.65,3.65,2.49,2.49h0Zm-4.27-6.63v-2.52h10.06v2.67l-5.79,5.79-1.78-1.78,4.15-4.15h-6.64Z"/><path d="M235.24,97.88l-2.49,2.49,.18,.18c.67,.67,1.04,1.56,1.04,2.5,0,1.95-1.59,3.54-3.54,3.54-.94,0-1.83-.37-2.5-1.04l-.18-.18-2.49,2.49,.18,.18c1.33,1.33,3.11,2.07,4.99,2.07,3.89,0,7.06-3.17,7.06-7.06,0-1.88-.74-3.66-2.07-4.99l-.18-.18h0Zm-4.81,11.72c-1.67,0-3.24-.62-4.46-1.75l1.78-1.78c.74,.65,1.68,1.01,2.67,1.01,2.23,0,4.04-1.81,4.04-4.04,0-.99-.36-1.93-1.01-2.67l1.79-1.78c1.13,1.22,1.75,2.79,1.75,4.46,0,3.62-2.94,6.56-6.56,6.56"/><path d="M221.58,99.99c-1.38,0-2.51,1.13-2.51,2.51s1.13,2.51,2.51,2.51,2.51-1.12,2.51-2.51-1.12-2.51-2.51-2.51m0,4.52c-1.11,0-2.01-.9-2.01-2.01s.9-2.01,2.01-2.01,2.01,.9,2.01,2.01-.9,2.01-2.01,2.01"/><path d="M227.11,102.5c0-3.05-2.48-5.53-5.53-5.53s-5.53,2.48-5.53,5.53,2.48,5.53,5.53,5.53,5.53-2.48,5.53-5.53m-5.53,5.03c-2.77,0-5.03-2.26-5.03-5.03s2.26-5.03,5.03-5.03,5.03,2.26,5.03,5.03-2.26,5.03-5.03,5.03"/><path d="M229.8,78.78l6.29-6.29v-3.37h-11.06v3.52h5.93l-3.65,3.65,2.49,2.49Zm-4.27-6.64v-2.52h10.06v2.67l-5.79,5.79-1.78-1.78,4.15-4.15h-6.64Z"/><path d="M235.24,74.56l-2.49,2.49,.18,.18c.67,.67,1.04,1.56,1.04,2.5,0,1.95-1.59,3.54-3.54,3.54-.94,0-1.83-.37-2.5-1.04l-.18-.18-2.49,2.49,.18,.18c1.33,1.33,3.11,2.07,4.99,2.07,3.89,0,7.06-3.16,7.06-7.06,0-1.88-.74-3.66-2.07-4.99l-.18-.18h0Zm-4.81,11.72c-1.67,0-3.24-.62-4.46-1.75l1.78-1.78c.74,.65,1.68,1.01,2.67,1.01,2.23,0,4.04-1.81,4.04-4.04,0-.99-.36-1.93-1.01-2.67l1.79-1.78c1.13,1.22,1.75,2.79,1.75,4.46,0,3.62-2.94,6.56-6.56,6.56"/><path d="M221.58,76.67c-1.38,0-2.51,1.13-2.51,2.51s1.13,2.51,2.51,2.51,2.51-1.12,2.51-2.51-1.12-2.51-2.51-2.51m0,4.52c-1.11,0-2.01-.9-2.01-2.01s.9-2.01,2.01-2.01,2.01,.9,2.01,2.01-.9,2.01-2.01,2.01"/><path d="M227.11,79.18c0-3.05-2.48-5.53-5.53-5.53s-5.53,2.48-5.53,5.53,2.48,5.53,5.53,5.53,5.53-2.48,5.53-5.53m-5.53,5.03c-2.77,0-5.03-2.26-5.03-5.03s2.26-5.03,5.03-5.03,5.03,2.26,5.03,5.03-2.26,5.03-5.03,5.03"/><path d="M240.94,155.6c-.24,.09-.47,.19-.69,.3h.69v-.3Z"/><path d="M240.94,139.09v-.99c-.07-.2-.11-.41-.11-.63s.04-.43,.11-.63v-.99c-.38,.44-.61,1-.61,1.62s.24,1.18,.61,1.62"/><path d="M237.32,137.47c0,2.38,1.51,4.41,3.63,5.19v-.53c-1.83-.75-3.13-2.55-3.13-4.65s1.3-3.9,3.13-4.65v-.53c-2.11,.78-3.63,2.81-3.63,5.19"/><path d="M225.03,142.59h5.93l-3.65,3.65,2.49,2.49,6.29-6.29v-3.37h-11.06v3.52h0Zm.5-3.02h10.06v2.67l-5.79,5.79-1.78-1.78,4.15-4.15h-6.64v-2.52h0Z"/><path d="M237.49,149.68c0-1.89-.73-3.66-2.07-4.99l-.18-.18-2.49,2.49,.18,.18c.67,.67,1.04,1.56,1.04,2.5,0,1.95-1.58,3.54-3.54,3.54-.94,0-1.83-.37-2.5-1.04l-.18-.18-2.49,2.49,.18,.18c.5,.5,1.06,.91,1.66,1.24h1.28c-.89-.29-1.71-.76-2.41-1.41l1.78-1.78c.74,.65,1.68,1.01,2.67,1.01,2.23,0,4.04-1.81,4.04-4.04,0-.99-.36-1.93-1.01-2.67l1.78-1.78c1.13,1.22,1.75,2.79,1.75,4.46,0,2.9-1.89,5.36-4.51,6.22h1.27c2.22-1.19,3.74-3.53,3.74-6.22"/><path d="M221.58,146.62c-1.38,0-2.51,1.12-2.51,2.51s1.13,2.51,2.51,2.51,2.51-1.12,2.51-2.51-1.12-2.51-2.51-2.51m0,4.52c-1.11,0-2.01-.9-2.01-2.01s.9-2.01,2.01-2.01,2.01,.9,2.01,2.01-.9,2.01-2.01,2.01"/><path d="M221.58,143.6c-3.05,0-5.53,2.48-5.53,5.53s2.48,5.53,5.53,5.53,5.53-2.48,5.53-5.53-2.48-5.53-5.53-5.53m0,10.56c-2.77,0-5.03-2.26-5.03-5.03s2.26-5.03,5.03-5.03,5.03,2.26,5.03,5.03-2.26,5.03-5.03,5.03"/><path d="M229.8,125.42l6.29-6.29v-3.38h-11.06v3.52h5.93l-3.65,3.65,2.49,2.49h0Zm-4.27-6.63v-2.52h10.06v2.67l-5.79,5.79-1.78-1.78,4.15-4.15h-6.64Z"/><path d="M235.24,121.2l-2.49,2.49,.18,.18c.67,.67,1.04,1.56,1.04,2.5,0,1.95-1.59,3.54-3.54,3.54-.94,0-1.83-.37-2.5-1.04l-.18-.18-2.49,2.49,.18,.18c1.33,1.33,3.11,2.07,4.99,2.07,3.89,0,7.06-3.17,7.06-7.06,0-1.89-.74-3.66-2.07-4.99l-.18-.18h0Zm-4.81,11.72c-1.67,0-3.24-.62-4.46-1.75l1.78-1.78c.74,.65,1.68,1.01,2.67,1.01,2.23,0,4.04-1.81,4.04-4.04,0-.99-.36-1.93-1.01-2.67l1.79-1.78c1.13,1.22,1.75,2.79,1.75,4.46,0,3.62-2.94,6.56-6.56,6.56"/><path d="M221.58,128.32c1.38,0,2.51-1.12,2.51-2.51s-1.12-2.51-2.51-2.51-2.51,1.13-2.51,2.51,1.13,2.51,2.51,2.51m0-4.52c1.11,0,2.01,.9,2.01,2.01s-.9,2.01-2.01,2.01-2.01-.9-2.01-2.01,.9-2.01,2.01-2.01"/><path d="M221.58,131.34c3.05,0,5.53-2.48,5.53-5.53s-2.48-5.53-5.53-5.53-5.53,2.48-5.53,5.53,2.48,5.53,5.53,5.53m0-10.56c2.77,0,5.03,2.26,5.03,5.03s-2.26,5.03-5.03,5.03-5.03-2.26-5.03-5.03,2.26-5.03,5.03-5.03"/><path d="M206.05,18l2.49,2.49,6.29-6.29v-3.38h-11.06v3.52h5.93l-3.65,3.65h0Zm-1.78-4.14v-2.52h10.06v2.67l-5.79,5.79-1.78-1.78,4.15-4.15h-6.64Z"/><path d="M209.17,24.97c-.94,0-1.83-.37-2.5-1.04l-.18-.18-2.49,2.49,.18,.18c1.33,1.33,3.1,2.07,4.99,2.07,3.89,0,7.06-3.17,7.06-7.06,0-1.88-.74-3.66-2.07-4.99l-.18-.18-2.49,2.49,.18,.18c.67,.67,1.04,1.56,1.04,2.5,0,1.95-1.59,3.54-3.54,3.54m4.04-3.54c0-.99-.36-1.93-1.01-2.67l1.78-1.79c1.13,1.21,1.75,2.79,1.75,4.46,0,3.62-2.94,6.56-6.56,6.56-1.67,0-3.24-.62-4.46-1.75l1.78-1.78c.74,.65,1.68,1.01,2.67,1.01,2.23,0,4.04-1.81,4.04-4.04"/><path d="M200.32,26.41c3.05,0,5.53-2.48,5.53-5.53s-2.48-5.53-5.53-5.53-5.53,2.48-5.53,5.53,2.48,5.53,5.53,5.53m0-10.56c2.77,0,5.03,2.26,5.03,5.03s-2.26,5.03-5.03,5.03-5.03-2.26-5.03-5.03,2.26-5.03,5.03-5.03"/><path d="M200.32,23.39c1.38,0,2.51-1.12,2.51-2.51s-1.12-2.51-2.51-2.51-2.51,1.12-2.51,2.51,1.13,2.51,2.51,2.51m0-4.52c1.11,0,2.01,.9,2.01,2.01s-.9,2.01-2.01,2.01-2.01-.9-2.01-2.01,.9-2.01,2.01-2.01"/><path d="M209.17,1.65c-.95,0-1.83-.37-2.5-1.04l-.18-.18-2.49,2.49,.18,.18c1.33,1.33,3.1,2.07,4.99,2.07,3.24,0,5.97-2.19,6.79-5.17h-.52c-.81,2.7-3.32,4.67-6.28,4.67-1.67,0-3.24-.62-4.46-1.75l1.78-1.78c.74,.65,1.68,1.01,2.67,1.01,1.54,0,2.87-.88,3.55-2.15h-.57c-.63,.99-1.73,1.65-2.98,1.65"/><path d="M200.9,0h-1.16c.19,.04,.38,.07,.58,.07s.39-.03,.58-.07"/><path d="M200.32,3.09c2.17,0,4.05-1.26,4.96-3.09h-.58c-.86,1.54-2.49,2.59-4.37,2.59s-3.52-1.05-4.38-2.59h-.58c.9,1.83,2.78,3.09,4.96,3.09"/><polygon points="188.44 2.69 184.79 6.34 187.28 8.83 193.56 2.54 193.56 0 193.06 0 193.06 2.33 187.28 8.12 185.49 6.34 189.65 2.19 183.01 2.19 183.01 0 182.51 0 182.51 2.69 188.44 2.69"/><path d="M182.92,14.77c1.33,1.33,3.1,2.07,4.99,2.07,3.89,0,7.06-3.17,7.06-7.06,0-1.88-.74-3.66-2.07-4.99l-.18-.18-2.49,2.49,.18,.18c.67,.67,1.04,1.56,1.04,2.5,0,1.95-1.59,3.54-3.54,3.54-.95,0-1.83-.37-2.5-1.04l-.18-.18-2.49,2.49,.18,.18h0Zm2.32-1.96c.74,.65,1.68,1.01,2.67,1.01,2.22,0,4.04-1.81,4.04-4.04,0-.99-.36-1.93-1.01-2.67l1.78-1.78c1.13,1.22,1.75,2.79,1.75,4.46,0,3.62-2.94,6.56-6.56,6.56-1.67,0-3.24-.62-4.46-1.75l1.78-1.78h.01Z"/><path d="M179.06,11.73c1.38,0,2.51-1.12,2.51-2.51s-1.12-2.51-2.51-2.51-2.51,1.12-2.51,2.51,1.13,2.51,2.51,2.51m0-4.52c1.11,0,2.01,.9,2.01,2.01s-.9,2.01-2.01,2.01-2.01-.9-2.01-2.01,.9-2.01,2.01-2.01"/><path d="M179.06,14.75c3.05,0,5.53-2.48,5.53-5.53s-2.48-5.53-5.53-5.53-5.53,2.48-5.53,5.53,2.48,5.53,5.53,5.53m0-10.56c2.77,0,5.03,2.26,5.03,5.03s-2.26,5.03-5.03,5.03-5.03-2.26-5.03-5.03,2.26-5.03,5.03-5.03"/><path d="M203.77,60.98h5.93l-3.65,3.65,2.49,2.49,6.29-6.29v-3.37h-11.06v3.52Zm.5-3.02h10.06v2.67l-5.79,5.79-1.78-1.78,4.15-4.15h-6.64v-2.52h0Z"/><path d="M214.16,63.08l-.18-.18-2.49,2.49,.18,.18c.67,.67,1.04,1.56,1.04,2.5,0,1.95-1.59,3.54-3.54,3.54-.95,0-1.83-.37-2.5-1.04l-.18-.18-2.49,2.49,.18,.18c1.33,1.33,3.1,2.07,4.99,2.07,3.89,0,7.06-3.17,7.06-7.06,0-1.88-.74-3.66-2.07-4.99m-4.99,11.55c-1.67,0-3.24-.62-4.46-1.75l1.78-1.78c.74,.65,1.68,1.01,2.67,1.01,2.23,0,4.04-1.81,4.04-4.04,0-.99-.36-1.93-1.01-2.67l1.79-1.78c1.13,1.21,1.75,2.79,1.75,4.45,0,3.62-2.94,6.56-6.56,6.56"/><path d="M197.81,67.52c0,1.38,1.13,2.51,2.51,2.51s2.51-1.12,2.51-2.51-1.12-2.51-2.51-2.51-2.51,1.13-2.51,2.51m4.52,0c0,1.11-.9,2.01-2.01,2.01s-2.01-.9-2.01-2.01,.9-2.01,2.01-2.01,2.01,.9,2.01,2.01"/><path d="M194.79,67.52c0,3.05,2.48,5.53,5.53,5.53s5.53-2.48,5.53-5.53-2.48-5.53-5.53-5.53-5.53,2.48-5.53,5.53m10.56,0c0,2.77-2.26,5.03-5.03,5.03s-5.03-2.26-5.03-5.03,2.26-5.03,5.03-5.03,5.03,2.26,5.03,5.03"/><path d="M203.77,37.67h5.93l-3.65,3.65,2.49,2.49,6.29-6.29v-3.37h-11.06v3.52Zm.5-3.02h10.06v2.67l-5.79,5.79-1.78-1.78,4.15-4.15h-6.64v-2.52h0Z"/><path d="M209.17,48.29c-.94,0-1.83-.37-2.5-1.04l-.18-.18-2.49,2.49,.18,.18c1.33,1.33,3.1,2.07,4.99,2.07,3.89,0,7.06-3.17,7.06-7.06,0-1.88-.74-3.66-2.07-4.99l-.18-.18-2.49,2.49,.18,.18c.67,.67,1.04,1.56,1.04,2.5,0,1.95-1.59,3.54-3.54,3.54m4.04-3.54c0-.99-.36-1.93-1.01-2.67l1.78-1.78c1.13,1.21,1.75,2.79,1.75,4.46,0,3.62-2.94,6.56-6.56,6.56-1.67,0-3.24-.62-4.46-1.75l1.78-1.78c.74,.65,1.68,1.01,2.67,1.01,2.23,0,4.04-1.81,4.04-4.04"/><path d="M194.79,44.2c0,3.05,2.48,5.53,5.53,5.53s5.53-2.48,5.53-5.53-2.48-5.53-5.53-5.53-5.53,2.48-5.53,5.53m10.56,0c0,2.77-2.26,5.03-5.03,5.03s-5.03-2.26-5.03-5.03,2.26-5.03,5.03-5.03,5.03,2.26,5.03,5.03"/><path d="M197.81,44.2c0,1.38,1.13,2.51,2.51,2.51s2.51-1.12,2.51-2.51-1.12-2.51-2.51-2.51-2.51,1.12-2.51,2.51m4.52,0c0,1.11-.9,2.01-2.01,2.01s-2.01-.9-2.01-2.01,.9-2.01,2.01-2.01,2.01,.9,2.01,2.01"/><path d="M182.51,49.32h5.93l-3.65,3.65,2.49,2.49,6.29-6.29v-3.37h-11.06v3.52Zm.5-3.02h10.06v2.67l-5.79,5.79-1.78-1.78,4.15-4.15h-6.64v-2.52h0Z"/><path d="M192.72,51.25l-2.49,2.49,.18,.18c.67,.67,1.04,1.56,1.04,2.5,0,1.95-1.59,3.54-3.54,3.54-.95,0-1.83-.37-2.5-1.03l-.18-.18-2.49,2.49,.18,.18c1.33,1.33,3.1,2.07,4.99,2.07,3.89,0,7.06-3.17,7.06-7.06,0-1.88-.74-3.66-2.07-4.99l-.18-.18h0Zm-4.81,11.71c-1.67,0-3.24-.62-4.46-1.75l1.78-1.78c.74,.65,1.68,1.01,2.67,1.01,2.23,0,4.04-1.81,4.04-4.04,0-.99-.36-1.93-1.01-2.67l1.79-1.78c1.13,1.22,1.75,2.79,1.75,4.46,0,3.62-2.94,6.56-6.56,6.56"/><path d="M173.54,55.86c0,3.05,2.48,5.53,5.53,5.53s5.53-2.48,5.53-5.53-2.48-5.53-5.53-5.53-5.53,2.48-5.53,5.53m10.56,0c0,2.77-2.26,5.03-5.03,5.03s-5.03-2.26-5.03-5.03,2.26-5.03,5.03-5.03,5.03,2.26,5.03,5.03"/><path d="M176.55,55.86c0,1.38,1.13,2.51,2.51,2.51s2.51-1.12,2.51-2.51-1.12-2.51-2.51-2.51-2.51,1.12-2.51,2.51m4.52,0c0,1.11-.9,2.01-2.01,2.01s-2.01-.9-2.01-2.01,.9-2.01,2.01-2.01,2.01,.9,2.01,2.01"/><path d="M182.51,26.01h5.93l-3.65,3.65,2.49,2.49,6.29-6.29v-3.37h-11.06v3.52Zm.5-3.02h10.06v2.67l-5.79,5.79-1.78-1.78,4.15-4.15h-6.64v-2.52h0Z"/><path d="M192.72,27.93l-2.49,2.49,.18,.18c.67,.67,1.04,1.56,1.04,2.5,0,1.95-1.59,3.54-3.54,3.54-.95,0-1.83-.37-2.5-1.04l-.18-.18-2.49,2.49,.18,.18c1.33,1.33,3.1,2.07,4.99,2.07,3.89,0,7.06-3.17,7.06-7.06,0-1.88-.74-3.65-2.07-4.99l-.18-.18h0Zm-4.81,11.72c-1.67,0-3.24-.62-4.46-1.75l1.78-1.78c.74,.65,1.68,1.01,2.67,1.01,2.23,0,4.04-1.81,4.04-4.04,0-.99-.36-1.93-1.01-2.67l1.79-1.78c1.13,1.22,1.75,2.79,1.75,4.45,0,3.62-2.94,6.56-6.56,6.56"/><path d="M173.54,32.54c0,3.05,2.48,5.53,5.53,5.53s5.53-2.48,5.53-5.53-2.48-5.53-5.53-5.53-5.53,2.48-5.53,5.53m10.56,0c0,2.77-2.26,5.03-5.03,5.03s-5.03-2.26-5.03-5.03,2.26-5.03,5.03-5.03,5.03,2.26,5.03,5.03"/><path d="M176.55,32.54c0,1.38,1.13,2.51,2.51,2.51s2.51-1.12,2.51-2.51-1.12-2.51-2.51-2.51-2.51,1.13-2.51,2.51m4.52,0c0,1.11-.9,2.01-2.01,2.01s-2.01-.9-2.01-2.01,.9-2.01,2.01-2.01,2.01,.9,2.01,2.01"/><path d="M208.54,113.76l6.29-6.29v-3.37h-11.06v3.52h5.93l-3.65,3.65,2.49,2.49Zm-4.27-6.64v-2.52h10.06v2.67l-5.79,5.79-1.78-1.78,4.15-4.15h-6.64Z"/><path d="M214.16,109.72l-.18-.18-2.49,2.49,.18,.18c.67,.67,1.04,1.56,1.04,2.5,0,1.95-1.59,3.54-3.54,3.54-.95,0-1.83-.37-2.5-1.04l-.18-.18-2.49,2.49,.18,.18c1.33,1.33,3.1,2.07,4.99,2.07,3.89,0,7.06-3.16,7.06-7.06,0-1.88-.74-3.66-2.07-4.99m-4.99,11.54c-1.67,0-3.24-.62-4.46-1.75l1.78-1.78c.74,.65,1.68,1.01,2.67,1.01,2.23,0,4.04-1.81,4.04-4.04,0-.99-.36-1.93-1.01-2.67l1.79-1.78c1.13,1.22,1.75,2.79,1.75,4.46,0,3.62-2.94,6.56-6.56,6.56"/><path d="M200.32,119.68c3.05,0,5.53-2.48,5.53-5.53s-2.48-5.53-5.53-5.53-5.53,2.48-5.53,5.53,2.48,5.53,5.53,5.53m0-10.56c2.77,0,5.03,2.26,5.03,5.03s-2.26,5.03-5.03,5.03-5.03-2.26-5.03-5.03,2.26-5.03,5.03-5.03"/><path d="M200.32,116.66c1.38,0,2.51-1.12,2.51-2.51s-1.12-2.51-2.51-2.51-2.51,1.12-2.51,2.51,1.13,2.51,2.51,2.51m0-4.52c1.11,0,2.01,.9,2.01,2.01s-.9,2.01-2.01,2.01-2.01-.9-2.01-2.01,.9-2.01,2.01-2.01"/><path d="M208.54,90.44l6.29-6.29v-3.38h-11.06v3.52h5.93l-3.65,3.65,2.49,2.49h0Zm-4.27-6.63v-2.52h10.06v2.67l-5.79,5.79-1.78-1.78,4.15-4.15h-6.64Z"/><path d="M214.16,86.4l-.18-.18-2.49,2.49,.18,.18c.67,.67,1.04,1.56,1.04,2.5,0,1.95-1.59,3.54-3.54,3.54-.95,0-1.83-.37-2.5-1.04l-.18-.18-2.49,2.49,.18,.18c1.33,1.33,3.1,2.07,4.99,2.07,3.89,0,7.06-3.17,7.06-7.06,0-1.88-.74-3.66-2.07-4.99m-4.99,11.55c-1.67,0-3.24-.62-4.46-1.75l1.78-1.78c.74,.65,1.68,1.01,2.67,1.01,2.23,0,4.04-1.81,4.04-4.04,0-.99-.36-1.93-1.01-2.67l1.79-1.78c1.13,1.22,1.75,2.79,1.75,4.46,0,3.62-2.94,6.56-6.56,6.56"/><path d="M200.32,96.37c3.05,0,5.53-2.48,5.53-5.53s-2.48-5.53-5.53-5.53-5.53,2.48-5.53,5.53,2.48,5.53,5.53,5.53m0-10.56c2.77,0,5.03,2.26,5.03,5.03s-2.26,5.03-5.03,5.03-5.03-2.26-5.03-5.03,2.26-5.03,5.03-5.03"/><path d="M200.32,93.34c1.38,0,2.51-1.12,2.51-2.51s-1.12-2.51-2.51-2.51-2.51,1.12-2.51,2.51,1.13,2.51,2.51,2.51m0-4.52c1.11,0,2.01,.9,2.01,2.01s-.9,2.01-2.01,2.01-2.01-.9-2.01-2.01,.9-2.01,2.01-2.01"/><path d="M187.28,102.1l6.29-6.29v-3.38h-11.06v3.52h5.93l-3.65,3.65,2.49,2.49h0Zm-4.27-6.63v-2.52h10.06v2.67l-5.79,5.79-1.78-1.78,4.15-4.15h-6.64Z"/><path d="M192.9,98.06l-.18-.18-2.49,2.49,.18,.18c.67,.67,1.04,1.56,1.04,2.5,0,1.95-1.59,3.54-3.54,3.54-.95,0-1.83-.37-2.5-1.04l-.18-.18-2.49,2.49,.18,.18c1.33,1.33,3.11,2.07,4.99,2.07,3.89,0,7.06-3.17,7.06-7.06,0-1.88-.74-3.66-2.07-4.99m-4.99,11.55c-1.67,0-3.24-.62-4.46-1.75l1.78-1.78c.74,.65,1.68,1.01,2.67,1.01,2.23,0,4.04-1.81,4.04-4.04,0-.99-.36-1.93-1.01-2.67l1.79-1.78c1.13,1.22,1.75,2.79,1.75,4.46,0,3.62-2.94,6.56-6.56,6.56"/><path d="M179.06,108.02c3.05,0,5.53-2.48,5.53-5.53s-2.48-5.53-5.53-5.53-5.53,2.48-5.53,5.53,2.48,5.53,5.53,5.53m0-10.56c2.77,0,5.03,2.26,5.03,5.03s-2.26,5.03-5.03,5.03-5.03-2.26-5.03-5.03,2.26-5.03,5.03-5.03"/><path d="M179.06,105c1.38,0,2.51-1.12,2.51-2.51s-1.12-2.51-2.51-2.51-2.51,1.13-2.51,2.51,1.13,2.51,2.51,2.51m0-4.52c1.11,0,2.01,.9,2.01,2.01s-.9,2.01-2.01,2.01-2.01-.9-2.01-2.01,.9-2.01,2.01-2.01"/><path d="M187.28,78.78l6.29-6.29v-3.37h-11.06v3.52h5.93l-3.65,3.65,2.49,2.49Zm-4.27-6.64v-2.52h10.06v2.67l-5.79,5.79-1.78-1.78,4.15-4.15h-6.64Z"/><path d="M192.9,74.74l-.18-.18-2.49,2.49,.18,.18c.67,.67,1.04,1.56,1.04,2.5,0,1.95-1.59,3.54-3.54,3.54-.95,0-1.83-.37-2.5-1.04l-.18-.18-2.49,2.49,.18,.18c1.33,1.33,3.1,2.07,4.99,2.07,3.89,0,7.06-3.16,7.06-7.06,0-1.88-.74-3.66-2.07-4.99m-4.99,11.54c-1.67,0-3.24-.62-4.46-1.75l1.78-1.78c.74,.65,1.68,1.01,2.67,1.01,2.23,0,4.04-1.81,4.04-4.04,0-.99-.36-1.93-1.01-2.67l1.79-1.78c1.13,1.22,1.75,2.79,1.75,4.46,0,3.62-2.94,6.56-6.56,6.56"/><path d="M179.06,81.69c1.38,0,2.51-1.12,2.51-2.51s-1.12-2.51-2.51-2.51-2.51,1.12-2.51,2.51,1.13,2.51,2.51,2.51m0-4.52c1.11,0,2.01,.9,2.01,2.01s-.9,2.01-2.01,2.01-2.01-.9-2.01-2.01,.9-2.01,2.01-2.01"/><path d="M179.06,84.71c3.05,0,5.53-2.48,5.53-5.53s-2.48-5.53-5.53-5.53-5.53,2.48-5.53,5.53,2.48,5.53,5.53,5.53m0-10.56c2.77,0,5.03,2.26,5.03,5.03s-2.26,5.03-5.03,5.03-5.03-2.26-5.03-5.03,2.26-5.03,5.03-5.03"/><polygon points="214.82 150.73 203.77 150.73 203.77 154.25 209.7 154.25 208.05 155.91 208.76 155.91 210.91 153.75 204.27 153.75 204.27 151.23 214.32 151.23 214.32 153.9 212.32 155.91 213.03 155.91 214.82 154.11 214.82 150.73"/><path d="M208.54,137.08l6.29-6.29v-3.38h-11.06v3.52h5.93l-3.65,3.65,2.49,2.49h0Zm-4.27-6.63v-2.52h10.06v2.67l-5.79,5.79-1.78-1.78,4.15-4.15h-6.64Z"/><path d="M214.16,133.03l-.18-.18-2.49,2.49,.18,.18c.67,.67,1.04,1.56,1.04,2.5,0,1.95-1.59,3.54-3.54,3.54-.95,0-1.83-.37-2.5-1.04l-.18-.18-2.49,2.49,.18,.18c1.33,1.33,3.11,2.07,4.99,2.07,3.89,0,7.06-3.17,7.06-7.06,0-1.89-.74-3.66-2.07-4.99m-4.99,11.55c-1.67,0-3.24-.62-4.46-1.75l1.78-1.78c.74,.65,1.68,1.01,2.67,1.01,2.23,0,4.04-1.81,4.04-4.04,0-.99-.36-1.93-1.01-2.67l1.79-1.78c1.13,1.22,1.75,2.79,1.75,4.46,0,3.62-2.94,6.56-6.56,6.56"/><path d="M205.85,137.47c0-3.05-2.48-5.53-5.53-5.53s-5.53,2.48-5.53,5.53,2.48,5.53,5.53,5.53,5.53-2.48,5.53-5.53m-5.53,5.03c-2.77,0-5.03-2.26-5.03-5.03s2.26-5.03,5.03-5.03,5.03,2.26,5.03,5.03-2.26,5.03-5.03,5.03"/><path d="M200.32,134.96c-1.38,0-2.51,1.12-2.51,2.51s1.13,2.51,2.51,2.51,2.51-1.12,2.51-2.51-1.12-2.51-2.51-2.51m0,4.52c-1.11,0-2.01-.9-2.01-2.01s.9-2.01,2.01-2.01,2.01,.9,2.01,2.01-.9,2.01-2.01,2.01"/><path d="M182.51,142.59h5.93l-3.65,3.65,2.49,2.49,6.29-6.29v-3.37h-11.06v3.52h0Zm.5-3.02h10.06v2.67l-5.79,5.79-1.78-1.78,4.15-4.15h-6.64v-2.52h0Z"/><path d="M194.97,149.68c0-1.88-.73-3.66-2.07-4.99l-.18-.18-2.49,2.49,.18,.18c.67,.67,1.04,1.56,1.04,2.5,0,1.95-1.58,3.54-3.54,3.54-.95,0-1.83-.37-2.5-1.04l-.18-.18-2.49,2.49,.18,.18c.5,.5,1.06,.91,1.66,1.24h1.28c-.89-.29-1.71-.76-2.41-1.41l1.78-1.78c.74,.65,1.68,1.01,2.67,1.01,2.23,0,4.04-1.81,4.04-4.04,0-.99-.36-1.93-1.01-2.67l1.78-1.78c1.13,1.22,1.75,2.79,1.75,4.46,0,2.9-1.89,5.36-4.51,6.22h1.27c2.22-1.19,3.74-3.53,3.74-6.22"/><path d="M179.06,143.6c-3.05,0-5.53,2.48-5.53,5.53s2.48,5.53,5.53,5.53,5.53-2.48,5.53-5.53-2.48-5.53-5.53-5.53m0,10.56c-2.77,0-5.03-2.26-5.03-5.03s2.26-5.03,5.03-5.03,5.03,2.26,5.03,5.03-2.26,5.03-5.03,5.03"/><path d="M179.06,146.62c-1.38,0-2.51,1.12-2.51,2.51s1.13,2.51,2.51,2.51,2.51-1.12,2.51-2.51-1.12-2.51-2.51-2.51m0,4.52c-1.11,0-2.01-.9-2.01-2.01s.9-2.01,2.01-2.01,2.01,.9,2.01,2.01-.9,2.01-2.01,2.01"/><path d="M187.28,125.42l6.29-6.29v-3.38h-11.06v3.52h5.93l-3.65,3.65,2.49,2.49h0Zm-4.27-6.63v-2.52h10.06v2.67l-5.79,5.79-1.78-1.78,4.15-4.15h-6.64Z"/><path d="M187.91,133.42c3.89,0,7.06-3.17,7.06-7.06,0-1.88-.74-3.66-2.07-4.99l-.18-.18-2.49,2.49,.18,.18c.67,.67,1.04,1.55,1.04,2.5,0,1.95-1.59,3.54-3.54,3.54-.95,0-1.83-.37-2.5-1.04l-.18-.18-2.49,2.49,.18,.18c1.33,1.33,3.1,2.07,4.99,2.07m-2.67-4.03c.74,.65,1.68,1.01,2.67,1.01,2.22,0,4.04-1.81,4.04-4.04,0-1-.36-1.93-1.01-2.67l1.78-1.78c1.13,1.22,1.75,2.79,1.75,4.46,0,3.61-2.94,6.56-6.56,6.56-1.67,0-3.24-.62-4.46-1.75l1.78-1.78h.01Z"/><path d="M179.06,131.34c3.05,0,5.53-2.48,5.53-5.53s-2.48-5.53-5.53-5.53-5.53,2.48-5.53,5.53,2.48,5.53,5.53,5.53m0-10.56c2.77,0,5.03,2.26,5.03,5.03s-2.26,5.03-5.03,5.03-5.03-2.26-5.03-5.03,2.26-5.03,5.03-5.03"/><path d="M179.06,128.32c1.38,0,2.51-1.12,2.51-2.51s-1.12-2.51-2.51-2.51-2.51,1.13-2.51,2.51,1.13,2.51,2.51,2.51m0-4.52c1.11,0,2.01,.9,2.01,2.01s-.9,2.01-2.01,2.01-2.01-.9-2.01-2.01,.9-2.01,2.01-2.01"/><path d="M163.53,18l2.49,2.49,6.29-6.29v-3.38h-11.06v3.52h5.93l-3.65,3.65h0Zm-1.78-4.14v-2.52h10.06v2.67l-5.79,5.79-1.78-1.78,4.15-4.15h-6.64Z"/><path d="M166.65,24.97c-.94,0-1.83-.37-2.5-1.04l-.18-.18-2.49,2.49,.18,.18c1.33,1.33,3.1,2.07,4.99,2.07,3.89,0,7.06-3.17,7.06-7.06,0-1.88-.74-3.66-2.07-4.99l-.18-.18-2.49,2.49,.18,.18c.67,.67,1.04,1.56,1.04,2.5,0,1.95-1.59,3.54-3.54,3.54m4.04-3.54c0-.99-.36-1.93-1.01-2.67l1.78-1.79c1.13,1.22,1.75,2.79,1.75,4.46,0,3.62-2.94,6.56-6.56,6.56-1.67,0-3.24-.62-4.46-1.75l1.78-1.78c.74,.65,1.68,1.01,2.67,1.01,2.23,0,4.04-1.81,4.04-4.04"/><path d="M157.81,23.39c1.38,0,2.51-1.12,2.51-2.51s-1.12-2.51-2.51-2.51-2.51,1.12-2.51,2.51,1.13,2.51,2.51,2.51m0-4.52c1.11,0,2.01,.9,2.01,2.01s-.9,2.01-2.01,2.01-2.01-.9-2.01-2.01,.9-2.01,2.01-2.01"/><path d="M157.81,26.41c3.05,0,5.53-2.48,5.53-5.53s-2.48-5.53-5.53-5.53-5.53,2.48-5.53,5.53,2.48,5.53,5.53,5.53m0-10.56c2.77,0,5.03,2.26,5.03,5.03s-2.26,5.03-5.03,5.03-5.03-2.26-5.03-5.03,2.26-5.03,5.03-5.03"/><path d="M166.65,1.65c-.95,0-1.83-.37-2.5-1.04l-.18-.18-2.49,2.49,.18,.18c1.33,1.33,3.1,2.07,4.99,2.07,3.24,0,5.97-2.19,6.79-5.17h-.52c-.81,2.7-3.32,4.67-6.28,4.67-1.67,0-3.24-.62-4.46-1.75l1.78-1.78c.74,.65,1.68,1.01,2.67,1.01,1.54,0,2.87-.88,3.55-2.15h-.57c-.63,.99-1.73,1.65-2.98,1.65"/><path d="M158.38,0h-1.16c.19,.04,.38,.07,.58,.07s.39-.03,.58-.07"/><path d="M157.81,3.09c2.17,0,4.05-1.26,4.96-3.09h-.58c-.86,1.54-2.49,2.59-4.37,2.59s-3.53-1.05-4.39-2.59h-.58c.9,1.83,2.78,3.09,4.96,3.09"/><polygon points="145.92 2.69 142.27 6.34 144.76 8.83 151.05 2.54 151.05 0 150.55 0 150.55 2.33 144.76 8.12 142.98 6.34 147.13 2.19 140.49 2.19 140.49 0 139.99 0 139.99 2.69 145.92 2.69"/><path d="M140.4,14.77c1.33,1.33,3.1,2.07,4.99,2.07,3.89,0,7.06-3.17,7.06-7.06,0-1.88-.74-3.66-2.07-4.99l-.18-.18-2.49,2.49,.18,.18c.67,.67,1.04,1.56,1.04,2.5,0,1.95-1.59,3.54-3.54,3.54-.95,0-1.83-.37-2.5-1.04l-.18-.18-2.49,2.49,.18,.18h0Zm2.32-1.96c.74,.65,1.68,1.01,2.67,1.01,2.22,0,4.04-1.81,4.04-4.04,0-.99-.36-1.93-1.01-2.67l1.78-1.78c1.13,1.22,1.75,2.79,1.75,4.46,0,3.62-2.94,6.56-6.56,6.56-1.67,0-3.24-.62-4.46-1.75l1.78-1.78h.01Z"/><path d="M136.54,11.73c1.38,0,2.51-1.12,2.51-2.51s-1.12-2.51-2.51-2.51-2.51,1.12-2.51,2.51,1.12,2.51,2.51,2.51m0-4.52c1.11,0,2.01,.9,2.01,2.01s-.9,2.01-2.01,2.01-2.01-.9-2.01-2.01,.9-2.01,2.01-2.01"/><path d="M136.54,14.75c3.05,0,5.53-2.48,5.53-5.53s-2.48-5.53-5.53-5.53-5.53,2.48-5.53,5.53,2.48,5.53,5.53,5.53m0-10.56c2.77,0,5.03,2.26,5.03,5.03s-2.26,5.03-5.03,5.03-5.03-2.26-5.03-5.03,2.26-5.03,5.03-5.03"/><path d="M161.25,60.98h5.93l-3.65,3.65,2.49,2.49,6.29-6.29v-3.37h-11.06v3.52Zm.5-3.02h10.06v2.67l-5.79,5.79-1.78-1.78,4.15-4.15h-6.64v-2.52h0Z"/><path d="M171.64,63.08l-.18-.18-2.49,2.49,.18,.18c.67,.67,1.04,1.56,1.04,2.5,0,1.95-1.59,3.54-3.54,3.54-.95,0-1.83-.37-2.5-1.04l-.18-.18-2.49,2.49,.18,.18c1.33,1.33,3.1,2.07,4.99,2.07,3.89,0,7.06-3.17,7.06-7.06,0-1.88-.74-3.65-2.07-4.99m-4.99,11.55c-1.67,0-3.24-.62-4.46-1.75l1.78-1.78c.74,.65,1.68,1.01,2.67,1.01,2.23,0,4.04-1.81,4.04-4.04,0-.99-.36-1.93-1.01-2.67l1.79-1.78c1.13,1.22,1.75,2.79,1.75,4.45,0,3.62-2.94,6.56-6.56,6.56"/><path d="M155.29,67.52c0,1.38,1.13,2.51,2.51,2.51s2.51-1.12,2.51-2.51-1.12-2.51-2.51-2.51-2.51,1.13-2.51,2.51m4.52,0c0,1.11-.9,2.01-2.01,2.01s-2.01-.9-2.01-2.01,.9-2.01,2.01-2.01,2.01,.9,2.01,2.01"/><path d="M152.28,67.52c0,3.05,2.48,5.53,5.53,5.53s5.53-2.48,5.53-5.53-2.48-5.53-5.53-5.53-5.53,2.48-5.53,5.53m10.56,0c0,2.77-2.26,5.03-5.03,5.03s-5.03-2.26-5.03-5.03,2.26-5.03,5.03-5.03,5.03,2.26,5.03,5.03"/><path d="M161.25,37.67h5.93l-3.65,3.65,2.49,2.49,6.29-6.29v-3.37h-11.06v3.52Zm.5-3.02h10.06v2.67l-5.79,5.79-1.78-1.78,4.15-4.15h-6.64v-2.52h0Z"/><path d="M166.65,48.29c-.94,0-1.83-.37-2.5-1.04l-.18-.18-2.49,2.49,.18,.18c1.33,1.33,3.1,2.07,4.99,2.07,3.89,0,7.06-3.17,7.06-7.06,0-1.88-.74-3.66-2.07-4.99l-.18-.18-2.49,2.49,.18,.18c.67,.67,1.04,1.56,1.04,2.5,0,1.95-1.59,3.54-3.54,3.54m4.04-3.54c0-.99-.36-1.93-1.01-2.67l1.78-1.78c1.13,1.22,1.75,2.79,1.75,4.46,0,3.62-2.94,6.56-6.56,6.56-1.67,0-3.24-.62-4.46-1.75l1.78-1.78c.74,.65,1.68,1.01,2.67,1.01,2.23,0,4.04-1.81,4.04-4.04"/><path d="M155.29,44.2c0,1.38,1.13,2.51,2.51,2.51s2.51-1.12,2.51-2.51-1.12-2.51-2.51-2.51-2.51,1.12-2.51,2.51m4.52,0c0,1.11-.9,2.01-2.01,2.01s-2.01-.9-2.01-2.01,.9-2.01,2.01-2.01,2.01,.9,2.01,2.01"/><path d="M152.28,44.2c0,3.05,2.48,5.53,5.53,5.53s5.53-2.48,5.53-5.53-2.48-5.53-5.53-5.53-5.53,2.48-5.53,5.53m10.56,0c0,2.77-2.26,5.03-5.03,5.03s-5.03-2.26-5.03-5.03,2.26-5.03,5.03-5.03,5.03,2.26,5.03,5.03"/><path d="M139.99,49.32h5.93l-3.65,3.65,2.49,2.49,6.29-6.29v-3.37h-11.06v3.52Zm.5-3.02h10.06v2.67l-5.79,5.79-1.78-1.78,4.15-4.15h-6.64v-2.52h0Z"/><path d="M150.2,51.25l-2.49,2.49,.18,.18c.67,.67,1.04,1.56,1.04,2.5,0,1.95-1.59,3.54-3.54,3.54-.95,0-1.83-.37-2.5-1.03l-.18-.18-2.49,2.49,.18,.18c1.33,1.33,3.1,2.07,4.99,2.07,3.89,0,7.06-3.17,7.06-7.06,0-1.88-.74-3.66-2.07-4.99l-.18-.18h0Zm-4.81,11.71c-1.67,0-3.24-.62-4.46-1.75l1.78-1.78c.74,.65,1.68,1.01,2.67,1.01,2.23,0,4.04-1.81,4.04-4.04,0-.99-.36-1.93-1.01-2.67l1.79-1.78c1.13,1.22,1.75,2.79,1.75,4.46,0,3.62-2.94,6.56-6.56,6.56"/><path d="M131.02,55.86c0,3.05,2.48,5.53,5.53,5.53s5.53-2.48,5.53-5.53-2.48-5.53-5.53-5.53-5.53,2.48-5.53,5.53m10.56,0c0,2.77-2.26,5.03-5.03,5.03s-5.03-2.26-5.03-5.03,2.26-5.03,5.03-5.03,5.03,2.26,5.03,5.03"/><path d="M134.04,55.86c0,1.38,1.12,2.51,2.51,2.51s2.51-1.12,2.51-2.51-1.12-2.51-2.51-2.51-2.51,1.12-2.51,2.51m4.52,0c0,1.11-.9,2.01-2.01,2.01s-2.01-.9-2.01-2.01,.9-2.01,2.01-2.01,2.01,.9,2.01,2.01"/><path d="M139.99,26.01h5.93l-3.65,3.65,2.49,2.49,6.29-6.29v-3.37h-11.06v3.52Zm.5-3.02h10.06v2.67l-5.79,5.79-1.78-1.78,4.15-4.15h-6.64v-2.52h0Z"/><path d="M150.2,27.93l-2.49,2.49,.18,.18c.67,.67,1.04,1.56,1.04,2.5,0,1.95-1.59,3.54-3.54,3.54-.95,0-1.83-.37-2.5-1.04l-.18-.18-2.49,2.49,.18,.18c1.33,1.33,3.1,2.07,4.99,2.07,3.89,0,7.06-3.17,7.06-7.06,0-1.88-.74-3.65-2.07-4.99l-.18-.18h0Zm-4.81,11.72c-1.67,0-3.24-.62-4.46-1.75l1.78-1.78c.74,.65,1.68,1.01,2.67,1.01,2.23,0,4.04-1.81,4.04-4.04,0-.99-.36-1.93-1.01-2.67l1.79-1.78c1.13,1.22,1.75,2.79,1.75,4.45,0,3.62-2.94,6.56-6.56,6.56"/><path d="M134.04,32.54c0,1.38,1.12,2.51,2.51,2.51s2.51-1.12,2.51-2.51-1.12-2.51-2.51-2.51-2.51,1.13-2.51,2.51m4.52,0c0,1.11-.9,2.01-2.01,2.01s-2.01-.9-2.01-2.01,.9-2.01,2.01-2.01,2.01,.9,2.01,2.01"/><path d="M131.02,32.54c0,3.05,2.48,5.53,5.53,5.53s5.53-2.48,5.53-5.53-2.48-5.53-5.53-5.53-5.53,2.48-5.53,5.53m10.56,0c0,2.77-2.26,5.03-5.03,5.03s-5.03-2.26-5.03-5.03,2.26-5.03,5.03-5.03,5.03,2.26,5.03,5.03"/><path d="M166.02,113.76l6.29-6.29v-3.37h-11.06v3.52h5.93l-3.65,3.65,2.49,2.49Zm-4.27-6.64v-2.52h10.06v2.67l-5.79,5.79-1.78-1.78,4.15-4.15h-6.64Z"/><path d="M171.64,109.72l-.18-.18-2.49,2.49,.18,.18c.67,.67,1.04,1.56,1.04,2.5,0,1.95-1.59,3.54-3.54,3.54-.95,0-1.83-.37-2.5-1.04l-.18-.18-2.49,2.49,.18,.18c1.33,1.33,3.1,2.07,4.99,2.07,3.89,0,7.06-3.16,7.06-7.06,0-1.88-.74-3.66-2.07-4.99m-4.99,11.54c-1.67,0-3.24-.62-4.46-1.75l1.78-1.78c.74,.65,1.68,1.01,2.67,1.01,2.23,0,4.04-1.81,4.04-4.04,0-.99-.36-1.93-1.01-2.67l1.79-1.78c1.13,1.22,1.75,2.79,1.75,4.46,0,3.62-2.94,6.56-6.56,6.56"/><path d="M157.81,119.68c3.05,0,5.53-2.48,5.53-5.53s-2.48-5.53-5.53-5.53-5.53,2.48-5.53,5.53,2.48,5.53,5.53,5.53m0-10.56c2.77,0,5.03,2.26,5.03,5.03s-2.26,5.03-5.03,5.03-5.03-2.26-5.03-5.03,2.26-5.03,5.03-5.03"/><path d="M157.81,116.66c1.38,0,2.51-1.12,2.51-2.51s-1.12-2.51-2.51-2.51-2.51,1.12-2.51,2.51,1.13,2.51,2.51,2.51m0-4.52c1.11,0,2.01,.9,2.01,2.01s-.9,2.01-2.01,2.01-2.01-.9-2.01-2.01,.9-2.01,2.01-2.01"/><path d="M166.02,90.44l6.29-6.29v-3.38h-11.06v3.52h5.93l-3.65,3.65,2.49,2.49h0Zm-4.27-6.63v-2.52h10.06v2.67l-5.79,5.79-1.78-1.78,4.15-4.15h-6.64Z"/><path d="M171.64,86.4l-.18-.18-2.49,2.49,.18,.18c.67,.67,1.04,1.56,1.04,2.5,0,1.95-1.59,3.54-3.54,3.54-.95,0-1.83-.37-2.5-1.04l-.18-.18-2.49,2.49,.18,.18c1.33,1.33,3.1,2.07,4.99,2.07,3.89,0,7.06-3.17,7.06-7.06,0-1.88-.74-3.65-2.07-4.99m-4.99,11.55c-1.67,0-3.24-.62-4.46-1.75l1.78-1.78c.74,.65,1.68,1.01,2.67,1.01,2.23,0,4.04-1.81,4.04-4.04,0-.99-.36-1.93-1.01-2.67l1.79-1.78c1.13,1.22,1.75,2.79,1.75,4.46,0,3.62-2.94,6.56-6.56,6.56"/><path d="M157.81,93.34c1.38,0,2.51-1.12,2.51-2.51s-1.12-2.51-2.51-2.51-2.51,1.12-2.51,2.51,1.13,2.51,2.51,2.51m0-4.52c1.11,0,2.01,.9,2.01,2.01s-.9,2.01-2.01,2.01-2.01-.9-2.01-2.01,.9-2.01,2.01-2.01"/><path d="M157.81,96.37c3.05,0,5.53-2.48,5.53-5.53s-2.48-5.53-5.53-5.53-5.53,2.48-5.53,5.53,2.48,5.53,5.53,5.53m0-10.56c2.77,0,5.03,2.26,5.03,5.03s-2.26,5.03-5.03,5.03-5.03-2.26-5.03-5.03,2.26-5.03,5.03-5.03"/><path d="M144.76,102.1l6.29-6.29v-3.38h-11.06v3.52h5.93l-3.65,3.65,2.49,2.49h0Zm-4.27-6.63v-2.52h10.06v2.67l-5.79,5.79-1.78-1.78,4.15-4.15h-6.64Z"/><path d="M150.38,98.06l-.18-.18-2.49,2.49,.18,.18c.67,.67,1.04,1.56,1.04,2.5,0,1.95-1.59,3.54-3.54,3.54-.95,0-1.83-.37-2.5-1.04l-.18-.18-2.49,2.49,.18,.18c1.33,1.33,3.11,2.07,4.99,2.07,3.89,0,7.06-3.17,7.06-7.06,0-1.88-.74-3.66-2.07-4.99m-4.99,11.55c-1.67,0-3.24-.62-4.46-1.75l1.78-1.78c.74,.65,1.68,1.01,2.67,1.01,2.23,0,4.04-1.81,4.04-4.04,0-.99-.36-1.93-1.01-2.67l1.79-1.78c1.13,1.22,1.75,2.79,1.75,4.46,0,3.62-2.94,6.56-6.56,6.56"/><path d="M136.54,105c1.38,0,2.51-1.12,2.51-2.51s-1.12-2.51-2.51-2.51-2.51,1.13-2.51,2.51,1.12,2.51,2.51,2.51m0-4.52c1.11,0,2.01,.9,2.01,2.01s-.9,2.01-2.01,2.01-2.01-.9-2.01-2.01,.9-2.01,2.01-2.01"/><path d="M136.54,108.02c3.05,0,5.53-2.48,5.53-5.53s-2.48-5.53-5.53-5.53-5.53,2.48-5.53,5.53,2.48,5.53,5.53,5.53m0-10.56c2.77,0,5.03,2.26,5.03,5.03s-2.26,5.03-5.03,5.03-5.03-2.26-5.03-5.03,2.26-5.03,5.03-5.03"/><path d="M144.76,78.78l6.29-6.29v-3.37h-11.06v3.52h5.93l-3.65,3.65,2.49,2.49Zm-4.27-6.64v-2.52h10.06v2.67l-5.79,5.79-1.78-1.78,4.15-4.15h-6.64Z"/><path d="M150.38,74.74l-.18-.18-2.49,2.49,.18,.18c.67,.67,1.04,1.56,1.04,2.5,0,1.95-1.59,3.54-3.54,3.54-.95,0-1.83-.37-2.5-1.04l-.18-.18-2.49,2.49,.18,.18c1.33,1.33,3.1,2.07,4.99,2.07,3.89,0,7.06-3.16,7.06-7.06,0-1.88-.74-3.66-2.07-4.99m-4.99,11.54c-1.67,0-3.24-.62-4.46-1.75l1.78-1.78c.74,.65,1.68,1.01,2.67,1.01,2.23,0,4.04-1.81,4.04-4.04,0-.99-.36-1.93-1.01-2.67l1.79-1.78c1.13,1.22,1.75,2.79,1.75,4.46,0,3.62-2.94,6.56-6.56,6.56"/><path d="M136.54,84.71c3.05,0,5.53-2.48,5.53-5.53s-2.48-5.53-5.53-5.53-5.53,2.48-5.53,5.53,2.48,5.53,5.53,5.53m0-10.56c2.77,0,5.03,2.26,5.03,5.03s-2.26,5.03-5.03,5.03-5.03-2.26-5.03-5.03,2.26-5.03,5.03-5.03"/><path d="M136.54,81.69c1.38,0,2.51-1.12,2.51-2.51s-1.12-2.51-2.51-2.51-2.51,1.12-2.51,2.51,1.12,2.51,2.51,2.51m0-4.52c1.11,0,2.01,.9,2.01,2.01s-.9,2.01-2.01,2.01-2.01-.9-2.01-2.01,.9-2.01,2.01-2.01"/><polygon points="172.31 150.73 161.25 150.73 161.25 154.25 167.18 154.25 165.53 155.91 166.24 155.91 168.39 153.75 161.75 153.75 161.75 151.23 171.81 151.23 171.81 153.9 169.8 155.91 170.51 155.91 172.31 154.11 172.31 150.73"/><path d="M166.02,137.08l6.29-6.29v-3.38h-11.06v3.52h5.93l-3.65,3.65,2.49,2.49h0Zm-4.27-6.63v-2.52h10.06v2.67l-5.79,5.79-1.78-1.78,4.15-4.15h-6.64Z"/><path d="M171.64,133.03l-.18-.18-2.49,2.49,.18,.18c.67,.67,1.04,1.56,1.04,2.5,0,1.95-1.59,3.54-3.54,3.54-.95,0-1.83-.37-2.5-1.04l-.18-.18-2.49,2.49,.18,.18c1.33,1.33,3.11,2.07,4.99,2.07,3.89,0,7.06-3.17,7.06-7.06,0-1.88-.74-3.66-2.07-4.99m-4.99,11.55c-1.67,0-3.24-.62-4.46-1.75l1.78-1.78c.74,.65,1.68,1.01,2.67,1.01,2.23,0,4.04-1.81,4.04-4.04,0-.99-.36-1.93-1.01-2.67l1.79-1.78c1.13,1.22,1.75,2.79,1.75,4.46,0,3.62-2.94,6.56-6.56,6.56"/><path d="M163.33,137.47c0-3.05-2.48-5.53-5.53-5.53s-5.53,2.48-5.53,5.53,2.48,5.53,5.53,5.53,5.53-2.48,5.53-5.53m-5.53,5.03c-2.77,0-5.03-2.26-5.03-5.03s2.26-5.03,5.03-5.03,5.03,2.26,5.03,5.03-2.26,5.03-5.03,5.03"/><path d="M157.81,134.96c-1.38,0-2.51,1.12-2.51,2.51s1.13,2.51,2.51,2.51,2.51-1.12,2.51-2.51-1.12-2.51-2.51-2.51m0,4.52c-1.11,0-2.01-.9-2.01-2.01s.9-2.01,2.01-2.01,2.01,.9,2.01,2.01-.9,2.01-2.01,2.01"/><path d="M139.99,142.59h5.93l-3.65,3.65,2.49,2.49,6.29-6.29v-3.37h-11.06v3.52h0Zm.5-3.02h10.06v2.67l-5.79,5.79-1.78-1.78,4.15-4.15h-6.64v-2.52h0Z"/><path d="M152.45,149.68c0-1.88-.73-3.66-2.07-4.99l-.18-.18-2.49,2.49,.18,.18c.67,.67,1.04,1.56,1.04,2.5,0,1.95-1.58,3.54-3.54,3.54-.95,0-1.83-.37-2.5-1.04l-.18-.18-2.49,2.49,.18,.18c.5,.5,1.06,.91,1.66,1.24h1.28c-.89-.29-1.71-.76-2.41-1.41l1.78-1.78c.74,.65,1.68,1.01,2.67,1.01,2.23,0,4.04-1.81,4.04-4.04,0-.99-.36-1.93-1.01-2.67l1.78-1.78c1.13,1.22,1.75,2.79,1.75,4.46,0,2.9-1.89,5.36-4.51,6.22h1.27c2.22-1.19,3.74-3.53,3.74-6.22"/><path d="M136.54,143.6c-3.05,0-5.53,2.48-5.53,5.53s2.48,5.53,5.53,5.53,5.53-2.48,5.53-5.53-2.48-5.53-5.53-5.53m0,10.56c-2.77,0-5.03-2.26-5.03-5.03s2.26-5.03,5.03-5.03,5.03,2.26,5.03,5.03-2.26,5.03-5.03,5.03"/><path d="M136.54,146.62c-1.38,0-2.51,1.12-2.51,2.51s1.12,2.51,2.51,2.51,2.51-1.12,2.51-2.51-1.12-2.51-2.51-2.51m0,4.52c-1.11,0-2.01-.9-2.01-2.01s.9-2.01,2.01-2.01,2.01,.9,2.01,2.01-.9,2.01-2.01,2.01"/><path d="M144.76,125.42l6.29-6.29v-3.38h-11.06v3.52h5.93l-3.65,3.65,2.49,2.49h0Zm-4.27-6.63v-2.52h10.06v2.67l-5.79,5.79-1.78-1.78,4.15-4.15h-6.64Z"/><path d="M145.39,133.42c3.89,0,7.06-3.17,7.06-7.06,0-1.88-.74-3.66-2.07-4.99l-.18-.18-2.49,2.49,.18,.18c.67,.67,1.04,1.55,1.04,2.5,0,1.95-1.59,3.54-3.54,3.54-.95,0-1.83-.37-2.5-1.04l-.18-.18-2.49,2.49,.18,.18c1.33,1.33,3.1,2.07,4.99,2.07m-2.67-4.03c.74,.65,1.68,1.01,2.67,1.01,2.22,0,4.04-1.81,4.04-4.04,0-1-.36-1.93-1.01-2.67l1.78-1.78c1.13,1.22,1.75,2.79,1.75,4.46,0,3.61-2.94,6.56-6.56,6.56-1.67,0-3.24-.62-4.46-1.75l1.78-1.78h.01Z"/><path d="M136.54,128.32c1.38,0,2.51-1.12,2.51-2.51s-1.12-2.51-2.51-2.51-2.51,1.13-2.51,2.51,1.12,2.51,2.51,2.51m0-4.52c1.11,0,2.01,.9,2.01,2.01s-.9,2.01-2.01,2.01-2.01-.9-2.01-2.01,.9-2.01,2.01-2.01"/><path d="M136.54,131.34c3.05,0,5.53-2.48,5.53-5.53s-2.48-5.53-5.53-5.53-5.53,2.48-5.53,5.53,2.48,5.53,5.53,5.53m0-10.56c2.77,0,5.03,2.26,5.03,5.03s-2.26,5.03-5.03,5.03-5.03-2.26-5.03-5.03,2.26-5.03,5.03-5.03"/><path d="M121.01,18l2.49,2.49,6.29-6.29v-3.38h-11.06v3.52h5.93l-3.65,3.65h0Zm-1.78-4.14v-2.52h10.06v2.67l-5.79,5.79-1.78-1.78,4.15-4.15h-6.64Z"/><path d="M124.13,24.97c-.94,0-1.83-.37-2.5-1.04l-.18-.18-2.49,2.49,.18,.18c1.33,1.33,3.1,2.07,4.99,2.07,3.89,0,7.06-3.17,7.06-7.06,0-1.88-.74-3.66-2.07-4.99l-.18-.18-2.49,2.49,.18,.18c.67,.67,1.04,1.56,1.04,2.5,0,1.95-1.59,3.54-3.54,3.54m4.04-3.54c0-.99-.36-1.93-1.01-2.67l1.78-1.79c1.13,1.22,1.75,2.79,1.75,4.46,0,3.62-2.94,6.56-6.56,6.56-1.67,0-3.24-.62-4.46-1.75l1.78-1.78c.74,.65,1.68,1.01,2.67,1.01,2.22,0,4.04-1.81,4.04-4.04"/><path d="M115.28,23.39c1.38,0,2.51-1.12,2.51-2.51s-1.12-2.51-2.51-2.51-2.51,1.12-2.51,2.51,1.12,2.51,2.51,2.51m0-4.52c1.11,0,2.01,.9,2.01,2.01s-.9,2.01-2.01,2.01-2.01-.9-2.01-2.01,.9-2.01,2.01-2.01"/><path d="M115.28,26.41c3.05,0,5.53-2.48,5.53-5.53s-2.48-5.53-5.53-5.53-5.53,2.48-5.53,5.53,2.48,5.53,5.53,5.53m0-10.56c2.77,0,5.03,2.26,5.03,5.03s-2.26,5.03-5.03,5.03-5.03-2.26-5.03-5.03,2.26-5.03,5.03-5.03"/><path d="M124.13,1.65c-.95,0-1.83-.37-2.5-1.04l-.18-.18-2.49,2.49,.18,.18c1.33,1.33,3.1,2.07,4.99,2.07,3.24,0,5.97-2.19,6.79-5.17h-.52c-.81,2.7-3.32,4.67-6.28,4.67-1.67,0-3.24-.62-4.46-1.75l1.78-1.78c.74,.65,1.68,1.01,2.67,1.01,1.54,0,2.87-.88,3.55-2.15h-.57c-.63,.99-1.73,1.65-2.98,1.65"/><path d="M115.86,0h-1.16c.19,.04,.38,.07,.58,.07s.39-.03,.58-.07"/><path d="M115.28,3.09c2.17,0,4.05-1.26,4.96-3.09h-.58c-.86,1.54-2.49,2.59-4.37,2.59s-3.52-1.05-4.38-2.59h-.58c.9,1.83,2.78,3.09,4.96,3.09"/><polygon points="103.4 2.69 99.75 6.34 102.24 8.83 108.53 2.54 108.53 0 108.03 0 108.03 2.33 102.24 8.12 100.46 6.34 104.61 2.19 97.97 2.19 97.97 0 97.47 0 97.47 2.69 103.4 2.69"/><path d="M97.88,14.77c1.33,1.33,3.1,2.07,4.99,2.07,3.89,0,7.06-3.17,7.06-7.06,0-1.88-.74-3.66-2.07-4.99l-.18-.18-2.49,2.49,.18,.18c.67,.67,1.04,1.56,1.04,2.5,0,1.95-1.59,3.54-3.54,3.54-.94,0-1.83-.37-2.5-1.04l-.18-.18-2.49,2.49,.18,.18Zm2.32-1.96c.74,.65,1.68,1.01,2.67,1.01,2.22,0,4.04-1.81,4.04-4.04,0-.99-.36-1.93-1.01-2.67l1.78-1.78c1.13,1.22,1.75,2.79,1.75,4.46,0,3.62-2.94,6.56-6.56,6.56-1.67,0-3.24-.62-4.46-1.75l1.78-1.78h.01Z"/><path d="M94.02,14.75c3.05,0,5.53-2.48,5.53-5.53s-2.48-5.53-5.53-5.53-5.53,2.48-5.53,5.53,2.48,5.53,5.53,5.53m0-10.56c2.77,0,5.03,2.26,5.03,5.03s-2.26,5.03-5.03,5.03-5.03-2.26-5.03-5.03,2.26-5.03,5.03-5.03"/><path d="M94.02,11.73c1.38,0,2.51-1.12,2.51-2.51s-1.12-2.51-2.51-2.51-2.51,1.12-2.51,2.51,1.12,2.51,2.51,2.51m0-4.52c1.11,0,2.01,.9,2.01,2.01s-.9,2.01-2.01,2.01-2.01-.9-2.01-2.01,.9-2.01,2.01-2.01"/><path d="M118.73,60.98h5.93l-3.65,3.65,2.49,2.49,6.29-6.29v-3.37h-11.06v3.52Zm.5-3.02h10.06v2.67l-5.79,5.79-1.78-1.78,4.15-4.15h-6.64v-2.52h0Z"/><path d="M129.12,63.08l-.18-.18-2.49,2.49,.18,.18c.67,.67,1.04,1.56,1.04,2.5,0,1.95-1.59,3.54-3.54,3.54-.95,0-1.83-.37-2.5-1.04l-.18-.18-2.49,2.49,.18,.18c1.33,1.33,3.1,2.07,4.99,2.07,3.89,0,7.06-3.17,7.06-7.06,0-1.88-.74-3.65-2.07-4.99m-4.99,11.55c-1.67,0-3.24-.62-4.46-1.75l1.78-1.78c.74,.65,1.68,1.01,2.67,1.01,2.23,0,4.04-1.81,4.04-4.04,0-.99-.36-1.93-1.01-2.67l1.78-1.78c1.13,1.22,1.75,2.79,1.75,4.45,0,3.62-2.94,6.56-6.56,6.56"/><path d="M112.78,67.52c0,1.38,1.12,2.51,2.51,2.51s2.51-1.12,2.51-2.51-1.12-2.51-2.51-2.51-2.51,1.13-2.51,2.51m4.52,0c0,1.11-.9,2.01-2.01,2.01s-2.01-.9-2.01-2.01,.9-2.01,2.01-2.01,2.01,.9,2.01,2.01"/><path d="M109.76,67.52c0,3.05,2.48,5.53,5.53,5.53s5.53-2.48,5.53-5.53-2.48-5.53-5.53-5.53-5.53,2.48-5.53,5.53m10.56,0c0,2.77-2.26,5.03-5.03,5.03s-5.03-2.26-5.03-5.03,2.26-5.03,5.03-5.03,5.03,2.26,5.03,5.03"/><path d="M118.73,37.67h5.93l-3.65,3.65,2.49,2.49,6.29-6.29v-3.37h-11.06v3.52Zm.5-3.02h10.06v2.67l-5.79,5.79-1.78-1.78,4.15-4.15h-6.64v-2.52h0Z"/><path d="M124.13,48.29c-.94,0-1.83-.37-2.5-1.04l-.18-.18-2.49,2.49,.18,.18c1.33,1.33,3.1,2.07,4.99,2.07,3.89,0,7.06-3.17,7.06-7.06,0-1.88-.74-3.66-2.07-4.99l-.18-.18-2.49,2.49,.18,.18c.67,.67,1.04,1.56,1.04,2.5,0,1.95-1.59,3.54-3.54,3.54m4.04-3.54c0-.99-.36-1.93-1.01-2.67l1.78-1.78c1.13,1.22,1.75,2.79,1.75,4.46,0,3.62-2.94,6.56-6.56,6.56-1.67,0-3.24-.62-4.46-1.75l1.78-1.78c.74,.65,1.68,1.01,2.67,1.01,2.22,0,4.04-1.81,4.04-4.04"/><path d="M109.76,44.2c0,3.05,2.48,5.53,5.53,5.53s5.53-2.48,5.53-5.53-2.48-5.53-5.53-5.53-5.53,2.48-5.53,5.53m10.56,0c0,2.77-2.26,5.03-5.03,5.03s-5.03-2.26-5.03-5.03,2.26-5.03,5.03-5.03,5.03,2.26,5.03,5.03"/><path d="M112.78,44.2c0,1.38,1.12,2.51,2.51,2.51s2.51-1.12,2.51-2.51-1.12-2.51-2.51-2.51-2.51,1.12-2.51,2.51m4.52,0c0,1.11-.9,2.01-2.01,2.01s-2.01-.9-2.01-2.01,.9-2.01,2.01-2.01,2.01,.9,2.01,2.01"/><path d="M97.47,49.32h5.93l-3.65,3.65,2.49,2.49,6.29-6.29v-3.37h-11.06v3.52Zm.5-3.02h10.06v2.67l-5.79,5.79-1.78-1.78,4.15-4.15h-6.64v-2.52h0Z"/><path d="M107.68,51.25l-2.49,2.49,.18,.18c.67,.67,1.04,1.56,1.04,2.5,0,1.95-1.59,3.54-3.54,3.54-.95,0-1.83-.37-2.5-1.03l-.18-.18-2.49,2.49,.18,.18c1.33,1.33,3.1,2.07,4.99,2.07,3.89,0,7.06-3.17,7.06-7.06,0-1.88-.74-3.66-2.07-4.99l-.18-.18h0Zm-4.81,11.71c-1.67,0-3.24-.62-4.46-1.75l1.78-1.78c.74,.65,1.68,1.01,2.67,1.01,2.23,0,4.04-1.81,4.04-4.04,0-.99-.36-1.93-1.01-2.67l1.79-1.78c1.13,1.22,1.75,2.79,1.75,4.46,0,3.62-2.94,6.56-6.56,6.56"/><path d="M88.5,55.86c0,3.05,2.48,5.53,5.53,5.53s5.53-2.48,5.53-5.53-2.48-5.53-5.53-5.53-5.53,2.48-5.53,5.53m10.56,0c0,2.77-2.26,5.03-5.03,5.03s-5.03-2.26-5.03-5.03,2.26-5.03,5.03-5.03,5.03,2.26,5.03,5.03"/><path d="M91.52,55.86c0,1.38,1.12,2.51,2.51,2.51s2.51-1.12,2.51-2.51-1.12-2.51-2.51-2.51-2.51,1.12-2.51,2.51m4.52,0c0,1.11-.9,2.01-2.01,2.01s-2.01-.9-2.01-2.01,.9-2.01,2.01-2.01,2.01,.9,2.01,2.01"/><path d="M97.47,26.01h5.93l-3.65,3.65,2.49,2.49,6.29-6.29v-3.37h-11.06v3.52Zm.5-3.02h10.06v2.67l-5.79,5.79-1.78-1.78,4.15-4.15h-6.64v-2.52h0Z"/><path d="M107.68,27.93l-2.49,2.49,.18,.18c.67,.67,1.04,1.56,1.04,2.5,0,1.95-1.59,3.54-3.54,3.54-.95,0-1.83-.37-2.5-1.04l-.18-.18-2.49,2.49,.18,.18c1.33,1.33,3.1,2.07,4.99,2.07,3.89,0,7.06-3.17,7.06-7.06,0-1.88-.74-3.65-2.07-4.99l-.18-.18Zm-4.81,11.72c-1.67,0-3.24-.62-4.46-1.75l1.78-1.78c.74,.65,1.68,1.01,2.67,1.01,2.23,0,4.04-1.81,4.04-4.04,0-.99-.36-1.93-1.01-2.67l1.79-1.78c1.13,1.22,1.75,2.79,1.75,4.45,0,3.62-2.94,6.56-6.56,6.56"/><path d="M88.5,32.54c0,3.05,2.48,5.53,5.53,5.53s5.53-2.48,5.53-5.53-2.48-5.53-5.53-5.53-5.53,2.48-5.53,5.53m10.56,0c0,2.77-2.26,5.03-5.03,5.03s-5.03-2.26-5.03-5.03,2.26-5.03,5.03-5.03,5.03,2.26,5.03,5.03"/><path d="M91.52,32.54c0,1.38,1.12,2.51,2.51,2.51s2.51-1.12,2.51-2.51-1.12-2.51-2.51-2.51-2.51,1.13-2.51,2.51m4.52,0c0,1.11-.9,2.01-2.01,2.01s-2.01-.9-2.01-2.01,.9-2.01,2.01-2.01,2.01,.9,2.01,2.01"/><path d="M123.5,113.76l6.29-6.29v-3.37h-11.06v3.52h5.93l-3.65,3.65,2.49,2.49Zm-4.27-6.64v-2.52h10.06v2.67l-5.79,5.79-1.78-1.78,4.15-4.15h-6.64Z"/><path d="M129.12,109.72l-.18-.18-2.49,2.49,.18,.18c.67,.67,1.04,1.56,1.04,2.5,0,1.95-1.59,3.54-3.54,3.54-.95,0-1.83-.37-2.5-1.04l-.18-.18-2.49,2.49,.18,.18c1.33,1.33,3.1,2.07,4.99,2.07,3.89,0,7.06-3.16,7.06-7.06,0-1.88-.74-3.66-2.07-4.99m-4.99,11.54c-1.67,0-3.24-.62-4.46-1.75l1.78-1.78c.74,.65,1.68,1.01,2.67,1.01,2.23,0,4.04-1.81,4.04-4.04,0-.99-.36-1.93-1.01-2.67l1.78-1.78c1.13,1.22,1.75,2.79,1.75,4.46,0,3.62-2.94,6.56-6.56,6.56"/><path d="M115.28,119.68c3.05,0,5.53-2.48,5.53-5.53s-2.48-5.53-5.53-5.53-5.53,2.48-5.53,5.53,2.48,5.53,5.53,5.53m0-10.56c2.77,0,5.03,2.26,5.03,5.03s-2.26,5.03-5.03,5.03-5.03-2.26-5.03-5.03,2.26-5.03,5.03-5.03"/><path d="M115.28,116.66c1.38,0,2.51-1.12,2.51-2.51s-1.12-2.51-2.51-2.51-2.51,1.12-2.51,2.51,1.12,2.51,2.51,2.51m0-4.52c1.11,0,2.01,.9,2.01,2.01s-.9,2.01-2.01,2.01-2.01-.9-2.01-2.01,.9-2.01,2.01-2.01"/><path d="M123.5,90.44l6.29-6.29v-3.38h-11.06v3.52h5.93l-3.65,3.65,2.49,2.49h0Zm-4.27-6.63v-2.52h10.06v2.67l-5.79,5.79-1.78-1.78,4.15-4.15h-6.64Z"/><path d="M129.12,86.4l-.18-.18-2.49,2.49,.18,.18c.67,.67,1.04,1.56,1.04,2.5,0,1.95-1.59,3.54-3.54,3.54-.95,0-1.83-.37-2.5-1.04l-.18-.18-2.49,2.49,.18,.18c1.33,1.33,3.1,2.07,4.99,2.07,3.89,0,7.06-3.17,7.06-7.06,0-1.88-.74-3.65-2.07-4.99m-4.99,11.55c-1.67,0-3.24-.62-4.46-1.75l1.78-1.78c.74,.65,1.68,1.01,2.67,1.01,2.23,0,4.04-1.81,4.04-4.04,0-.99-.36-1.93-1.01-2.67l1.78-1.78c1.13,1.22,1.75,2.79,1.75,4.46,0,3.62-2.94,6.56-6.56,6.56"/><path d="M115.28,93.34c1.38,0,2.51-1.12,2.51-2.51s-1.12-2.51-2.51-2.51-2.51,1.12-2.51,2.51,1.12,2.51,2.51,2.51m0-4.52c1.11,0,2.01,.9,2.01,2.01s-.9,2.01-2.01,2.01-2.01-.9-2.01-2.01,.9-2.01,2.01-2.01"/><path d="M115.28,96.37c3.05,0,5.53-2.48,5.53-5.53s-2.48-5.53-5.53-5.53-5.53,2.48-5.53,5.53,2.48,5.53,5.53,5.53m0-10.56c2.77,0,5.03,2.26,5.03,5.03s-2.26,5.03-5.03,5.03-5.03-2.26-5.03-5.03,2.26-5.03,5.03-5.03"/><path d="M102.24,102.1l6.29-6.29v-3.38h-11.06v3.52h5.93l-3.65,3.65,2.49,2.49h0Zm-4.27-6.63v-2.52h10.06v2.67l-5.79,5.79-1.78-1.78,4.15-4.15h-6.64Z"/><path d="M107.86,98.06l-.18-.18-2.49,2.49,.18,.18c.67,.67,1.04,1.56,1.04,2.5,0,1.95-1.59,3.54-3.54,3.54-.95,0-1.83-.37-2.5-1.04l-.18-.18-2.49,2.49,.18,.18c1.33,1.33,3.11,2.07,4.99,2.07,3.89,0,7.06-3.17,7.06-7.06,0-1.88-.74-3.66-2.07-4.99m-4.99,11.55c-1.67,0-3.24-.62-4.46-1.75l1.78-1.78c.74,.65,1.68,1.01,2.67,1.01,2.23,0,4.04-1.81,4.04-4.04,0-.99-.36-1.93-1.01-2.67l1.79-1.78c1.13,1.22,1.75,2.79,1.75,4.46,0,3.62-2.94,6.56-6.56,6.56"/><path d="M94.02,105c1.38,0,2.51-1.12,2.51-2.51s-1.12-2.51-2.51-2.51-2.51,1.13-2.51,2.51,1.12,2.51,2.51,2.51m0-4.52c1.11,0,2.01,.9,2.01,2.01s-.9,2.01-2.01,2.01-2.01-.9-2.01-2.01,.9-2.01,2.01-2.01"/><path d="M94.02,108.02c3.05,0,5.53-2.48,5.53-5.53s-2.48-5.53-5.53-5.53-5.53,2.48-5.53,5.53,2.48,5.53,5.53,5.53m0-10.56c2.77,0,5.03,2.26,5.03,5.03s-2.26,5.03-5.03,5.03-5.03-2.26-5.03-5.03,2.26-5.03,5.03-5.03"/><path d="M102.24,78.78l6.29-6.29v-3.37h-11.06v3.52h5.93l-3.65,3.65,2.49,2.49Zm-4.27-6.64v-2.52h10.06v2.67l-5.79,5.79-1.78-1.78,4.15-4.15h-6.64Z"/><path d="M107.86,74.74l-.18-.18-2.49,2.49,.18,.18c.67,.67,1.04,1.56,1.04,2.5,0,1.95-1.59,3.54-3.54,3.54-.95,0-1.83-.37-2.5-1.04l-.18-.18-2.49,2.49,.18,.18c1.33,1.33,3.1,2.07,4.99,2.07,3.89,0,7.06-3.16,7.06-7.06,0-1.88-.74-3.66-2.07-4.99m-4.99,11.54c-1.67,0-3.24-.62-4.46-1.75l1.78-1.78c.74,.65,1.68,1.01,2.67,1.01,2.23,0,4.04-1.81,4.04-4.04,0-.99-.36-1.93-1.01-2.67l1.79-1.78c1.13,1.22,1.75,2.79,1.75,4.46,0,3.62-2.94,6.56-6.56,6.56"/><path d="M94.02,81.69c1.38,0,2.51-1.12,2.51-2.51s-1.12-2.51-2.51-2.51-2.51,1.12-2.51,2.51,1.12,2.51,2.51,2.51m0-4.52c1.11,0,2.01,.9,2.01,2.01s-.9,2.01-2.01,2.01-2.01-.9-2.01-2.01,.9-2.01,2.01-2.01"/><path d="M94.02,84.71c3.05,0,5.53-2.48,5.53-5.53s-2.48-5.53-5.53-5.53-5.53,2.48-5.53,5.53,2.48,5.53,5.53,5.53m0-10.56c2.77,0,5.03,2.26,5.03,5.03s-2.26,5.03-5.03,5.03-5.03-2.26-5.03-5.03,2.26-5.03,5.03-5.03"/><polygon points="129.79 150.73 118.73 150.73 118.73 154.25 124.66 154.25 123.01 155.91 123.72 155.91 125.87 153.75 119.23 153.75 119.23 151.23 129.29 151.23 129.29 153.9 127.28 155.91 127.99 155.91 129.79 154.11 129.79 150.73"/><path d="M123.5,137.08l6.29-6.29v-3.38h-11.06v3.52h5.93l-3.65,3.65,2.49,2.49h0Zm-4.27-6.63v-2.52h10.06v2.67l-5.79,5.79-1.78-1.78,4.15-4.15h-6.64Z"/><path d="M129.12,133.03l-.18-.18-2.49,2.49,.18,.18c.67,.67,1.04,1.56,1.04,2.5,0,1.95-1.59,3.54-3.54,3.54-.95,0-1.83-.37-2.5-1.04l-.18-.18-2.49,2.49,.18,.18c1.33,1.33,3.11,2.07,4.99,2.07,3.89,0,7.06-3.17,7.06-7.06,0-1.88-.74-3.66-2.07-4.99m-4.99,11.55c-1.67,0-3.24-.62-4.46-1.75l1.78-1.78c.74,.65,1.68,1.01,2.67,1.01,2.23,0,4.04-1.81,4.04-4.04,0-.99-.36-1.93-1.01-2.67l1.78-1.78c1.13,1.22,1.75,2.79,1.75,4.46,0,3.62-2.94,6.56-6.56,6.56"/><path d="M115.28,134.96c-1.38,0-2.51,1.12-2.51,2.51s1.12,2.51,2.51,2.51,2.51-1.12,2.51-2.51-1.12-2.51-2.51-2.51m0,4.52c-1.11,0-2.01-.9-2.01-2.01s.9-2.01,2.01-2.01,2.01,.9,2.01,2.01-.9,2.01-2.01,2.01"/><path d="M120.81,137.47c0-3.05-2.48-5.53-5.53-5.53s-5.53,2.48-5.53,5.53,2.48,5.53,5.53,5.53,5.53-2.48,5.53-5.53m-5.53,5.03c-2.77,0-5.03-2.26-5.03-5.03s2.26-5.03,5.03-5.03,5.03,2.26,5.03,5.03-2.26,5.03-5.03,5.03"/><path d="M97.47,142.59h5.93l-3.65,3.65,2.49,2.49,6.29-6.29v-3.37h-11.06v3.52h0Zm.5-3.02h10.06v2.67l-5.79,5.79-1.78-1.78,4.15-4.15h-6.64v-2.52h0Z"/><path d="M109.93,149.68c0-1.88-.73-3.66-2.07-4.99l-.18-.18-2.49,2.49,.18,.18c.67,.67,1.04,1.56,1.04,2.5,0,1.95-1.58,3.54-3.54,3.54-.94,0-1.83-.37-2.5-1.04l-.18-.18-2.49,2.49,.18,.18c.5,.5,1.06,.91,1.66,1.24h1.28c-.89-.29-1.71-.76-2.41-1.41l1.78-1.78c.74,.65,1.68,1.01,2.67,1.01,2.23,0,4.04-1.81,4.04-4.04,0-.99-.36-1.93-1.01-2.67l1.78-1.78c1.13,1.22,1.75,2.79,1.75,4.46,0,2.9-1.89,5.36-4.51,6.22h1.27c2.22-1.19,3.74-3.53,3.74-6.22"/><path d="M94.02,146.62c-1.38,0-2.51,1.12-2.51,2.51s1.12,2.51,2.51,2.51,2.51-1.12,2.51-2.51-1.12-2.51-2.51-2.51m0,4.52c-1.11,0-2.01-.9-2.01-2.01s.9-2.01,2.01-2.01,2.01,.9,2.01,2.01-.9,2.01-2.01,2.01"/><path d="M94.02,143.6c-3.05,0-5.53,2.48-5.53,5.53s2.48,5.53,5.53,5.53,5.53-2.48,5.53-5.53-2.48-5.53-5.53-5.53m0,10.56c-2.77,0-5.03-2.26-5.03-5.03s2.26-5.03,5.03-5.03,5.03,2.26,5.03,5.03-2.26,5.03-5.03,5.03"/><path d="M102.24,125.42l6.29-6.29v-3.38h-11.06v3.52h5.93l-3.65,3.65,2.49,2.49h0Zm-4.27-6.63v-2.52h10.06v2.67l-5.79,5.79-1.78-1.78,4.15-4.15h-6.64Z"/><path d="M102.87,133.42c3.89,0,7.06-3.17,7.06-7.06,0-1.88-.74-3.66-2.07-4.99l-.18-.18-2.49,2.49,.18,.18c.67,.67,1.04,1.55,1.04,2.5,0,1.95-1.59,3.54-3.54,3.54-.94,0-1.83-.37-2.5-1.04l-.18-.18-2.49,2.49,.18,.18c1.33,1.33,3.1,2.07,4.99,2.07m-2.67-4.03c.74,.65,1.68,1.01,2.67,1.01,2.22,0,4.04-1.81,4.04-4.04,0-1-.36-1.93-1.01-2.67l1.78-1.78c1.13,1.22,1.75,2.79,1.75,4.46,0,3.61-2.94,6.56-6.56,6.56-1.67,0-3.24-.62-4.46-1.75l1.78-1.78h.01Z"/><path d="M94.02,128.32c1.38,0,2.51-1.12,2.51-2.51s-1.12-2.51-2.51-2.51-2.51,1.13-2.51,2.51,1.12,2.51,2.51,2.51m0-4.52c1.11,0,2.01,.9,2.01,2.01s-.9,2.01-2.01,2.01-2.01-.9-2.01-2.01,.9-2.01,2.01-2.01"/><path d="M94.02,131.34c3.05,0,5.53-2.48,5.53-5.53s-2.48-5.53-5.53-5.53-5.53,2.48-5.53,5.53,2.48,5.53,5.53,5.53m0-10.56c2.77,0,5.03,2.26,5.03,5.03s-2.26,5.03-5.03,5.03-5.03-2.26-5.03-5.03,2.26-5.03,5.03-5.03"/><path d="M78.49,18l2.49,2.49,6.29-6.29v-3.38h-11.06v3.52h5.93l-3.65,3.65h0Zm-1.78-4.14v-2.52h10.06v2.67l-5.79,5.79-1.78-1.78,4.15-4.15h-6.64Z"/><path d="M81.61,24.97c-.94,0-1.83-.37-2.5-1.04l-.18-.18-2.49,2.49,.18,.18c1.33,1.33,3.1,2.07,4.99,2.07,3.89,0,7.06-3.17,7.06-7.06,0-1.88-.73-3.66-2.07-4.99l-.18-.18-2.49,2.49,.18,.18c.67,.67,1.04,1.56,1.04,2.5,0,1.95-1.59,3.54-3.54,3.54m4.04-3.54c0-.99-.36-1.93-1.01-2.67l1.78-1.79c1.13,1.22,1.75,2.79,1.75,4.46,0,3.62-2.94,6.56-6.56,6.56-1.67,0-3.24-.62-4.46-1.75l1.78-1.78c.74,.65,1.68,1.01,2.67,1.01,2.22,0,4.04-1.81,4.04-4.04"/><path d="M72.77,23.39c1.38,0,2.51-1.12,2.51-2.51s-1.12-2.51-2.51-2.51-2.51,1.12-2.51,2.51,1.12,2.51,2.51,2.51m0-4.52c1.11,0,2.01,.9,2.01,2.01s-.9,2.01-2.01,2.01-2.01-.9-2.01-2.01,.9-2.01,2.01-2.01"/><path d="M72.77,26.41c3.05,0,5.53-2.48,5.53-5.53s-2.48-5.53-5.53-5.53-5.53,2.48-5.53,5.53,2.48,5.53,5.53,5.53m0-10.56c2.77,0,5.03,2.26,5.03,5.03s-2.26,5.03-5.03,5.03-5.03-2.26-5.03-5.03,2.26-5.03,5.03-5.03"/><path d="M81.61,1.65c-.95,0-1.83-.37-2.5-1.04l-.18-.18-2.49,2.49,.18,.18c1.33,1.33,3.1,2.07,4.99,2.07,3.24,0,5.97-2.19,6.79-5.17h-.52c-.81,2.7-3.32,4.67-6.28,4.67-1.67,0-3.24-.62-4.46-1.75l1.78-1.78c.74,.65,1.68,1.01,2.67,1.01,1.54,0,2.87-.88,3.55-2.15h-.57c-.63,.99-1.73,1.65-2.98,1.65"/><path d="M73.34,0h-1.16c.19,.04,.38,.07,.58,.07s.39-.03,.58-.07"/><path d="M72.77,3.09c2.17,0,4.05-1.26,4.96-3.09h-.58c-.86,1.54-2.49,2.59-4.37,2.59s-3.53-1.05-4.39-2.59h-.58c.9,1.83,2.78,3.09,4.96,3.09"/><path d="M76.21,60.98h5.93l-3.65,3.65,2.49,2.49,6.29-6.29v-3.37h-11.06v3.52Zm.5-3.02h10.06v2.67l-5.79,5.79-1.78-1.78,4.15-4.15h-6.64v-2.52h0Z"/><path d="M86.6,63.08l-.18-.18-2.49,2.49,.18,.18c.67,.67,1.04,1.56,1.04,2.5,0,1.95-1.59,3.54-3.54,3.54-.95,0-1.83-.37-2.5-1.04l-.18-.18-2.49,2.49,.18,.18c1.33,1.33,3.1,2.07,4.99,2.07,3.89,0,7.06-3.17,7.06-7.06,0-1.88-.73-3.66-2.07-4.99m-4.99,11.55c-1.67,0-3.24-.62-4.46-1.75l1.78-1.78c.74,.65,1.68,1.01,2.67,1.01,2.23,0,4.04-1.81,4.04-4.04,0-.99-.36-1.93-1.01-2.67l1.79-1.78c1.13,1.22,1.75,2.79,1.75,4.45,0,3.62-2.94,6.56-6.56,6.56"/><path d="M70.26,67.52c0,1.38,1.12,2.51,2.51,2.51s2.51-1.12,2.51-2.51-1.12-2.51-2.51-2.51-2.51,1.13-2.51,2.51m4.52,0c0,1.11-.9,2.01-2.01,2.01s-2.01-.9-2.01-2.01,.9-2.01,2.01-2.01,2.01,.9,2.01,2.01"/><path d="M67.24,67.52c0,3.05,2.48,5.53,5.53,5.53s5.53-2.48,5.53-5.53-2.48-5.53-5.53-5.53-5.53,2.48-5.53,5.53m10.56,0c0,2.77-2.26,5.03-5.03,5.03s-5.03-2.26-5.03-5.03,2.26-5.03,5.03-5.03,5.03,2.26,5.03,5.03"/><path d="M76.21,37.67h5.93l-3.65,3.65,2.49,2.49,6.29-6.29v-3.37h-11.06v3.52Zm.5-3.02h10.06v2.67l-5.79,5.79-1.78-1.78,4.15-4.15h-6.64v-2.52h0Z"/><path d="M81.61,48.29c-.94,0-1.83-.37-2.5-1.04l-.18-.18-2.49,2.49,.18,.18c1.33,1.33,3.1,2.07,4.99,2.07,3.89,0,7.06-3.17,7.06-7.06,0-1.88-.73-3.66-2.07-4.99l-.18-.18-2.49,2.49,.18,.18c.67,.67,1.04,1.56,1.04,2.5,0,1.95-1.59,3.54-3.54,3.54m4.04-3.54c0-.99-.36-1.93-1.01-2.67l1.78-1.78c1.13,1.22,1.75,2.79,1.75,4.46,0,3.62-2.94,6.56-6.56,6.56-1.67,0-3.24-.62-4.46-1.75l1.78-1.78c.74,.65,1.68,1.01,2.67,1.01,2.22,0,4.04-1.81,4.04-4.04"/><path d="M70.26,44.2c0,1.38,1.12,2.51,2.51,2.51s2.51-1.12,2.51-2.51-1.12-2.51-2.51-2.51-2.51,1.12-2.51,2.51m4.52,0c0,1.11-.9,2.01-2.01,2.01s-2.01-.9-2.01-2.01,.9-2.01,2.01-2.01,2.01,.9,2.01,2.01"/><path d="M67.24,44.2c0,3.05,2.48,5.53,5.53,5.53s5.53-2.48,5.53-5.53-2.48-5.53-5.53-5.53-5.53,2.48-5.53,5.53m10.56,0c0,2.77-2.26,5.03-5.03,5.03s-5.03-2.26-5.03-5.03,2.26-5.03,5.03-5.03,5.03,2.26,5.03,5.03"/><path d="M80.98,113.76l6.29-6.29v-3.37h-11.06v3.52h5.93l-3.65,3.65,2.49,2.49Zm-4.27-6.64v-2.52h10.06v2.67l-5.79,5.79-1.78-1.78,4.15-4.15h-6.64Z"/><path d="M86.6,109.72l-.18-.18-2.49,2.49,.18,.18c.67,.67,1.04,1.56,1.04,2.5,0,1.95-1.59,3.54-3.54,3.54-.95,0-1.83-.37-2.5-1.04l-.18-.18-2.49,2.49,.18,.18c1.33,1.33,3.1,2.07,4.99,2.07,3.89,0,7.06-3.16,7.06-7.06,0-1.88-.73-3.66-2.07-4.99m-4.99,11.54c-1.67,0-3.24-.62-4.46-1.75l1.78-1.78c.74,.65,1.68,1.01,2.67,1.01,2.23,0,4.04-1.81,4.04-4.04,0-.99-.36-1.93-1.01-2.67l1.79-1.78c1.13,1.22,1.75,2.79,1.75,4.46,0,3.62-2.94,6.56-6.56,6.56"/><path d="M72.77,116.66c1.38,0,2.51-1.12,2.51-2.51s-1.12-2.51-2.51-2.51-2.51,1.12-2.51,2.51,1.12,2.51,2.51,2.51m0-4.52c1.11,0,2.01,.9,2.01,2.01s-.9,2.01-2.01,2.01-2.01-.9-2.01-2.01,.9-2.01,2.01-2.01"/><path d="M72.77,119.68c3.05,0,5.53-2.48,5.53-5.53s-2.48-5.53-5.53-5.53-5.53,2.48-5.53,5.53,2.48,5.53,5.53,5.53m0-10.56c2.77,0,5.03,2.26,5.03,5.03s-2.26,5.03-5.03,5.03-5.03-2.26-5.03-5.03,2.26-5.03,5.03-5.03"/><path d="M80.98,90.44l6.29-6.29v-3.38h-11.06v3.52h5.93l-3.65,3.65,2.49,2.49h0Zm-4.27-6.63v-2.52h10.06v2.67l-5.79,5.79-1.78-1.78,4.15-4.15h-6.64Z"/><path d="M86.6,86.4l-.18-.18-2.49,2.49,.18,.18c.67,.67,1.04,1.56,1.04,2.5,0,1.95-1.59,3.54-3.54,3.54-.95,0-1.83-.37-2.5-1.04l-.18-.18-2.49,2.49,.18,.18c1.33,1.33,3.1,2.07,4.99,2.07,3.89,0,7.06-3.17,7.06-7.06,0-1.88-.73-3.65-2.07-4.99m-4.99,11.55c-1.67,0-3.24-.62-4.46-1.75l1.78-1.78c.74,.65,1.68,1.01,2.67,1.01,2.23,0,4.04-1.81,4.04-4.04,0-.99-.36-1.93-1.01-2.67l1.79-1.78c1.13,1.22,1.75,2.79,1.75,4.46,0,3.62-2.94,6.56-6.56,6.56"/><path d="M72.77,96.37c3.05,0,5.53-2.48,5.53-5.53s-2.48-5.53-5.53-5.53-5.53,2.48-5.53,5.53,2.48,5.53,5.53,5.53m0-10.56c2.77,0,5.03,2.26,5.03,5.03s-2.26,5.03-5.03,5.03-5.03-2.26-5.03-5.03,2.26-5.03,5.03-5.03"/><path d="M72.77,93.34c1.38,0,2.51-1.12,2.51-2.51s-1.12-2.51-2.51-2.51-2.51,1.12-2.51,2.51,1.12,2.51,2.51,2.51m0-4.52c1.11,0,2.01,.9,2.01,2.01s-.9,2.01-2.01,2.01-2.01-.9-2.01-2.01,.9-2.01,2.01-2.01"/><polygon points="87.27 150.73 76.21 150.73 76.21 154.25 82.14 154.25 80.49 155.91 81.2 155.91 83.35 153.75 76.71 153.75 76.71 151.23 86.77 151.23 86.77 153.9 84.76 155.91 85.47 155.91 87.27 154.11 87.27 150.73"/><path d="M80.98,137.08l6.29-6.29v-3.38h-11.06v3.52h5.93l-3.65,3.65,2.49,2.49h0Zm-4.27-6.63v-2.52h10.06v2.67l-5.79,5.79-1.78-1.78,4.15-4.15h-6.64Z"/><path d="M86.6,133.03l-.18-.18-2.49,2.49,.18,.18c.67,.67,1.04,1.56,1.04,2.5,0,1.95-1.59,3.54-3.54,3.54-.95,0-1.83-.37-2.5-1.04l-.18-.18-2.49,2.49,.18,.18c1.33,1.33,3.11,2.07,4.99,2.07,3.89,0,7.06-3.17,7.06-7.06,0-1.88-.73-3.66-2.07-4.99m-4.99,11.55c-1.67,0-3.24-.62-4.46-1.75l1.78-1.78c.74,.65,1.68,1.01,2.67,1.01,2.23,0,4.04-1.81,4.04-4.04,0-.99-.36-1.93-1.01-2.67l1.79-1.78c1.13,1.22,1.75,2.79,1.75,4.46,0,3.62-2.94,6.56-6.56,6.56"/><path d="M72.77,134.96c-1.38,0-2.51,1.12-2.51,2.51s1.12,2.51,2.51,2.51,2.51-1.12,2.51-2.51-1.12-2.51-2.51-2.51m0,4.52c-1.11,0-2.01-.9-2.01-2.01s.9-2.01,2.01-2.01,2.01,.9,2.01,2.01-.9,2.01-2.01,2.01"/><path d="M78.29,137.47c0-3.05-2.48-5.53-5.53-5.53s-5.53,2.48-5.53,5.53,2.48,5.53,5.53,5.53,5.53-2.48,5.53-5.53m-5.53,5.03c-2.77,0-5.03-2.26-5.03-5.03s2.26-5.03,5.03-5.03,5.03,2.26,5.03,5.03-2.26,5.03-5.03,5.03"/></g></g></g><path d="M17.73,21.52c-.17,.23-.5,.27-.73,.09s-.27-.5-.09-.73c.62-.81,1.56-1.27,2.58-1.27,.95,0,1.85,.41,2.47,1.14,.08,.1,.12,.22,.12,.34,0,.15-.06,.29-.18,.39-.22,.19-.54,.16-.73-.06-.42-.49-1.04-.78-1.69-.78-.69,0-1.34,.32-1.76,.87"/><path d="M19.49,18.7c-1.07,0-2.09,.41-2.86,1.16-.21,.2-.53,.19-.73-.01-.2-.21-.19-.53,.01-.73,.97-.93,2.24-1.45,3.58-1.45s2.63,.52,3.6,1.46c.1,.1,.16,.24,.16,.37s-.05,.26-.15,.36c-.2,.2-.53,.21-.73,.01-.77-.75-1.8-1.17-2.88-1.17"/><path d="M19.49,16.6c-1.49,0-2.93,.53-4.06,1.48-.22,.18-.54,.16-.73-.06s-.16-.54,.06-.73c1.32-1.11,3-1.73,4.73-1.73s3.55,.66,4.89,1.87c.11,.1,.17,.24,.17,.38,0,.12-.04,.25-.13,.35-.19,.21-.52,.23-.73,.04-1.16-1.04-2.65-1.61-4.2-1.61"/><path d="M19.47,14.51c-1.93,0-3.75,.63-5.26,1.82-.23,.18-.55,.14-.73-.09-.18-.22-.14-.55,.09-.73,1.7-1.33,3.73-2.04,5.9-2.04,2.28,0,4.48,.82,6.21,2.3,.12,.1,.18,.25,.18,.39,0,.12-.04,.24-.12,.34-.19,.22-.51,.24-.73,.06-1.54-1.32-3.51-2.05-5.54-2.05"/></g></g></svg>